SplineFontDB: 3.0
FontName: Changa-Regular
FullName: Changa
FamilyName: Changa
Weight: Book
Copyright: Copyright (c) 2012, Eduardo Tunni (http://www.tipo.net.ar), with Reserved Font Name 'Changa'
Version: 1.001
ItalicAngle: 0
UnderlinePosition: -50
UnderlineWidth: 50
Ascent: 800
Descent: 200
sfntRevision: 0x00010042
LayerCount: 2
Layer: 0 1 "Back"  1
Layer: 1 1 "Fore"  0
XUID: [1021 342 1304690444 10593405]
FSType: 0
OS2Version: 3
OS2_WeightWidthSlopeOnly: 0
OS2_UseTypoMetrics: 1
CreationTime: 1323712260
ModificationTime: 1351749398
PfmFamily: 17
TTFWeight: 400
TTFWidth: 5
LineGap: 0
VLineGap: 0
Panose: 2 0 0 0 0 0 0 0 0 0
OS2TypoAscent: 914
OS2TypoAOffset: 0
OS2TypoDescent: -267
OS2TypoDOffset: 0
OS2TypoLinegap: 0
OS2WinAscent: 914
OS2WinAOffset: 0
OS2WinDescent: 267
OS2WinDOffset: 0
HheadAscent: 914
HheadAOffset: 0
HheadDescent: -267
HheadDOffset: 0
OS2SubXSize: 650
OS2SubYSize: 600
OS2SubXOff: 0
OS2SubYOff: 75
OS2SupXSize: 650
OS2SupYSize: 600
OS2SupXOff: 0
OS2SupYOff: 350
OS2StrikeYSize: 50
OS2StrikeYPos: 300
OS2Vendor: 'TIPO'
OS2CodePages: 20000093.00000000
OS2UnicodeRanges: a00000af.4000204b.00000000.00000000
Lookup: 4 0 1 "'liga' Standard Ligatures in Latin lookup 0"  {"'liga' Standard Ligatures in Latin lookup 0 subtable"  } ['liga' ('latn' <'MOL ' 'ROM ' 'dflt' > ) ]
Lookup: 1 0 0 "'locl' Localized Forms in Latin lookup 1"  {"'locl' Localized Forms in Latin lookup 1 subtable"  } ['locl' ('latn' <'MOL ' 'ROM ' > ) ]
Lookup: 257 0 0 "'case' Case-Sensitive Forms in Latin lookup 0"  {"'case' Case-Sensitive Forms in Latin lookup 0 subtable"  } ['case' ('latn' <'MOL ' 'ROM ' 'dflt' > ) ]
Lookup: 258 0 0 "'kern' Horizontal Kerning in Latin lookup 1"  {"'kern' Horizontal Kerning in Latin lookup 1 per glyph data 0"  "'kern' Horizontal Kerning in Latin lookup 1 per glyph data 1"  "'kern' Horizontal Kerning in Latin lookup 1 kerning class 2"  } ['kern' ('latn' <'MOL ' 'ROM ' 'dflt' > ) ]
DEI: 91125

StartChar: exclam
Encoding: 33 33 4
Width: 270
GlyphClass: 2
Flags: W
LayerCount: 2
Fore
SplineSet
112 625 m 2,0,-1
 158 625 l 2,1,2
 195 625 195 625 195 598 c 1,3,-1
 165 210 l 1,4,-1
 105 210 l 1,5,-1
 75 598 l 1,6,7
 75 625 75 625 112 625 c 2,0,-1
85.5 7 m 128,-1,9
 73 21 73 21 73 55.5 c 128,-1,10
 73 90 73 90 85.5 104.5 c 128,-1,11
 98 119 98 119 134.5 119 c 128,-1,12
 171 119 171 119 183.5 104.5 c 128,-1,13
 196 90 196 90 196 55.5 c 128,-1,14
 196 21 196 21 183.5 7 c 128,-1,15
 171 -7 171 -7 134.5 -7 c 128,-1,8
 98 -7 98 -7 85.5 7 c 128,-1,9
EndSplineSet
EndChar

StartChar: quotedbl
Encoding: 34 34 5
Width: 480
GlyphClass: 2
Flags: W
LayerCount: 2
Fore
SplineSet
85 623 m 2,0,1
 85 650 85 650 122 650 c 2,2,-1
 168 650 l 2,3,4
 205 650 205 650 205 623 c 2,5,-1
 205 565 l 1,6,-1
 165 360 l 1,7,-1
 125 360 l 1,8,-1
 85 565 l 1,9,-1
 85 623 l 2,0,1
275 623 m 2,10,11
 275 650 275 650 312 650 c 2,12,-1
 358 650 l 2,13,14
 395 650 395 650 395 623 c 2,15,-1
 395 565 l 1,16,-1
 355 360 l 1,17,-1
 315 360 l 1,18,-1
 275 565 l 1,19,-1
 275 623 l 2,10,11
EndSplineSet
EndChar

StartChar: numbersign
Encoding: 35 35 6
Width: 686
GlyphClass: 2
Flags: W
LayerCount: 2
Fore
SplineSet
161 467 m 2,0,-1
 245 467 l 1,1,-1
 329 640 l 2,2,3
 336 654 336 654 344 659.5 c 128,-1,4
 352 665 352 665 372 665 c 2,5,-1
 413 665 l 1,6,-1
 317 467 l 1,7,-1
 518 467 l 1,8,-1
 602 640 l 2,9,10
 609 654 609 654 617 659.5 c 128,-1,11
 625 665 625 665 645 665 c 2,12,-1
 686 665 l 1,13,-1
 590 467 l 1,14,-1
 686 467 l 1,15,-1
 668 430 l 2,16,17
 660 412 660 412 651.5 407 c 128,-1,18
 643 402 643 402 627 402 c 2,19,-1
 558 402 l 1,20,-1
 471 221 l 1,21,-1
 589 221 l 1,22,-1
 571 184 l 2,23,24
 563 166 563 166 554.5 161 c 128,-1,25
 546 156 546 156 530 156 c 2,26,-1
 439 156 l 1,27,-1
 357 -15 l 2,28,29
 350 -29 350 -29 342 -34.5 c 128,-1,30
 334 -40 334 -40 314 -40 c 2,31,-1
 273 -40 l 1,32,-1
 368 156 l 1,33,-1
 166 156 l 1,34,-1
 84 -15 l 2,35,36
 77 -29 77 -29 69 -34.5 c 128,-1,37
 61 -40 61 -40 41 -40 c 2,38,-1
 0 -40 l 1,39,-1
 95 156 l 1,40,-1
 4 156 l 1,41,-1
 22 193 l 2,42,43
 30 211 30 211 39 216 c 128,-1,44
 48 221 48 221 64 221 c 2,45,-1
 126 221 l 1,46,-1
 214 402 l 1,47,-1
 101 402 l 1,48,-1
 119 439 l 2,49,50
 127 457 127 457 136 462 c 128,-1,51
 145 467 145 467 161 467 c 2,0,-1
285 402 m 1,52,-1
 198 221 l 1,53,-1
 399 221 l 1,54,-1
 487 402 l 1,55,-1
 285 402 l 1,52,-1
EndSplineSet
EndChar

StartChar: dollar
Encoding: 36 36 7
Width: 491
GlyphClass: 2
Flags: W
LayerCount: 2
Fore
SplineSet
255 92 m 0,0,1
 294 92 294 92 329 96 c 1,2,-1
 329 243 l 1,3,-1
 267 251 l 2,4,5
 152 266 152 266 112 306 c 128,-1,6
 72 346 72 346 72 418 c 0,7,8
 72 529 72 529 109.5 581.5 c 128,-1,9
 147 634 147 634 236 639 c 1,10,-1
 240 718 l 1,11,-1
 297 718 l 1,12,-1
 293 639 l 1,13,14
 343 637 343 637 409 622 c 1,15,-1
 390 547 l 1,16,-1
 233 547 l 2,17,18
 196 547 196 547 184 509.5 c 128,-1,19
 172 472 172 472 171 379 c 1,20,-1
 234 371 l 2,21,22
 352 356 352 356 394 316 c 128,-1,23
 436 276 436 276 436 184 c 128,-1,24
 436 92 436 92 392 47.5 c 128,-1,25
 348 3 348 3 259 -2 c 1,26,-1
 254 -100 l 1,27,-1
 197 -100 l 1,28,-1
 202 -2 l 1,29,30
 117 1 117 1 55 25 c 1,31,-1
 74 114 l 1,32,33
 160 92 160 92 255 92 c 0,0,1
EndSplineSet
EndChar

StartChar: percent
Encoding: 37 37 8
Width: 971
GlyphClass: 2
Flags: W
LayerCount: 2
Fore
SplineSet
347 -40 m 2,0,-1
 296 -40 l 1,1,-1
 565 640 l 2,2,3
 570 650 570 650 574 654 c 0,4,5
 585 665 585 665 608 665 c 2,6,-1
 659 665 l 1,7,-1
 390 -15 l 2,8,9
 385 -25 385 -25 381 -29 c 0,10,11
 370 -40 370 -40 347 -40 c 2,0,-1
587 193 m 128,-1,13
 587 300 587 300 620 347.5 c 128,-1,14
 653 395 653 395 746.5 395 c 128,-1,15
 840 395 840 395 873 347.5 c 128,-1,16
 906 300 906 300 906 193 c 128,-1,17
 906 86 906 86 873 38.5 c 128,-1,18
 840 -9 840 -9 746.5 -9 c 128,-1,19
 653 -9 653 -9 620 38.5 c 128,-1,12
 587 86 587 86 587 193 c 128,-1,13
685 284 m 2,20,-1
 685 60 l 1,21,-1
 749 60 l 2,22,23
 781 60 781 60 794 67.5 c 128,-1,24
 807 75 807 75 807 101 c 2,25,-1
 807 325 l 1,26,-1
 741 325 l 2,27,28
 708 325 708 325 696.5 318 c 128,-1,29
 685 311 685 311 685 284 c 2,20,-1
36 420 m 128,-1,31
 36 527 36 527 69 574.5 c 128,-1,32
 102 622 102 622 195.5 622 c 128,-1,33
 289 622 289 622 322 574.5 c 128,-1,34
 355 527 355 527 355 420 c 128,-1,35
 355 313 355 313 322 265.5 c 128,-1,36
 289 218 289 218 195.5 218 c 128,-1,37
 102 218 102 218 69 265.5 c 128,-1,30
 36 313 36 313 36 420 c 128,-1,31
134 511 m 2,38,-1
 134 287 l 1,39,-1
 198 287 l 2,40,41
 230 287 230 287 243 294.5 c 128,-1,42
 256 302 256 302 256 328 c 2,43,-1
 256 552 l 1,44,-1
 190 552 l 2,45,46
 157 552 157 552 145.5 545 c 128,-1,47
 134 538 134 538 134 511 c 2,38,-1
EndSplineSet
EndChar

StartChar: ampersand
Encoding: 38 38 9
Width: 544
GlyphClass: 2
Flags: W
LayerCount: 2
Fore
SplineSet
196 0 m 0,0,1
 45 0 45 0 45 180 c 0,2,3
 45 299 45 299 84 338 c 0,4,5
 101 355 101 355 127 360 c 1,6,-1
 127 364 l 1,7,-1
 84 381 l 1,8,9
 84 569 84 569 146 608 c 0,10,11
 174 625 174 625 231.5 625 c 128,-1,12
 289 625 289 625 366 604 c 1,13,-1
 347 531 l 1,14,-1
 240 531 l 2,15,16
 207 531 207 531 193 512.5 c 128,-1,17
 179 494 179 494 179 439 c 2,18,-1
 179 357 l 1,19,-1
 524 357 l 1,20,-1
 502 277 l 1,21,-1
 427 277 l 1,22,-1
 427 -72 l 1,23,-1
 380 -85 l 1,24,-1
 354 51 l 1,25,26
 274 0 274 0 196 0 c 0,0,1
167.5 107.5 m 128,-1,28
 188 86 188 86 217 86 c 128,-1,29
 246 86 246 86 284.5 94.5 c 128,-1,30
 323 103 323 103 342 115 c 1,31,-1
 312 277 l 1,32,-1
 147 277 l 1,33,-1
 147 165 l 2,34,27
 147 129 147 129 167.5 107.5 c 128,-1,28
EndSplineSet
EndChar

StartChar: quotesingle
Encoding: 39 39 10
Width: 290
GlyphClass: 2
Flags: W
LayerCount: 2
Fore
SplineSet
85 623 m 2,0,1
 85 650 85 650 122 650 c 2,2,-1
 168 650 l 2,3,4
 205 650 205 650 205 623 c 2,5,-1
 205 565 l 1,6,-1
 165 360 l 1,7,-1
 125 360 l 1,8,-1
 85 565 l 1,9,-1
 85 623 l 2,0,1
EndSplineSet
EndChar

StartChar: parenleft
Encoding: 40 40 11
Width: 291
GlyphClass: 2
Flags: W
LayerCount: 2
Fore
SplineSet
178 494 m 128,-1,1
 150 422 150 422 150 280 c 128,-1,2
 150 138 150 138 178 68 c 128,-1,3
 206 -2 206 -2 241 -19 c 1,4,-1
 237 -96 l 1,5,6
 180 -75 180 -75 140.5 -29.5 c 128,-1,7
 101 16 101 16 82.5 73.5 c 128,-1,8
 64 131 64 131 57 180.5 c 128,-1,9
 50 230 50 230 50 282 c 128,-1,10
 50 334 50 334 57 383.5 c 128,-1,11
 64 433 64 433 82.5 490.5 c 128,-1,12
 101 548 101 548 140.5 593.5 c 128,-1,13
 180 639 180 639 237 660 c 1,14,-1
 241 583 l 1,15,0
 206 566 206 566 178 494 c 128,-1,1
EndSplineSet
Position2: "'case' Case-Sensitive Forms in Latin lookup 0 subtable" dx=0 dy=45 dh=0 dv=0
EndChar

StartChar: parenright
Encoding: 41 41 12
Width: 291
GlyphClass: 2
Flags: W
LayerCount: 2
Fore
SplineSet
113 70 m 128,-1,1
 141 142 141 142 141 284 c 128,-1,2
 141 426 141 426 113 496 c 128,-1,3
 85 566 85 566 50 583 c 1,4,-1
 54 660 l 1,5,6
 111 639 111 639 150.5 593.5 c 128,-1,7
 190 548 190 548 208.5 490.5 c 128,-1,8
 227 433 227 433 234 383.5 c 128,-1,9
 241 334 241 334 241 282 c 128,-1,10
 241 230 241 230 234 180.5 c 128,-1,11
 227 131 227 131 208.5 73.5 c 128,-1,12
 190 16 190 16 150.5 -29.5 c 128,-1,13
 111 -75 111 -75 54 -96 c 1,14,-1
 50 -19 l 1,15,0
 85 -2 85 -2 113 70 c 128,-1,1
EndSplineSet
Position2: "'case' Case-Sensitive Forms in Latin lookup 0 subtable" dx=0 dy=45 dh=0 dv=0
EndChar

StartChar: asterisk
Encoding: 42 42 13
Width: 536
GlyphClass: 2
Flags: W
LayerCount: 2
Fore
SplineSet
428 561 m 0,0,1
 440 561 440 561 447 543 c 1,2,-1
 461 499 l 2,3,4
 464 490 464 490 464 478.5 c 128,-1,5
 464 467 464 467 449 462 c 2,6,-1
 412 450 l 1,7,-1
 318 438 l 1,8,-1
 388 374 l 1,9,-1
 411 342 l 2,10,11
 416 335 416 335 416 326 c 128,-1,12
 416 317 416 317 400 306 c 2,13,-1
 367 282 l 2,14,15
 354 273 354 273 345 273 c 128,-1,16
 336 273 336 273 329 282 c 2,17,-1
 306 314 l 1,18,-1
 265 402 l 1,19,-1
 224 314 l 1,20,-1
 201 282 l 2,21,22
 194 273 194 273 185 273 c 128,-1,23
 176 273 176 273 163 282 c 2,24,-1
 130 306 l 2,25,26
 114 317 114 317 114 326 c 128,-1,27
 114 335 114 335 119 342 c 2,28,-1
 142 374 l 1,29,-1
 211 439 l 1,30,-1
 118 450 l 1,31,-1
 81 462 l 2,32,33
 66 467 66 467 66 478.5 c 128,-1,34
 66 490 66 490 69 499 c 2,35,-1
 83 543 l 1,36,37
 90 561 90 561 102 561 c 0,38,39
 105 561 105 561 113 559 c 2,40,-1
 150 547 l 1,41,-1
 233 501 l 1,42,-1
 215 593 l 1,43,-1
 215 632 l 2,44,45
 215 655 215 655 246 655 c 2,46,-1
 286 655 l 2,47,48
 317 655 317 655 317 632 c 2,49,-1
 317 593 l 1,50,-1
 299 502 l 1,51,-1
 380 547 l 1,52,-1
 417 559 l 2,53,54
 425 561 425 561 428 561 c 0,0,1
EndSplineSet
EndChar

StartChar: plus
Encoding: 43 43 14
Width: 570
GlyphClass: 2
Flags: W
LayerCount: 2
Fore
SplineSet
107 272 m 1,0,-1
 107 352 l 1,1,-1
 244 352 l 1,2,-1
 244 489 l 1,3,-1
 324 489 l 1,4,-1
 324 352 l 1,5,-1
 462 352 l 1,6,-1
 462 272 l 1,7,-1
 324 272 l 1,8,-1
 324 134 l 1,9,-1
 244 134 l 1,10,-1
 244 272 l 1,11,-1
 107 272 l 1,0,-1
EndSplineSet
EndChar

StartChar: comma
Encoding: 44 44 15
Width: 221
GlyphClass: 2
Flags: W
LayerCount: 2
Fore
SplineSet
53.5 18.5 m 128,-1,1
 45 36 45 36 45 77.5 c 128,-1,2
 45 119 45 119 58.5 137 c 128,-1,3
 72 155 72 155 110.5 155 c 128,-1,4
 149 155 149 155 162.5 137 c 128,-1,5
 176 119 176 119 176 71.5 c 128,-1,6
 176 24 176 24 150 -31 c 2,7,-1
 103 -132 l 1,8,-1
 60 -118 l 1,9,-1
 86 -4 l 1,10,0
 62 1 62 1 53.5 18.5 c 128,-1,1
EndSplineSet
EndChar

StartChar: hyphen
Encoding: 45 45 16
Width: 350
GlyphClass: 2
Flags: W
LayerCount: 2
Fore
SplineSet
33 233 m 1,0,-1
 33 283 l 2,1,2
 33 305 33 305 44 311 c 128,-1,3
 55 317 55 317 84 317 c 2,4,-1
 317 317 l 1,5,-1
 317 267 l 2,6,7
 317 245 317 245 306 239 c 128,-1,8
 295 233 295 233 266 233 c 2,9,-1
 33 233 l 1,0,-1
EndSplineSet
Position2: "'case' Case-Sensitive Forms in Latin lookup 0 subtable" dx=0 dy=45 dh=0 dv=0
EndChar

StartChar: period
Encoding: 46 46 17
Width: 221
GlyphClass: 2
Flags: W
LayerCount: 2
Fore
SplineSet
45 74 m 128,-1,1
 45 119 45 119 58.5 137 c 128,-1,2
 72 155 72 155 110.5 155 c 128,-1,3
 149 155 149 155 162.5 137 c 128,-1,4
 176 119 176 119 176 74 c 128,-1,5
 176 29 176 29 163 11.5 c 128,-1,6
 150 -6 150 -6 111 -6 c 128,-1,7
 72 -6 72 -6 58.5 11.5 c 128,-1,0
 45 29 45 29 45 74 c 128,-1,1
EndSplineSet
EndChar

StartChar: slash
Encoding: 47 47 18
Width: 413
GlyphClass: 2
Flags: W
LayerCount: 2
Fore
SplineSet
41 -40 m 2,0,-1
 0 -40 l 1,1,-1
 329 640 l 2,2,3
 334 650 334 650 338 654 c 0,4,5
 349 665 349 665 372 665 c 2,6,-1
 413 665 l 1,7,-1
 84 -15 l 2,8,9
 79 -25 79 -25 75 -29 c 0,10,11
 64 -40 64 -40 41 -40 c 2,0,-1
EndSplineSet
EndChar

StartChar: zero
Encoding: 48 48 19
Width: 561
GlyphClass: 2
Flags: W
LayerCount: 2
Fore
SplineSet
50 312 m 128,-1,1
 50 366 50 366 51 399 c 128,-1,2
 52 432 52 432 57 471 c 128,-1,3
 62 510 62 510 71.5 532.5 c 128,-1,4
 81 555 81 555 97.5 578.5 c 128,-1,5
 114 602 114 602 139 614 c 0,6,7
 197 640 197 640 281 640 c 0,8,9
 368 640 368 640 410 619 c 0,10,11
 433 607 433 607 450 594 c 128,-1,12
 467 581 467 581 478.5 557 c 128,-1,13
 490 533 490 533 496.5 511.5 c 128,-1,14
 503 490 503 490 506 454 c 128,-1,15
 509 418 509 418 510 388.5 c 128,-1,16
 511 359 511 359 511 312 c 128,-1,17
 511 265 511 265 510 235.5 c 128,-1,18
 509 206 509 206 506 170 c 128,-1,19
 503 134 503 134 496.5 113 c 128,-1,20
 490 92 490 92 478.5 68 c 128,-1,21
 467 44 467 44 450 31 c 128,-1,22
 433 18 433 18 410 6 c 0,23,24
 368 -15 368 -15 301 -15 c 128,-1,25
 234 -15 234 -15 199 -7.5 c 128,-1,26
 164 0 164 0 139 11.5 c 128,-1,27
 114 23 114 23 97.5 46.5 c 128,-1,28
 81 70 81 70 71.5 92 c 128,-1,29
 62 114 62 114 57 153 c 128,-1,30
 52 192 52 192 51 225 c 128,-1,0
 50 258 50 258 50 312 c 128,-1,1
166 486 m 2,31,-1
 166 86 l 1,32,-1
 314 86 l 2,33,34
 359 86 359 86 377 95.5 c 128,-1,35
 395 105 395 105 395 139 c 2,36,-1
 395 539 l 1,37,-1
 242 539 l 2,38,39
 198 539 198 539 182 530 c 128,-1,40
 166 521 166 521 166 486 c 2,31,-1
EndSplineSet
EndChar

StartChar: one
Encoding: 49 49 20
Width: 470
GlyphClass: 2
Flags: W
LayerCount: 2
Fore
SplineSet
440 0 m 1,0,-1
 40 0 l 1,1,-1
 40 90 l 1,2,-1
 208 90 l 1,3,-1
 208 505 l 1,4,-1
 40 493 l 1,5,-1
 40 573 l 1,6,-1
 260 625 l 1,7,-1
 318 625 l 1,8,-1
 318 90 l 1,9,-1
 440 90 l 1,10,-1
 440 0 l 1,0,-1
EndSplineSet
EndChar

StartChar: two
Encoding: 50 50 21
Width: 523
GlyphClass: 2
Flags: W
LayerCount: 2
Fore
SplineSet
266 640 m 0,0,1
 316 640 316 640 347 634 c 128,-1,2
 378 628 378 628 408 609 c 0,3,4
 468 572 468 572 468 439 c 0,5,6
 468 360 468 360 428 311 c 0,7,8
 399 274 399 274 288 228 c 0,9,10
 244 209 244 209 202.5 193.5 c 128,-1,11
 161 178 161 178 156 176 c 1,12,-1
 156 90 l 1,13,-1
 458 90 l 1,14,-1
 458 0 l 1,15,-1
 55 0 l 1,16,-1
 55 114 l 2,17,18
 55 190 55 190 80 226 c 1,19,20
 91 240 91 240 99 251 c 128,-1,21
 107 262 107 262 125.5 274 c 128,-1,22
 144 286 144 286 157 294 c 128,-1,23
 170 302 170 302 196.5 314 c 128,-1,24
 223 326 223 326 241 333.5 c 128,-1,25
 259 341 259 341 294 356 c 128,-1,26
 329 371 329 371 353 381 c 1,27,-1
 353 530 l 1,28,29
 314 533 314 533 273 533 c 0,30,31
 175 533 175 533 94 513 c 1,32,-1
 69 606 l 1,33,34
 168 640 168 640 266 640 c 0,0,1
EndSplineSet
EndChar

StartChar: three
Encoding: 51 51 22
Width: 507
GlyphClass: 2
Flags: W
LayerCount: 2
Fore
SplineSet
327 530 m 1,0,1
 303 533 303 533 233.5 533 c 128,-1,2
 164 533 164 533 73 514 c 1,3,-1
 47 602 l 1,4,5
 147 640 147 640 236 640 c 0,6,7
 314 640 314 640 348.5 628 c 128,-1,8
 383 616 383 616 399 599 c 0,9,10
 436 560 436 560 436 481 c 0,11,12
 436 371 436 371 353 327 c 1,13,-1
 353 322 l 1,14,15
 402 300 402 300 427 263 c 128,-1,16
 452 226 452 226 452 172 c 128,-1,17
 452 118 452 118 438.5 84.5 c 128,-1,18
 425 51 425 51 404.5 32.5 c 128,-1,19
 384 14 384 14 352 3 c 0,20,21
 298 -15 298 -15 212 -15 c 128,-1,22
 126 -15 126 -15 35 8 c 1,23,-1
 63 106 l 1,24,25
 150 85 150 85 218 85 c 128,-1,26
 286 85 286 85 327 89 c 1,27,-1
 327 253 l 1,28,-1
 165 275 l 1,29,-1
 165 358 l 1,30,-1
 327 385 l 1,31,-1
 327 530 l 1,0,1
EndSplineSet
EndChar

StartChar: four
Encoding: 52 52 23
Width: 534
GlyphClass: 2
Flags: W
LayerCount: 2
Fore
SplineSet
328 0 m 1,0,-1
 328 130 l 1,1,-1
 20 130 l 1,2,-1
 20 215 l 1,3,-1
 174 625 l 1,4,-1
 428 625 l 1,5,-1
 428 222 l 1,6,-1
 493 222 l 1,7,-1
 493 130 l 1,8,-1
 428 130 l 1,9,-1
 428 0 l 1,10,-1
 328 0 l 1,0,-1
328 222 m 1,11,-1
 328 535 l 1,12,-1
 254 535 l 1,13,-1
 125 222 l 1,14,-1
 328 222 l 1,11,-1
EndSplineSet
EndChar

StartChar: five
Encoding: 53 53 24
Width: 529
GlyphClass: 2
Flags: W
LayerCount: 2
Fore
SplineSet
271 92 m 0,0,1
 318 92 318 92 364 95 c 1,2,-1
 364 244 l 1,3,-1
 289 252 l 2,4,5
 160 266 160 266 118 288.5 c 128,-1,6
 76 311 76 311 76 379 c 0,7,8
 76 394 76 394 86 625 c 1,9,-1
 441 625 l 1,10,-1
 426 513 l 1,11,-1
 189 527 l 1,12,-1
 189 376 l 1,13,-1
 248 370 l 2,14,15
 383 356 383 356 431 314.5 c 128,-1,16
 479 273 479 273 479 184 c 0,17,18
 479 128 479 128 465 89.5 c 128,-1,19
 451 51 451 51 432 31 c 128,-1,20
 413 11 413 11 378.5 0 c 128,-1,21
 344 -11 344 -11 318 -13 c 128,-1,22
 292 -15 292 -15 248 -15 c 0,23,24
 142 -15 142 -15 52 11 c 1,25,-1
 75 112 l 1,26,27
 158 92 158 92 271 92 c 0,0,1
EndSplineSet
EndChar

StartChar: six
Encoding: 54 54 25
Width: 540
GlyphClass: 2
Flags: W
LayerCount: 2
Fore
SplineSet
370 128 m 2,0,-1
 370 277 l 1,1,-1
 229 277 l 2,2,3
 196 277 196 277 183 269.5 c 128,-1,4
 170 262 170 262 170 235 c 2,5,-1
 170 86 l 1,6,-1
 311 86 l 2,7,8
 344 86 344 86 357 93.5 c 128,-1,9
 370 101 370 101 370 128 c 2,0,-1
485 185 m 128,-1,11
 485 67 485 67 432 26 c 128,-1,12
 379 -15 379 -15 270 -15 c 0,13,14
 199 -15 199 -15 157.5 0 c 128,-1,15
 116 15 116 15 92.5 56.5 c 128,-1,16
 69 98 69 98 62 155 c 128,-1,17
 55 212 55 212 55 311.5 c 128,-1,18
 55 411 55 411 65 469.5 c 128,-1,19
 75 528 75 528 103.5 568.5 c 128,-1,20
 132 609 132 609 181 624.5 c 128,-1,21
 230 640 230 640 285 640 c 0,22,23
 387 640 387 640 462 617 c 1,24,-1
 436 521 l 1,25,26
 365 532 365 532 286.5 532 c 128,-1,27
 208 532 208 532 170 526 c 1,28,-1
 170 375 l 1,29,-1
 240 375 l 2,30,31
 300 375 300 375 340.5 368 c 128,-1,32
 381 361 381 361 416 342 c 0,33,10
 485 303 485 303 485 185 c 128,-1,11
EndSplineSet
EndChar

StartChar: seven
Encoding: 55 55 26
Width: 412
GlyphClass: 2
Flags: W
LayerCount: 2
Fore
SplineSet
407 625 m 1,0,-1
 407 559 l 1,1,-1
 207 0 l 1,2,-1
 91 0 l 1,3,-1
 280 521 l 1,4,-1
 17 518 l 1,5,-1
 5 625 l 1,6,-1
 407 625 l 1,0,-1
EndSplineSet
EndChar

StartChar: eight
Encoding: 56 56 27
Width: 540
GlyphClass: 2
Flags: W
LayerCount: 2
Fore
SplineSet
71 459 m 0,0,1
 71 640 71 640 271.5 640 c 128,-1,2
 472 640 472 640 472 459 c 0,3,4
 472 363 472 363 417 315 c 1,5,-1
 417 308 l 1,6,7
 448 290 448 290 466.5 252.5 c 128,-1,8
 485 215 485 215 485 171 c 0,9,10
 485 69 485 69 431 27 c 128,-1,11
 377 -15 377 -15 271 -15 c 128,-1,12
 165 -15 165 -15 110 27.5 c 128,-1,13
 55 70 55 70 55 171 c 0,14,15
 55 215 55 215 75 252.5 c 128,-1,16
 95 290 95 290 126 308 c 1,17,-1
 126 315 l 1,18,19
 71 362 71 362 71 459 c 0,0,1
181 290 m 0,20,21
 170 290 170 290 170 273 c 2,22,-1
 170 86 l 1,23,-1
 311 86 l 2,24,25
 344 86 344 86 357 93.5 c 128,-1,26
 370 101 370 101 370 128 c 2,27,-1
 370 211 l 1,28,-1
 201 284 l 2,29,30
 187 290 187 290 181 290 c 0,20,21
350 335 m 0,31,32
 370 335 370 335 370 353 c 2,33,-1
 370 534 l 1,34,-1
 229 534 l 2,35,36
 196 534 196 534 183 526.5 c 128,-1,37
 170 519 170 519 170 492 c 2,38,-1
 170 413 l 1,39,-1
 335 339 l 2,40,41
 343 335 343 335 350 335 c 0,31,32
EndSplineSet
EndChar

StartChar: nine
Encoding: 57 57 28
Width: 540
GlyphClass: 2
Flags: W
LayerCount: 2
Fore
SplineSet
169 497 m 2,0,-1
 169 346 l 1,1,-1
 310 346 l 2,2,3
 343 346 343 346 356 353.5 c 128,-1,4
 369 361 369 361 369 388 c 2,5,-1
 369 539 l 1,6,-1
 228 539 l 2,7,8
 195 539 195 539 182 531.5 c 128,-1,9
 169 524 169 524 169 497 c 2,0,-1
369 248 m 1,10,-1
 289 248 l 2,11,12
 170 248 170 248 112 285 c 128,-1,13
 54 322 54 322 54 425 c 0,14,15
 54 559 54 559 114 602 c 0,16,17
 144 624 144 624 180 632 c 128,-1,18
 216 640 216 640 278 640 c 128,-1,19
 340 640 340 640 381.5 625 c 128,-1,20
 423 610 423 610 446.5 568.5 c 128,-1,21
 470 527 470 527 477 470 c 128,-1,22
 484 413 484 413 484 313 c 0,23,24
 484 124 484 124 440 54.5 c 128,-1,25
 396 -15 396 -15 270 -15 c 0,26,27
 165 -15 165 -15 73 8 c 1,28,-1
 97 113 l 1,29,30
 185 92 185 92 257.5 92 c 128,-1,31
 330 92 330 92 369 96 c 1,32,-1
 369 248 l 1,10,-1
EndSplineSet
EndChar

StartChar: colon
Encoding: 58 58 29
Width: 221
GlyphClass: 2
Flags: W
LayerCount: 2
Fore
SplineSet
45 74 m 128,-1,1
 45 119 45 119 58.5 137 c 128,-1,2
 72 155 72 155 110.5 155 c 128,-1,3
 149 155 149 155 162.5 137 c 128,-1,4
 176 119 176 119 176 74 c 128,-1,5
 176 29 176 29 163 11.5 c 128,-1,6
 150 -6 150 -6 111 -6 c 128,-1,7
 72 -6 72 -6 58.5 11.5 c 128,-1,0
 45 29 45 29 45 74 c 128,-1,1
45 424 m 128,-1,9
 45 469 45 469 58.5 487 c 128,-1,10
 72 505 72 505 110.5 505 c 128,-1,11
 149 505 149 505 162.5 487 c 128,-1,12
 176 469 176 469 176 424 c 128,-1,13
 176 379 176 379 163 361.5 c 128,-1,14
 150 344 150 344 111 344 c 128,-1,15
 72 344 72 344 58.5 361.5 c 128,-1,8
 45 379 45 379 45 424 c 128,-1,9
EndSplineSet
EndChar

StartChar: semicolon
Encoding: 59 59 30
Width: 221
GlyphClass: 2
Flags: W
LayerCount: 2
Fore
SplineSet
53.5 18.5 m 128,-1,1
 45 36 45 36 45 77.5 c 128,-1,2
 45 119 45 119 58.5 137 c 128,-1,3
 72 155 72 155 110.5 155 c 128,-1,4
 149 155 149 155 162.5 137 c 128,-1,5
 176 119 176 119 176 71.5 c 128,-1,6
 176 24 176 24 150 -31 c 2,7,-1
 103 -132 l 1,8,-1
 60 -118 l 1,9,-1
 86 -4 l 1,10,0
 62 1 62 1 53.5 18.5 c 128,-1,1
45 424 m 128,-1,12
 45 469 45 469 58.5 487 c 128,-1,13
 72 505 72 505 110.5 505 c 128,-1,14
 149 505 149 505 162.5 487 c 128,-1,15
 176 469 176 469 176 424 c 128,-1,16
 176 379 176 379 163 361.5 c 128,-1,17
 150 344 150 344 111 344 c 128,-1,18
 72 344 72 344 58.5 361.5 c 128,-1,11
 45 379 45 379 45 424 c 128,-1,12
EndSplineSet
EndChar

StartChar: less
Encoding: 60 60 31
Width: 570
GlyphClass: 2
Flags: W
LayerCount: 2
Fore
SplineSet
107 271 m 1,0,-1
 107 352 l 1,1,-1
 429 520 l 1,2,-1
 467 445 l 1,3,-1
 203 317 l 1,4,-1
 203 306 l 1,5,-1
 467 178 l 1,6,-1
 429 103 l 1,7,-1
 107 271 l 1,0,-1
EndSplineSet
EndChar

StartChar: equal
Encoding: 61 61 32
Width: 570
GlyphClass: 2
Flags: W
LayerCount: 2
Fore
SplineSet
107 173 m 1,0,-1
 107 253 l 1,1,-1
 462 253 l 1,2,-1
 462 173 l 1,3,-1
 107 173 l 1,0,-1
107 371 m 1,4,-1
 107 451 l 1,5,-1
 462 451 l 1,6,-1
 462 371 l 1,7,-1
 107 371 l 1,4,-1
EndSplineSet
EndChar

StartChar: greater
Encoding: 62 62 33
Width: 570
GlyphClass: 2
Flags: W
LayerCount: 2
Fore
SplineSet
467 352 m 1,0,-1
 467 271 l 1,1,-1
 145 103 l 1,2,-1
 107 178 l 1,3,-1
 371 306 l 1,4,-1
 371 317 l 1,5,-1
 107 445 l 1,6,-1
 145 520 l 1,7,-1
 467 352 l 1,0,-1
EndSplineSet
EndChar

StartChar: question
Encoding: 63 63 34
Width: 418
GlyphClass: 2
Flags: W
LayerCount: 2
Fore
SplineSet
142 220 m 1,0,1
 139 262 139 262 130 365 c 1,2,3
 130 379 130 379 142.5 387.5 c 128,-1,4
 155 396 155 396 192 409 c 2,5,-1
 288 442 l 1,6,-1
 288 547 l 1,7,8
 270 549 270 549 229 549 c 0,9,10
 130 549 130 549 64 529 c 1,11,-1
 40 612 l 1,12,13
 124 640 124 640 184.5 640 c 128,-1,14
 245 640 245 640 273.5 636 c 128,-1,15
 302 632 302 632 331 619 c 0,16,17
 388 593 388 593 388 503 c 0,18,19
 388 432 388 432 349.5 397.5 c 128,-1,20
 311 363 311 363 221 332 c 1,21,-1
 216 220 l 1,22,-1
 142 220 l 1,0,1
111 57 m 128,-1,24
 111 93 111 93 124.5 107.5 c 128,-1,25
 138 122 138 122 176.5 122 c 128,-1,26
 215 122 215 122 228.5 107.5 c 128,-1,27
 242 93 242 93 242 57 c 128,-1,28
 242 21 242 21 229 7 c 128,-1,29
 216 -7 216 -7 177 -7 c 128,-1,30
 138 -7 138 -7 124.5 7 c 128,-1,23
 111 21 111 21 111 57 c 128,-1,24
EndSplineSet
EndChar

StartChar: at
Encoding: 64 64 35
Width: 847
GlyphClass: 2
Flags: W
LayerCount: 2
Fore
SplineSet
467 207 m 2,0,-1
 467 81 l 1,1,-1
 578 81 l 2,2,3
 622 81 622 81 634.5 91 c 128,-1,4
 647 101 647 101 647 117 c 2,5,-1
 647 249 l 1,6,-1
 536 249 l 2,7,8
 500 249 500 249 483.5 241.5 c 128,-1,9
 467 234 467 234 467 207 c 2,0,-1
90 178 m 2,10,-1
 90 259 l 2,11,12
 90 444 90 444 188 515 c 0,13,14
 277 580 277 580 437.5 580 c 128,-1,15
 598 580 598 580 672 535 c 128,-1,16
 746 490 746 490 746 393 c 2,17,-1
 746 0 l 1,18,-1
 691 0 l 1,19,-1
 660 53 l 1,20,21
 601 -9 601 -9 500 -9 c 0,22,23
 361 -9 361 -9 361 159 c 0,24,25
 361 251 361 251 410 288 c 128,-1,26
 459 325 459 325 577 325 c 2,27,-1
 647 325 l 1,28,-1
 647 473 l 1,29,30
 582 483 582 483 503.5 483 c 128,-1,31
 425 483 425 483 400.5 481.5 c 128,-1,32
 376 480 376 480 343 475 c 128,-1,33
 310 470 310 470 288 458.5 c 128,-1,34
 266 447 266 447 246 429 c 0,35,36
 205 393 205 393 205 310 c 2,37,-1
 205 84 l 2,38,39
 205 39 205 39 218 7 c 128,-1,40
 231 -25 231 -25 250 -41.5 c 128,-1,41
 269 -58 269 -58 302 -67 c 0,42,43
 348 -80 348 -80 427 -80 c 2,44,-1
 620 -80 l 1,45,-1
 620 -148 l 1,46,47
 530 -165 530 -165 454 -165 c 0,48,49
 263 -165 263 -165 176.5 -89 c 128,-1,50
 90 -13 90 -13 90 178 c 2,10,-1
EndSplineSet
EndChar

StartChar: A
Encoding: 65 65 36
Width: 549
GlyphClass: 2
Flags: W
LayerCount: 2
Fore
SplineSet
425 0 m 1,0,-1
 391 137 l 1,1,-1
 157 137 l 1,2,-1
 124 0 l 1,3,-1
 18 0 l 1,4,-1
 180 625 l 1,5,-1
 369 625 l 1,6,-1
 531 0 l 1,7,-1
 425 0 l 1,0,-1
254 533 m 1,8,-1
 179 227 l 1,9,-1
 369 227 l 1,10,-1
 295 533 l 1,11,-1
 254 533 l 1,8,-1
EndSplineSet
EndChar

StartChar: B
Encoding: 66 66 37
Width: 532
GlyphClass: 2
Flags: W
LayerCount: 2
Fore
SplineSet
70 0 m 1,0,-1
 70 625 l 1,1,-1
 300 625 l 2,2,3
 380 625 380 625 415.5 585.5 c 128,-1,4
 451 546 451 546 451 470 c 0,5,6
 451 421 451 421 437.5 387.5 c 128,-1,7
 424 354 424 354 390 330 c 1,8,-1
 390 324 l 1,9,10
 438 308 438 308 460 267.5 c 128,-1,11
 482 227 482 227 482 176 c 0,12,13
 482 96 482 96 440.5 48 c 128,-1,14
 399 0 399 0 322 0 c 2,15,-1
 70 0 l 1,0,-1
323 278 m 2,16,-1
 170 278 l 1,17,-1
 170 90 l 1,18,-1
 322 90 l 2,19,20
 348 90 348 90 363.5 113.5 c 128,-1,21
 379 137 379 137 379 182.5 c 128,-1,22
 379 228 379 228 363.5 253 c 128,-1,23
 348 278 348 278 323 278 c 2,16,-1
308 535 m 2,24,-1
 170 535 l 1,25,-1
 170 363 l 1,26,-1
 307 363 l 2,27,28
 330 363 330 363 345 386 c 128,-1,29
 360 409 360 409 360 450 c 128,-1,30
 360 491 360 491 345.5 513 c 128,-1,31
 331 535 331 535 308 535 c 2,24,-1
EndSplineSet
EndChar

StartChar: C
Encoding: 67 67 38
Width: 445
GlyphClass: 2
Flags: W
LayerCount: 2
Fore
SplineSet
274 -10 m 0,0,1
 139 -10 139 -10 94.5 55.5 c 128,-1,2
 50 121 50 121 50 314.5 c 128,-1,3
 50 508 50 508 94.5 574 c 128,-1,4
 139 640 139 640 274 640 c 0,5,6
 355 640 355 640 410 619 c 1,7,-1
 395 531 l 1,8,9
 327 545 327 545 265.5 545 c 128,-1,10
 204 545 204 545 182 534 c 128,-1,11
 160 523 160 523 160 489 c 2,12,-1
 160 98 l 1,13,14
 207 83 207 83 271 83 c 128,-1,15
 335 83 335 83 410 103 c 1,16,-1
 420 11 l 1,17,18
 361 -10 361 -10 274 -10 c 0,0,1
EndSplineSet
EndChar

StartChar: D
Encoding: 68 68 39
Width: 561
GlyphClass: 2
Flags: W
LayerCount: 2
Fore
SplineSet
70 0 m 1,0,-1
 70 625 l 1,1,-1
 264 625 l 2,2,3
 344 625 344 625 389.5 613.5 c 128,-1,4
 435 602 435 602 464 565.5 c 128,-1,5
 493 529 493 529 502 471.5 c 128,-1,6
 511 414 511 414 511 312.5 c 128,-1,7
 511 211 511 211 502 153.5 c 128,-1,8
 493 96 493 96 464 59.5 c 128,-1,9
 435 23 435 23 389.5 11.5 c 128,-1,10
 344 0 344 0 264 0 c 2,11,-1
 70 0 l 1,0,-1
323 535 m 2,12,-1
 170 535 l 1,13,-1
 170 90 l 1,14,-1
 323 90 l 2,15,16
 364 90 364 90 382.5 99.5 c 128,-1,17
 401 109 401 109 401 143 c 2,18,-1
 401 482 l 2,19,20
 401 516 401 516 382.5 525.5 c 128,-1,21
 364 535 364 535 323 535 c 2,12,-1
EndSplineSet
EndChar

StartChar: E
Encoding: 69 69 40
Width: 455
GlyphClass: 2
Flags: W
LayerCount: 2
Fore
SplineSet
370 266 m 1,0,-1
 170 266 l 1,1,-1
 170 90 l 1,2,-1
 415 90 l 1,3,-1
 415 0 l 1,4,-1
 70 0 l 1,5,-1
 70 625 l 1,6,-1
 410 625 l 1,7,-1
 395 535 l 1,8,-1
 170 535 l 1,9,-1
 170 351 l 1,10,-1
 370 351 l 1,11,-1
 370 266 l 1,0,-1
EndSplineSet
EndChar

StartChar: F
Encoding: 70 70 41
Width: 410
GlyphClass: 2
Flags: W
LayerCount: 2
Fore
SplineSet
350 264 m 1,0,-1
 170 264 l 1,1,-1
 170 0 l 1,2,-1
 70 0 l 1,3,-1
 70 625 l 1,4,-1
 390 625 l 1,5,-1
 375 535 l 1,6,-1
 170 535 l 1,7,-1
 170 349 l 1,8,-1
 350 349 l 1,9,-1
 350 264 l 1,0,-1
EndSplineSet
EndChar

StartChar: G
Encoding: 71 71 42
Width: 530
GlyphClass: 2
Flags: W
LayerCount: 2
Fore
SplineSet
390 142 m 2,0,-1
 390 244 l 1,1,-1
 319 244 l 1,2,-1
 319 334 l 1,3,-1
 480 334 l 1,4,-1
 480 30 l 1,5,6
 380 -15 380 -15 272 -15 c 0,7,8
 136 -15 136 -15 93 50 c 128,-1,9
 50 115 50 115 50 312 c 128,-1,10
 50 509 50 509 99 574.5 c 128,-1,11
 148 640 148 640 301 640 c 0,12,13
 379 640 379 640 450 619 c 1,14,-1
 435 531 l 1,15,16
 354 545 354 545 285 545 c 128,-1,17
 216 545 216 545 188 534 c 128,-1,18
 160 523 160 523 160 489 c 2,19,-1
 160 82 l 1,20,-1
 297 82 l 2,21,22
 329 82 329 82 346 85 c 128,-1,23
 363 88 363 88 376.5 101.5 c 128,-1,24
 390 115 390 115 390 142 c 2,0,-1
EndSplineSet
EndChar

StartChar: H
Encoding: 72 72 43
Width: 580
GlyphClass: 2
Flags: W
LayerCount: 2
Fore
SplineSet
410 0 m 1,0,-1
 410 267 l 1,1,-1
 170 267 l 1,2,-1
 170 0 l 1,3,-1
 70 0 l 1,4,-1
 70 625 l 1,5,-1
 170 625 l 1,6,-1
 170 357 l 1,7,-1
 410 357 l 1,8,-1
 410 625 l 1,9,-1
 510 625 l 1,10,-1
 510 0 l 1,11,-1
 410 0 l 1,0,-1
EndSplineSet
EndChar

StartChar: I
Encoding: 73 73 44
Width: 240
GlyphClass: 2
Flags: W
LayerCount: 2
Fore
SplineSet
70 0 m 1,0,-1
 70 625 l 1,1,-1
 170 625 l 1,2,-1
 170 0 l 1,3,-1
 70 0 l 1,0,-1
EndSplineSet
EndChar

StartChar: J
Encoding: 74 74 45
Width: 316
GlyphClass: 2
Flags: W
LayerCount: 2
Fore
SplineSet
103 90 m 2,0,1
 134 90 134 90 142.5 98.5 c 128,-1,2
 151 107 151 107 151 120 c 2,3,-1
 151 535 l 1,4,-1
 38 535 l 1,5,-1
 38 625 l 1,6,-1
 251 625 l 1,7,-1
 251 135 l 2,8,9
 251 58 251 58 213.5 29 c 128,-1,10
 176 0 176 0 96 0 c 2,11,-1
 22 0 l 1,12,-1
 10 90 l 1,13,-1
 103 90 l 2,0,1
EndSplineSet
EndChar

StartChar: K
Encoding: 75 75 46
Width: 493
GlyphClass: 2
Flags: W
LayerCount: 2
Fore
SplineSet
170 276 m 1,0,-1
 170 0 l 1,1,-1
 70 0 l 1,2,-1
 70 625 l 1,3,-1
 170 625 l 1,4,-1
 170 366 l 1,5,-1
 254 366 l 1,6,7
 256 401 256 401 264 418 c 2,8,-1
 362 625 l 1,9,-1
 478 625 l 1,10,-1
 328 318 l 1,11,-1
 483 0 l 1,12,-1
 367 0 l 1,13,-1
 264 224 l 2,14,15
 256 241 256 241 254 276 c 1,16,-1
 170 276 l 1,0,-1
EndSplineSet
EndChar

StartChar: L
Encoding: 76 76 47
Width: 380
GlyphClass: 2
Flags: W
LayerCount: 2
Fore
SplineSet
380 0 m 1,0,-1
 70 0 l 1,1,-1
 70 625 l 1,2,-1
 170 625 l 1,3,-1
 170 90 l 1,4,-1
 380 90 l 1,5,-1
 380 0 l 1,0,-1
EndSplineSet
EndChar

StartChar: M
Encoding: 77 77 48
Width: 701
GlyphClass: 2
Flags: W
LayerCount: 2
Fore
SplineSet
149 0 m 1,0,-1
 50 0 l 1,1,-1
 81 625 l 1,2,-1
 229 625 l 1,3,-1
 347 267 l 1,4,-1
 354 267 l 1,5,-1
 472 625 l 1,6,-1
 620 625 l 1,7,-1
 651 0 l 1,8,-1
 552 0 l 1,9,-1
 530 483 l 1,10,-1
 523 483 l 1,11,-1
 387 80 l 1,12,-1
 314 80 l 1,13,-1
 177 483 l 1,14,-1
 171 483 l 1,15,-1
 149 0 l 1,0,-1
EndSplineSet
EndChar

StartChar: N
Encoding: 78 78 49
Width: 575
GlyphClass: 2
Flags: W
LayerCount: 2
Fore
SplineSet
170 458 m 1,0,-1
 170 0 l 1,1,-1
 70 0 l 1,2,-1
 70 625 l 1,3,-1
 178 625 l 1,4,-1
 391 215 l 1,5,6
 399 204 399 204 401 167 c 1,7,-1
 405 167 l 1,8,-1
 405 625 l 1,9,-1
 505 625 l 1,10,-1
 505 0 l 1,11,-1
 397 0 l 1,12,-1
 184 410 l 1,13,14
 176 421 176 421 174 458 c 1,15,-1
 170 458 l 1,0,-1
EndSplineSet
EndChar

StartChar: O
Encoding: 79 79 50
Width: 581
GlyphClass: 2
Flags: W
LayerCount: 2
Fore
SplineSet
98 51 m 128,-1,1
 50 117 50 117 50 312.5 c 128,-1,2
 50 508 50 508 98 574 c 128,-1,3
 146 640 146 640 290 640 c 128,-1,4
 434 640 434 640 482.5 573.5 c 128,-1,5
 531 507 531 507 531 312 c 128,-1,6
 531 117 531 117 482.5 51 c 128,-1,7
 434 -15 434 -15 290 -15 c 128,-1,0
 146 -15 146 -15 98 51 c 128,-1,1
160 486 m 2,8,-1
 160 86 l 1,9,-1
 343 86 l 2,10,11
 384 86 384 86 402.5 95.5 c 128,-1,12
 421 105 421 105 421 139 c 2,13,-1
 421 539 l 1,14,-1
 237 539 l 2,15,16
 197 539 197 539 178.5 529.5 c 128,-1,17
 160 520 160 520 160 486 c 2,8,-1
EndSplineSet
EndChar

StartChar: P
Encoding: 80 80 51
Width: 490
GlyphClass: 2
Flags: W
LayerCount: 2
Fore
SplineSet
290 196 m 2,0,-1
 170 196 l 1,1,-1
 170 0 l 1,2,-1
 70 0 l 1,3,-1
 70 625 l 1,4,-1
 275 625 l 2,5,6
 396 625 396 625 435.5 576 c 128,-1,7
 475 527 475 527 475 416 c 0,8,9
 475 366 475 366 469.5 333 c 128,-1,10
 464 300 464 300 447 266 c 0,11,12
 413 196 413 196 290 196 c 2,0,-1
170 535 m 1,13,-1
 170 286 l 1,14,-1
 296 286 l 2,15,16
 332 286 332 286 348.5 293.5 c 128,-1,17
 365 301 365 301 365 328 c 2,18,-1
 365 493 l 2,19,20
 365 520 365 520 348.5 527.5 c 128,-1,21
 332 535 332 535 296 535 c 2,22,-1
 170 535 l 1,13,-1
EndSplineSet
EndChar

StartChar: Q
Encoding: 81 81 52
Width: 581
GlyphClass: 2
Flags: W
LayerCount: 2
Fore
SplineSet
50 312 m 0,0,1
 50 508 50 508 98 574 c 128,-1,2
 146 640 146 640 290 640 c 128,-1,3
 434 640 434 640 482.5 573.5 c 128,-1,4
 531 507 531 507 531 312 c 0,5,6
 531 142 531 142 454 65 c 1,7,-1
 565 15 l 1,8,-1
 542 -40 l 1,9,-1
 367 -2 l 1,10,-1
 367 24 l 1,11,-1
 290 0 l 1,12,13
 215 0 215 0 171 12 c 128,-1,14
 127 24 127 24 98.5 59.5 c 128,-1,15
 70 95 70 95 60 153.5 c 128,-1,16
 50 212 50 212 50 312 c 0,0,1
160 486 m 2,17,-1
 160 96 l 1,18,-1
 343 96 l 2,19,20
 384 96 384 96 402.5 105.5 c 128,-1,21
 421 115 421 115 421 149 c 2,22,-1
 421 539 l 1,23,-1
 237 539 l 2,24,25
 197 539 197 539 178.5 529.5 c 128,-1,26
 160 520 160 520 160 486 c 2,17,-1
EndSplineSet
EndChar

StartChar: R
Encoding: 82 82 53
Width: 530
GlyphClass: 2
Flags: W
LayerCount: 2
Fore
SplineSet
170 221 m 1,0,-1
 170 0 l 1,1,-1
 70 0 l 1,2,-1
 70 625 l 1,3,-1
 299 625 l 2,4,5
 395 625 395 625 434 572 c 128,-1,6
 473 519 473 519 473 424 c 0,7,8
 473 290 473 290 380 243 c 1,9,-1
 495 0 l 1,10,-1
 385 0 l 1,11,-1
 286 221 l 1,12,-1
 170 221 l 1,0,-1
170 535 m 1,13,-1
 170 311 l 1,14,-1
 296 311 l 2,15,16
 332 311 332 311 348.5 318.5 c 128,-1,17
 365 326 365 326 365 353 c 2,18,-1
 365 493 l 2,19,20
 365 520 365 520 348.5 527.5 c 128,-1,21
 332 535 332 535 296 535 c 2,22,-1
 170 535 l 1,13,-1
EndSplineSet
EndChar

StartChar: S
Encoding: 83 83 54
Width: 502
GlyphClass: 2
Flags: W
LayerCount: 2
Fore
SplineSet
63 106 m 1,0,1
 155 83 155 83 231 83 c 128,-1,2
 307 83 307 83 352 89 c 1,3,-1
 352 252 l 1,4,-1
 262 259 l 2,5,6
 135 269 135 269 94.5 307 c 128,-1,7
 54 345 54 345 54 447.5 c 128,-1,8
 54 550 54 550 94 595 c 128,-1,9
 134 640 134 640 233.5 640 c 128,-1,10
 333 640 333 640 428 621 c 1,11,-1
 413 530 l 1,12,13
 320 545 320 545 261.5 545 c 128,-1,14
 203 545 203 545 164 540 c 1,15,-1
 164 372 l 1,16,-1
 266 365 l 2,17,18
 389 357 389 357 428 308 c 0,19,20
 448 282 448 282 455 250.5 c 128,-1,21
 462 219 462 219 462 169 c 128,-1,22
 462 119 462 119 451 84.5 c 128,-1,23
 440 50 440 50 424 31.5 c 128,-1,24
 408 13 408 13 377 3.5 c 128,-1,25
 346 -6 346 -6 321 -8 c 128,-1,26
 296 -10 296 -10 220.5 -10 c 128,-1,27
 145 -10 145 -10 45 10 c 1,28,-1
 63 106 l 1,0,1
EndSplineSet
EndChar

StartChar: T
Encoding: 84 84 55
Width: 410
GlyphClass: 2
Flags: W
LayerCount: 2
Fore
SplineSet
400 535 m 1,0,-1
 255 535 l 1,1,-1
 255 0 l 1,2,-1
 155 0 l 1,3,-1
 155 535 l 1,4,-1
 10 535 l 1,5,-1
 10 625 l 1,6,-1
 400 625 l 1,7,-1
 400 535 l 1,0,-1
EndSplineSet
EndChar

StartChar: U
Encoding: 85 85 56
Width: 567
GlyphClass: 2
Flags: W
LayerCount: 2
Fore
SplineSet
502 625 m 1,0,-1
 502 225 l 2,1,2
 502 101 502 101 480 64 c 0,3,4
 454 18 454 18 416 4 c 0,5,6
 363 -15 363 -15 301 -15 c 128,-1,7
 239 -15 239 -15 206 -9.5 c 128,-1,8
 173 -4 173 -4 149.5 4.5 c 128,-1,9
 126 13 126 13 110.5 30 c 128,-1,10
 95 47 95 47 86 63.5 c 128,-1,11
 77 80 77 80 72 108 c 0,12,13
 65 156 65 156 65 225 c 2,14,-1
 65 625 l 1,15,-1
 165 625 l 1,16,-1
 165 86 l 1,17,-1
 288 86 l 2,18,19
 353 86 353 86 377.5 95.5 c 128,-1,20
 402 105 402 105 402 139 c 2,21,-1
 402 625 l 1,22,-1
 502 625 l 1,0,-1
EndSplineSet
EndChar

StartChar: V
Encoding: 86 86 57
Width: 522
GlyphClass: 2
Flags: W
LayerCount: 2
Fore
SplineSet
396 625 m 1,0,-1
 502 625 l 1,1,-1
 339 0 l 1,2,-1
 182 0 l 1,3,-1
 20 625 l 1,4,-1
 126 625 l 1,5,-1
 256 92 l 1,6,-1
 265 92 l 1,7,-1
 396 625 l 1,0,-1
EndSplineSet
EndChar

StartChar: W
Encoding: 87 87 58
Width: 761
GlyphClass: 2
Flags: W
LayerCount: 2
Fore
SplineSet
331 600 m 1,0,-1
 430 600 l 1,1,-1
 536 92 l 1,2,-1
 545 92 l 1,3,-1
 635 625 l 1,4,-1
 741 625 l 1,5,-1
 619 0 l 1,6,-1
 467 0 l 1,7,-1
 384 389 l 1,8,-1
 377 389 l 1,9,-1
 294 0 l 1,10,-1
 142 0 l 1,11,-1
 20 625 l 1,12,-1
 126 625 l 1,13,-1
 216 92 l 1,14,-1
 225 92 l 1,15,-1
 331 600 l 1,0,-1
EndSplineSet
EndChar

StartChar: X
Encoding: 88 88 59
Width: 522
GlyphClass: 2
Flags: W
LayerCount: 2
Fore
SplineSet
149 625 m 1,0,-1
 260 425 l 1,1,-1
 271 425 l 1,2,-1
 380 625 l 1,3,-1
 487 625 l 1,4,-1
 320 316 l 1,5,-1
 497 0 l 1,6,-1
 388 0 l 1,7,-1
 262 222 l 1,8,-1
 251 222 l 1,9,-1
 132 0 l 1,10,-1
 25 0 l 1,11,-1
 202 329 l 1,12,-1
 35 625 l 1,13,-1
 149 625 l 1,0,-1
EndSplineSet
EndChar

StartChar: Y
Encoding: 89 89 60
Width: 470
GlyphClass: 2
Flags: W
LayerCount: 2
Fore
SplineSet
285 0 m 1,0,-1
 185 0 l 1,1,-1
 185 200 l 1,2,-1
 10 625 l 1,3,-1
 116 625 l 1,4,-1
 231 315 l 1,5,-1
 238 315 l 1,6,-1
 354 625 l 1,7,-1
 460 625 l 1,8,-1
 285 200 l 1,9,-1
 285 0 l 1,0,-1
EndSplineSet
EndChar

StartChar: Z
Encoding: 90 90 61
Width: 499
GlyphClass: 2
Flags: W
LayerCount: 2
Fore
SplineSet
469 0 m 1,0,-1
 30 0 l 1,1,-1
 30 85 l 1,2,-1
 329 519 l 1,3,-1
 326 525 l 1,4,-1
 70 525 l 1,5,-1
 58 625 l 1,6,-1
 465 625 l 1,7,-1
 465 540 l 1,8,-1
 169 106 l 1,9,-1
 172 100 l 1,10,-1
 469 100 l 1,11,-1
 469 0 l 1,0,-1
EndSplineSet
EndChar

StartChar: bracketleft
Encoding: 91 91 62
Width: 279
GlyphClass: 2
Flags: W
LayerCount: 2
Fore
SplineSet
70 9 m 2,0,-1
 70 555 l 2,1,2
 70 636 70 636 141 652 c 0,3,4
 180 660 180 660 242 660 c 1,5,-1
 249 583 l 1,6,7
 246 583 246 583 166 575 c 1,8,-1
 166 -11 l 1,9,-1
 249 -19 l 1,10,-1
 242 -96 l 1,11,12
 133 -96 133 -96 102 -71 c 0,13,14
 70 -45 70 -45 70 9 c 2,0,-1
EndSplineSet
Position2: "'case' Case-Sensitive Forms in Latin lookup 0 subtable" dx=0 dy=45 dh=0 dv=0
EndChar

StartChar: backslash
Encoding: 92 92 63
Width: 413
GlyphClass: 2
Flags: W
LayerCount: 2
Fore
SplineSet
41 665 m 2,0,1
 60 665 60 665 68 659.5 c 128,-1,2
 76 654 76 654 84 640 c 1,3,-1
 413 -40 l 1,4,-1
 372 -40 l 2,5,6
 353 -40 353 -40 345 -34.5 c 128,-1,7
 337 -29 337 -29 329 -15 c 1,8,-1
 0 665 l 1,9,-1
 41 665 l 2,0,1
EndSplineSet
EndChar

StartChar: bracketright
Encoding: 93 93 64
Width: 279
GlyphClass: 2
Flags: W
LayerCount: 2
Fore
SplineSet
209 555 m 2,0,-1
 209 9 l 2,1,2
 209 -72 209 -72 138 -88 c 0,3,4
 99 -96 99 -96 37 -96 c 1,5,-1
 30 -19 l 1,6,7
 33 -19 33 -19 113 -11 c 1,8,-1
 113 575 l 1,9,-1
 30 583 l 1,10,-1
 37 660 l 1,11,12
 146 660 146 660 176 635 c 1,13,14
 209 609 209 609 209 555 c 2,0,-1
EndSplineSet
Position2: "'case' Case-Sensitive Forms in Latin lookup 0 subtable" dx=0 dy=45 dh=0 dv=0
EndChar

StartChar: asciicircum
Encoding: 94 94 65
Width: 570
GlyphClass: 2
Flags: W
LayerCount: 2
Fore
SplineSet
245 578 m 1,0,-1
 326 578 l 1,1,-1
 494 256 l 1,2,-1
 419 218 l 1,3,-1
 291 482 l 1,4,-1
 280 482 l 1,5,-1
 152 218 l 1,6,-1
 77 256 l 1,7,-1
 245 578 l 1,0,-1
EndSplineSet
EndChar

StartChar: underscore
Encoding: 95 95 66
Width: 495
GlyphClass: 2
Flags: W
LayerCount: 2
Fore
SplineSet
25 -79 m 1,0,-1
 25 -37 l 2,1,2
 25 -10 25 -10 38 -2.5 c 128,-1,3
 51 5 51 5 84 5 c 2,4,-1
 470 5 l 1,5,-1
 470 -37 l 2,6,7
 470 -64 470 -64 457 -71.5 c 128,-1,8
 444 -79 444 -79 411 -79 c 2,9,-1
 25 -79 l 1,0,-1
EndSplineSet
EndChar

StartChar: grave
Encoding: 96 96 67
Width: 429
GlyphClass: 2
Flags: W
LayerCount: 2
Fore
SplineSet
77 624 m 2,0,1
 73 628 73 628 73 631.5 c 128,-1,2
 73 635 73 635 79 643 c 2,3,-1
 123 697 l 2,4,5
 127 702 127 702 130.5 702 c 128,-1,6
 134 702 134 702 139 698 c 2,7,-1
 291 588 l 1,8,-1
 269 554 l 1,9,-1
 129 589 l 2,10,11
 116 592 116 592 107 599 c 2,12,-1
 77 624 l 2,0,1
EndSplineSet
EndChar

StartChar: a
Encoding: 97 97 68
Width: 533
GlyphClass: 2
Flags: W
LayerCount: 2
Fore
SplineSet
156 81 m 1,0,-1
 270 81 l 2,1,2
 314 81 314 81 331.5 92 c 128,-1,3
 349 103 349 103 349 139 c 2,4,-1
 349 228 l 1,5,-1
 235 228 l 2,6,7
 191 228 191 228 173.5 217 c 128,-1,8
 156 206 156 206 156 170 c 2,9,-1
 156 81 l 1,0,-1
201 -10 m 0,10,11
 55 -10 55 -10 55 145 c 0,12,13
 55 235 55 235 113.5 273.5 c 128,-1,14
 172 312 172 312 285 312 c 2,15,-1
 349 312 l 1,16,-1
 349 412 l 1,17,18
 318 416 318 416 274 416 c 0,19,20
 172 416 172 416 112 395 c 1,21,-1
 100 479 l 1,22,23
 193 510 193 510 278.5 510 c 128,-1,24
 364 510 364 510 406 481.5 c 128,-1,25
 448 453 448 453 448 369 c 2,26,-1
 448 0 l 1,27,-1
 402 0 l 1,28,-1
 375 50 l 1,29,30
 308 -10 308 -10 201 -10 c 0,10,11
EndSplineSet
EndChar

StartChar: b
Encoding: 98 98 69
Width: 563
GlyphClass: 2
Flags: W
LayerCount: 2
Fore
SplineSet
333 510 m 0,0,1
 424 510 424 510 459.5 457 c 128,-1,2
 495 404 495 404 495 252.5 c 128,-1,3
 495 101 495 101 448 45.5 c 128,-1,4
 401 -10 401 -10 280 -10 c 128,-1,5
 159 -10 159 -10 90 18 c 1,6,-1
 90 655 l 1,7,-1
 180 665 l 1,8,-1
 180 456 l 1,9,10
 208 479 208 479 251 494.5 c 128,-1,11
 294 510 294 510 333 510 c 0,0,1
190 81 m 1,12,-1
 307 81 l 2,13,14
 351 81 351 81 368.5 92 c 128,-1,15
 386 103 386 103 386 139 c 2,16,-1
 386 409 l 1,17,-1
 269 409 l 2,18,19
 225 409 225 409 207.5 398 c 128,-1,20
 190 387 190 387 190 351 c 2,21,-1
 190 81 l 1,12,-1
EndSplineSet
EndChar

StartChar: c
Encoding: 99 99 70
Width: 417
GlyphClass: 2
Flags: W
LayerCount: 2
Fore
SplineSet
387 10 m 1,0,1
 327 -10 327 -10 254.5 -10 c 128,-1,2
 182 -10 182 -10 143 11.5 c 128,-1,3
 104 33 104 33 86 88.5 c 128,-1,4
 68 144 68 144 68 250 c 0,5,6
 68 404 68 404 111.5 457 c 128,-1,7
 155 510 155 510 268 510 c 0,8,9
 331 510 331 510 385 492 c 1,10,-1
 363 408 l 1,11,12
 302 419 302 419 266 419 c 0,13,14
 177 419 177 419 177 347 c 2,15,-1
 177 82 l 1,16,17
 215 77 215 77 266 77 c 128,-1,18
 317 77 317 77 375 95 c 1,19,-1
 387 10 l 1,0,1
EndSplineSet
EndChar

StartChar: d
Encoding: 100 100 71
Width: 562
GlyphClass: 2
Flags: W
LayerCount: 2
Fore
SplineSet
399 50 m 1,0,1
 344 -15 344 -15 250 -15 c 128,-1,2
 156 -15 156 -15 112 40.5 c 128,-1,3
 68 96 68 96 68 243.5 c 128,-1,4
 68 391 68 391 118 445.5 c 128,-1,5
 168 500 168 500 288 500 c 2,6,-1
 373 500 l 1,7,-1
 373 653 l 1,8,-1
 472 665 l 1,9,-1
 472 0 l 1,10,-1
 425 0 l 1,11,-1
 399 50 l 1,0,1
177 81 m 1,12,-1
 294 81 l 2,13,14
 338 81 338 81 355.5 92 c 128,-1,15
 373 103 373 103 373 139 c 2,16,-1
 373 408 l 1,17,-1
 256 408 l 2,18,19
 212 408 212 408 194.5 397 c 128,-1,20
 177 386 177 386 177 350 c 2,21,-1
 177 81 l 1,12,-1
EndSplineSet
EndChar

StartChar: e
Encoding: 101 101 72
Width: 533
GlyphClass: 2
Flags: W
LayerCount: 2
Fore
SplineSet
371 420 m 1,0,-1
 257 420 l 2,1,2
 213 420 213 420 195.5 409 c 128,-1,3
 178 398 178 398 178 362 c 2,4,-1
 178 273 l 1,5,-1
 292 273 l 2,6,7
 336 273 336 273 353.5 284 c 128,-1,8
 371 295 371 295 371 331 c 2,9,-1
 371 420 l 1,0,-1
456 20 m 1,10,11
 372 -8 372 -8 281 -8 c 128,-1,12
 190 -8 190 -8 148.5 13 c 128,-1,13
 107 34 107 34 87.5 89 c 128,-1,14
 68 144 68 144 68 250 c 0,15,16
 68 405 68 405 113.5 460 c 128,-1,17
 159 515 159 515 274.5 515 c 128,-1,18
 390 515 390 515 431.5 482.5 c 128,-1,19
 473 450 473 450 473 350 c 0,20,21
 473 285 473 285 461.5 263.5 c 128,-1,22
 450 242 450 242 441.5 230.5 c 128,-1,23
 433 219 433 219 412 211 c 128,-1,24
 391 203 391 203 373.5 199 c 128,-1,25
 356 195 356 195 322 192 c 0,26,27
 273 189 273 189 178 189 c 1,28,-1
 178 90 l 1,29,30
 224 79 224 79 288 79 c 128,-1,31
 352 79 352 79 438 103 c 1,32,-1
 456 20 l 1,10,11
EndSplineSet
EndChar

StartChar: f
Encoding: 102 102 73
Width: 333
GlyphClass: 2
Flags: W
LayerCount: 2
Fore
SplineSet
220 500 m 1,0,-1
 300 500 l 1,1,-1
 300 420 l 1,2,-1
 220 420 l 1,3,-1
 220 0 l 1,4,-1
 120 0 l 1,5,-1
 120 420 l 1,6,-1
 50 420 l 1,7,-1
 50 500 l 1,8,-1
 120 500 l 1,9,-1
 127 560 l 2,10,11
 135 628 135 628 165 651.5 c 128,-1,12
 195 675 195 675 240 675 c 128,-1,13
 285 675 285 675 333 665 c 1,14,-1
 322 584 l 1,15,-1
 220 592 l 1,16,-1
 220 500 l 1,0,-1
EndSplineSet
EndChar

StartChar: g
Encoding: 103 103 74
Width: 496
GlyphClass: 2
Flags: W
LayerCount: 2
Fore
SplineSet
81 197.5 m 128,-1,1
 50 238 50 238 50 337.5 c 128,-1,2
 50 437 50 437 93.5 476 c 128,-1,3
 137 515 137 515 243 515 c 0,4,5
 316 515 316 515 357 498 c 1,6,-1
 426 552 l 1,7,-1
 476 503 l 1,8,-1
 419 436 l 1,9,10
 436 394 436 394 436 330 c 0,11,12
 436 228 436 228 397 188.5 c 128,-1,13
 358 149 358 149 263 146 c 1,14,-1
 258 84 l 1,15,16
 362 78 362 78 404.5 56 c 128,-1,17
 447 34 447 34 447 -39 c 0,18,19
 447 -102 447 -102 414 -128 c 0,20,21
 397 -141 397 -141 381 -149 c 128,-1,22
 365 -157 365 -157 334 -160 c 0,23,24
 295 -165 295 -165 213.5 -165 c 128,-1,25
 132 -165 132 -165 58 -135 c 1,26,-1
 73 -49 l 1,27,28
 165 -78 165 -78 264 -78 c 0,29,30
 298 -78 298 -78 331 -73 c 1,31,-1
 331 -8 l 1,32,33
 206 -8 206 -8 166 15 c 0,34,35
 151 24 151 24 151 35 c 1,36,-1
 185 149 l 1,37,0
 112 157 112 157 81 197.5 c 128,-1,1
153 380 m 2,38,-1
 153 235 l 1,39,-1
 264 235 l 2,40,41
 300 235 300 235 316.5 242.5 c 128,-1,42
 333 250 333 250 333 277 c 2,43,-1
 333 422 l 1,44,-1
 222 422 l 2,45,46
 186 422 186 422 169.5 414.5 c 128,-1,47
 153 407 153 407 153 380 c 2,38,-1
EndSplineSet
EndChar

StartChar: h
Encoding: 104 104 75
Width: 555
GlyphClass: 2
Flags: W
LayerCount: 2
Fore
SplineSet
370 510 m 0,0,1
 421 510 421 510 445.5 488.5 c 128,-1,2
 470 467 470 467 470 410 c 2,3,-1
 470 0 l 1,4,-1
 370 0 l 1,5,-1
 370 408 l 1,6,-1
 269 408 l 2,7,8
 225 408 225 408 207.5 397 c 128,-1,9
 190 386 190 386 190 350 c 2,10,-1
 190 0 l 1,11,-1
 90 0 l 1,12,-1
 90 657 l 1,13,-1
 185 665 l 1,14,-1
 185 448 l 1,15,16
 277 510 277 510 370 510 c 0,0,1
EndSplineSet
EndChar

StartChar: i
Encoding: 105 105 76
Width: 280
GlyphClass: 2
Flags: W
LayerCount: 2
Fore
SplineSet
90 0 m 1,0,-1
 90 493 l 1,1,-1
 190 508 l 1,2,-1
 190 0 l 1,3,-1
 90 0 l 1,0,-1
91.5 588 m 128,-1,5
 79 601 79 601 79 634.5 c 128,-1,6
 79 668 79 668 91.5 681.5 c 128,-1,7
 104 695 104 695 140.5 695 c 128,-1,8
 177 695 177 695 189.5 681.5 c 128,-1,9
 202 668 202 668 202 634.5 c 128,-1,10
 202 601 202 601 189.5 588 c 128,-1,11
 177 575 177 575 140.5 575 c 128,-1,4
 104 575 104 575 91.5 588 c 128,-1,5
EndSplineSet
EndChar

StartChar: j
Encoding: 106 106 77
Width: 280
GlyphClass: 2
Flags: W
LayerCount: 2
Fore
SplineSet
-10 -165 m 1,0,-1
 -10 -105 l 1,1,-1
 42 -95 l 2,2,3
 90 -86 90 -86 90 -45 c 2,4,-1
 90 493 l 1,5,-1
 190 508 l 1,6,-1
 190 -20 l 2,7,8
 190 -98 190 -98 159 -131.5 c 128,-1,9
 128 -165 128 -165 66 -165 c 2,10,-1
 -10 -165 l 1,0,-1
91.5 588 m 128,-1,12
 79 601 79 601 79 634.5 c 128,-1,13
 79 668 79 668 91.5 681.5 c 128,-1,14
 104 695 104 695 140.5 695 c 128,-1,15
 177 695 177 695 189.5 681.5 c 128,-1,16
 202 668 202 668 202 634.5 c 128,-1,17
 202 601 202 601 189.5 588 c 128,-1,18
 177 575 177 575 140.5 575 c 128,-1,11
 104 575 104 575 91.5 588 c 128,-1,12
EndSplineSet
EndChar

StartChar: k
Encoding: 107 107 78
Width: 510
GlyphClass: 2
Flags: W
LayerCount: 2
Fore
SplineSet
190 227 m 1,0,-1
 190 0 l 1,1,-1
 90 0 l 1,2,-1
 90 650 l 1,3,-1
 190 665 l 1,4,-1
 190 307 l 1,5,-1
 259 307 l 1,6,-1
 363 500 l 1,7,-1
 470 500 l 1,8,-1
 342 267 l 1,9,-1
 475 0 l 1,10,-1
 368 0 l 1,11,-1
 253 227 l 1,12,-1
 190 227 l 1,0,-1
EndSplineSet
EndChar

StartChar: l
Encoding: 108 108 79
Width: 280
GlyphClass: 2
Flags: W
LayerCount: 2
Fore
SplineSet
90 84 m 2,0,-1
 90 650 l 1,1,-1
 190 665 l 1,2,-1
 190 73 l 1,3,4
 224 69 224 69 236 68 c 1,5,-1
 230 -11 l 1,6,7
 145 -11 145 -11 117.5 7 c 128,-1,8
 90 25 90 25 90 84 c 2,0,-1
EndSplineSet
EndChar

StartChar: m
Encoding: 109 109 80
Width: 825
GlyphClass: 2
Flags: W
LayerCount: 2
Fore
SplineSet
365 510 m 0,0,1
 406 510 406 510 429.5 496.5 c 128,-1,2
 453 483 453 483 461 449 c 1,3,4
 557 510 557 510 640 510 c 0,5,6
 691 510 691 510 715.5 488.5 c 128,-1,7
 740 467 740 467 740 410 c 2,8,-1
 740 0 l 1,9,-1
 640 0 l 1,10,-1
 640 408 l 1,11,-1
 544 408 l 2,12,13
 502 408 502 408 483.5 397.5 c 128,-1,14
 465 387 465 387 465 357 c 2,15,-1
 465 0 l 1,16,-1
 365 0 l 1,17,-1
 365 408 l 1,18,-1
 269 408 l 2,19,20
 225 408 225 408 207.5 397 c 128,-1,21
 190 386 190 386 190 350 c 2,22,-1
 190 0 l 1,23,-1
 90 0 l 1,24,-1
 90 500 l 1,25,-1
 136 500 l 1,26,-1
 173 440 l 1,27,28
 277 510 277 510 365 510 c 0,0,1
EndSplineSet
EndChar

StartChar: n
Encoding: 110 110 81
Width: 555
GlyphClass: 2
Flags: W
LayerCount: 2
Fore
SplineSet
370 510 m 0,0,1
 421 510 421 510 445.5 488.5 c 128,-1,2
 470 467 470 467 470 410 c 2,3,-1
 470 0 l 1,4,-1
 370 0 l 1,5,-1
 370 408 l 1,6,-1
 269 408 l 2,7,8
 225 408 225 408 207.5 397 c 128,-1,9
 190 386 190 386 190 350 c 2,10,-1
 190 0 l 1,11,-1
 90 0 l 1,12,-1
 90 500 l 1,13,-1
 136 500 l 1,14,-1
 173 440 l 1,15,16
 277 510 277 510 370 510 c 0,0,1
EndSplineSet
EndChar

StartChar: o
Encoding: 111 111 82
Width: 550
GlyphClass: 2
Flags: W
LayerCount: 2
Fore
SplineSet
68 250 m 128,-1,1
 68 391 68 391 111 453 c 128,-1,2
 154 515 154 515 275 515 c 128,-1,3
 396 515 396 515 439 453 c 128,-1,4
 482 391 482 391 482 250 c 128,-1,5
 482 109 482 109 439 47 c 128,-1,6
 396 -15 396 -15 275 -15 c 128,-1,7
 154 -15 154 -15 111 47 c 128,-1,0
 68 109 68 109 68 250 c 128,-1,1
177 81 m 1,8,-1
 294 81 l 2,9,10
 338 81 338 81 355.5 92 c 128,-1,11
 373 103 373 103 373 139 c 2,12,-1
 373 419 l 1,13,-1
 256 419 l 2,14,15
 212 419 212 419 194.5 408 c 128,-1,16
 177 397 177 397 177 361 c 2,17,-1
 177 81 l 1,8,-1
EndSplineSet
EndChar

StartChar: p
Encoding: 112 112 83
Width: 555
GlyphClass: 2
Flags: W
LayerCount: 2
Fore
SplineSet
334 510 m 0,0,1
 415 510 415 510 451 452.5 c 128,-1,2
 487 395 487 395 487 256 c 128,-1,3
 487 117 487 117 445 58.5 c 128,-1,4
 403 0 403 0 297 0 c 2,5,-1
 190 0 l 1,6,-1
 190 -165 l 1,7,-1
 90 -177 l 1,8,-1
 90 500 l 1,9,-1
 136 500 l 1,10,-1
 173 440 l 1,11,12
 232 510 232 510 334 510 c 0,0,1
191 91 m 1,13,-1
 299 91 l 2,14,15
 343 91 343 91 360.5 102 c 128,-1,16
 378 113 378 113 378 149 c 2,17,-1
 378 409 l 1,18,-1
 271 409 l 2,19,20
 227 409 227 409 209 397.5 c 128,-1,21
 191 386 191 386 191 351 c 2,22,-1
 191 91 l 1,13,-1
EndSplineSet
EndChar

StartChar: q
Encoding: 113 113 84
Width: 555
GlyphClass: 2
Flags: W
LayerCount: 2
Fore
SplineSet
465 500 m 1,0,-1
 465 -166 l 1,1,-1
 365 -177 l 1,2,-1
 365 26 l 1,3,4
 303 -7 303 -7 236 -7 c 0,5,6
 135 -7 135 -7 101.5 49.5 c 128,-1,7
 68 106 68 106 68 251.5 c 128,-1,8
 68 397 68 397 105.5 453.5 c 128,-1,9
 143 510 143 510 242.5 510 c 128,-1,10
 342 510 342 510 398 466 c 1,11,-1
 419 500 l 1,12,-1
 465 500 l 1,0,-1
177 91 m 1,13,-1
 286 91 l 2,14,15
 330 91 330 91 347.5 102 c 128,-1,16
 365 113 365 113 365 149 c 2,17,-1
 365 409 l 1,18,-1
 256 409 l 2,19,20
 212 409 212 409 194.5 398 c 128,-1,21
 177 387 177 387 177 351 c 2,22,-1
 177 91 l 1,13,-1
EndSplineSet
EndChar

StartChar: r
Encoding: 114 114 85
Width: 338
GlyphClass: 2
Flags: W
LayerCount: 2
Fore
SplineSet
90 500 m 1,0,-1
 136 500 l 1,1,-1
 171 421 l 1,2,3
 255 496 255 496 308 515 c 1,4,-1
 318 417 l 1,5,6
 288 411 288 411 251 392.5 c 128,-1,7
 214 374 214 374 189 353 c 1,8,-1
 189 0 l 1,9,-1
 90 0 l 1,10,-1
 90 500 l 1,0,-1
EndSplineSet
EndChar

StartChar: s
Encoding: 115 115 86
Width: 456
GlyphClass: 2
Flags: W
LayerCount: 2
Fore
SplineSet
53 361 m 0,0,1
 53 515 53 515 221 515 c 0,2,3
 304 515 304 515 380 491 c 1,4,-1
 362 398 l 1,5,6
 290 420 290 420 216 420 c 0,7,8
 195 420 195 420 153 416 c 1,9,-1
 153 314 l 1,10,11
 304 292 304 292 357.5 252.5 c 128,-1,12
 411 213 411 213 411 136 c 0,13,14
 411 60 411 60 376 24 c 0,15,16
 339 -15 339 -15 238.5 -15 c 128,-1,17
 138 -15 138 -15 50 10 c 1,18,-1
 69 106 l 1,19,20
 148 80 148 80 241 80 c 0,21,22
 275 80 275 80 311 84 c 1,23,-1
 311 176 l 1,24,25
 155 198 155 198 104 236 c 128,-1,26
 53 274 53 274 53 361 c 0,0,1
EndSplineSet
EndChar

StartChar: t
Encoding: 116 116 87
Width: 354
GlyphClass: 2
Flags: W
LayerCount: 2
Fore
SplineSet
220 500 m 1,0,-1
 309 500 l 1,1,-1
 309 421 l 1,2,-1
 220 421 l 1,3,-1
 220 73 l 1,4,5
 244 70 244 70 276 68 c 1,6,-1
 270 -11 l 1,7,8
 183 -11 183 -11 151.5 7.5 c 128,-1,9
 120 26 120 26 120 84 c 2,10,-1
 120 421 l 1,11,-1
 50 421 l 1,12,-1
 50 500 l 1,13,-1
 120 500 l 1,14,-1
 120 607 l 1,15,-1
 220 632 l 1,16,-1
 220 500 l 1,0,-1
EndSplineSet
EndChar

StartChar: u
Encoding: 117 117 88
Width: 555
GlyphClass: 2
Flags: W
LayerCount: 2
Fore
SplineSet
465 0 m 1,0,-1
 418 0 l 1,1,-1
 392 50 l 1,2,3
 312 -10 312 -10 206 -10 c 0,4,5
 148 -10 148 -10 116.5 14 c 128,-1,6
 85 38 85 38 85 100 c 2,7,-1
 85 500 l 1,8,-1
 185 500 l 1,9,-1
 185 81 l 1,10,-1
 253 81 l 2,11,12
 308 81 308 81 336.5 96 c 128,-1,13
 365 111 365 111 365 159 c 2,14,-1
 365 500 l 1,15,-1
 465 500 l 1,16,-1
 465 0 l 1,0,-1
EndSplineSet
EndChar

StartChar: v
Encoding: 118 118 89
Width: 484
GlyphClass: 2
Flags: W
LayerCount: 2
Fore
SplineSet
163 0 m 1,0,-1
 20 500 l 1,1,-1
 122 500 l 1,2,-1
 237 85 l 1,3,-1
 247 85 l 1,4,-1
 362 500 l 1,5,-1
 464 500 l 1,6,-1
 321 0 l 1,7,-1
 163 0 l 1,0,-1
EndSplineSet
EndChar

StartChar: w
Encoding: 119 119 90
Width: 704
GlyphClass: 2
Flags: W
LayerCount: 2
Fore
SplineSet
123 0 m 1,0,-1
 20 500 l 1,1,-1
 122 500 l 1,2,-1
 203 85 l 1,3,-1
 214 85 l 1,4,-1
 310 470 l 1,5,-1
 394 470 l 1,6,-1
 483 85 l 1,7,-1
 494 85 l 1,8,-1
 582 500 l 1,9,-1
 684 500 l 1,10,-1
 572 0 l 1,11,-1
 422 0 l 1,12,-1
 353 295 l 1,13,-1
 345 295 l 1,14,-1
 272 0 l 1,15,-1
 123 0 l 1,0,-1
EndSplineSet
EndChar

StartChar: x
Encoding: 120 120 91
Width: 490
GlyphClass: 2
Flags: W
LayerCount: 2
Fore
SplineSet
139 500 m 1,0,-1
 248 332 l 1,1,-1
 352 500 l 1,2,-1
 460 500 l 1,3,-1
 303 248 l 1,4,-1
 465 0 l 1,5,-1
 356 0 l 1,6,-1
 241 176 l 1,7,-1
 133 0 l 1,8,-1
 25 0 l 1,9,-1
 187 259 l 1,10,-1
 30 500 l 1,11,-1
 139 500 l 1,0,-1
EndSplineSet
EndChar

StartChar: y
Encoding: 121 121 92
Width: 477
GlyphClass: 2
Flags: W
LayerCount: 2
Fore
SplineSet
219 30 m 1,0,-1
 159 30 l 1,1,-1
 16 500 l 1,2,-1
 118 500 l 1,3,-1
 233 115 l 1,4,-1
 243 115 l 1,5,-1
 358 500 l 1,6,-1
 460 500 l 1,7,-1
 305 -15 l 2,8,9
 280 -98 280 -98 233 -131.5 c 128,-1,10
 186 -165 186 -165 108 -165 c 2,11,-1
 24 -165 l 1,12,-1
 24 -105 l 1,13,-1
 118 -87 l 2,14,15
 165 -78 165 -78 188 -61 c 128,-1,16
 211 -44 211 -44 219 -14 c 1,17,-1
 219 30 l 1,0,-1
EndSplineSet
EndChar

StartChar: z
Encoding: 122 122 93
Width: 500
GlyphClass: 2
Flags: W
LayerCount: 2
Fore
SplineSet
424 500 m 1,0,-1
 424 433 l 1,1,-1
 197 98 l 1,2,-1
 200 92 l 1,3,-1
 430 92 l 1,4,-1
 430 0 l 1,5,-1
 60 0 l 1,6,-1
 60 76 l 1,7,-1
 290 402 l 1,8,-1
 287 408 l 1,9,-1
 81 408 l 1,10,-1
 70 500 l 1,11,-1
 424 500 l 1,0,-1
EndSplineSet
EndChar

StartChar: braceleft
Encoding: 123 123 94
Width: 296
GlyphClass: 2
Flags: W
LayerCount: 2
Fore
SplineSet
201 152 m 1,0,-1
 183 -12 l 1,1,-1
 266 -19 l 1,2,-1
 260 -96 l 1,3,4
 162 -96 162 -96 126 -78.5 c 128,-1,5
 90 -61 90 -61 90 9 c 1,6,-1
 105 229 l 1,7,-1
 40 245 l 1,8,-1
 40 317 l 1,9,-1
 105 333 l 1,10,-1
 90 555 l 1,11,12
 90 625 90 625 123.5 642.5 c 128,-1,13
 157 660 157 660 260 660 c 1,14,-1
 266 583 l 1,15,16
 263 583 263 583 183 576 c 1,17,-1
 201 410 l 1,18,19
 201 320 201 320 145 287 c 1,20,-1
 145 275 l 1,21,22
 201 242 201 242 201 152 c 1,0,-1
EndSplineSet
Position2: "'case' Case-Sensitive Forms in Latin lookup 0 subtable" dx=0 dy=45 dh=0 dv=0
EndChar

StartChar: bar
Encoding: 124 124 95
Width: 264
GlyphClass: 2
Flags: W
LayerCount: 2
Fore
SplineSet
100 -180 m 1,0,-1
 100 704 l 1,1,-1
 164 704 l 1,2,-1
 164 -180 l 1,3,-1
 100 -180 l 1,0,-1
EndSplineSet
Position2: "'case' Case-Sensitive Forms in Latin lookup 0 subtable" dx=0 dy=45 dh=0 dv=0
EndChar

StartChar: braceright
Encoding: 125 125 96
Width: 296
GlyphClass: 2
Flags: W
LayerCount: 2
Fore
SplineSet
95 412 m 1,0,-1
 113 576 l 1,1,-1
 30 583 l 1,2,-1
 36 660 l 1,3,4
 134 660 134 660 170 642.5 c 128,-1,5
 206 625 206 625 206 555 c 1,6,-1
 191 335 l 1,7,-1
 256 319 l 1,8,-1
 256 247 l 1,9,-1
 191 231 l 1,10,-1
 206 9 l 1,11,12
 206 -61 206 -61 172.5 -78.5 c 128,-1,13
 139 -96 139 -96 36 -96 c 1,14,-1
 30 -19 l 1,15,16
 33 -19 33 -19 113 -12 c 1,17,-1
 95 154 l 1,18,19
 95 244 95 244 151 277 c 1,20,-1
 151 289 l 1,21,22
 95 322 95 322 95 412 c 1,0,-1
EndSplineSet
Position2: "'case' Case-Sensitive Forms in Latin lookup 0 subtable" dx=0 dy=45 dh=0 dv=0
EndChar

StartChar: asciitilde
Encoding: 126 126 97
Width: 570
GlyphClass: 2
Flags: W
LayerCount: 2
Fore
SplineSet
462 273 m 1,0,1
 428 235 428 235 390 235 c 128,-1,2
 352 235 352 235 284 272.5 c 128,-1,3
 216 310 216 310 178.5 310 c 128,-1,4
 141 310 141 310 107 273 c 1,5,-1
 107 353 l 1,6,7
 141 390 141 390 178.5 390 c 128,-1,8
 216 390 216 390 284 352.5 c 128,-1,9
 352 315 352 315 390 315 c 128,-1,10
 428 315 428 315 462 353 c 1,11,-1
 462 273 l 1,0,1
EndSplineSet
EndChar

StartChar: exclamdown
Encoding: 161 161 99
Width: 270
GlyphClass: 2
Flags: W
LayerCount: 2
Fore
SplineSet
158 -117 m 2,0,-1
 112 -117 l 2,1,2
 75 -117 75 -117 75 -90 c 1,3,-1
 105 298 l 1,4,-1
 165 298 l 1,5,-1
 195 -90 l 1,6,7
 195 -117 195 -117 158 -117 c 2,0,-1
184.5 501 m 128,-1,9
 197 487 197 487 197 452.5 c 128,-1,10
 197 418 197 418 184.5 403.5 c 128,-1,11
 172 389 172 389 135.5 389 c 128,-1,12
 99 389 99 389 86.5 403.5 c 128,-1,13
 74 418 74 418 74 452.5 c 128,-1,14
 74 487 74 487 86.5 501 c 128,-1,15
 99 515 99 515 135.5 515 c 128,-1,8
 172 515 172 515 184.5 501 c 128,-1,9
EndSplineSet
EndChar

StartChar: cent
Encoding: 162 162 100
Width: 399
GlyphClass: 2
Flags: W
LayerCount: 2
Fore
SplineSet
59 245 m 0,0,1
 59 492 59 492 201 513 c 1,2,-1
 206 600 l 1,3,-1
 263 600 l 1,4,-1
 259 514 l 1,5,6
 301 511 301 511 354 496 c 1,7,-1
 336 421 l 1,8,-1
 249 421 l 2,9,10
 215 421 215 421 196.5 404 c 128,-1,11
 178 387 178 387 175 330 c 2,12,-1
 165 119 l 1,13,14
 194 116 194 116 239 116 c 128,-1,15
 284 116 284 116 336 131 c 1,16,-1
 342 56 l 1,17,18
 295 32 295 32 230 31 c 1,19,-1
 226 -64 l 1,20,-1
 169 -64 l 1,21,-1
 174 36 l 1,22,23
 112 50 112 50 85.5 102 c 128,-1,24
 59 154 59 154 59 245 c 0,0,1
EndSplineSet
EndChar

StartChar: sterling
Encoding: 163 163 101
Width: 526
GlyphClass: 2
Flags: W
LayerCount: 2
Fore
SplineSet
60 287 m 1,0,-1
 60 344 l 1,1,-1
 135 344 l 1,2,-1
 144 443 l 2,3,4
 153 543 153 543 192.5 592 c 128,-1,5
 232 641 232 641 305 641 c 128,-1,6
 378 641 378 641 445 622 c 1,7,-1
 425 547 l 1,8,-1
 321 547 l 2,9,10
 286 547 286 547 268 525.5 c 128,-1,11
 250 504 250 504 244 428 c 2,12,-1
 237 344 l 1,13,-1
 387 344 l 1,14,-1
 380 287 l 1,15,-1
 232 287 l 1,16,-1
 216 90 l 1,17,-1
 451 90 l 1,18,-1
 476 0 l 1,19,-1
 60 0 l 1,20,-1
 60 48 l 1,21,-1
 110 65 l 1,22,-1
 130 287 l 1,23,-1
 60 287 l 1,0,-1
EndSplineSet
EndChar

StartChar: currency
Encoding: 164 164 102
Width: 558
GlyphClass: 2
Flags: W
LayerCount: 2
Fore
SplineSet
89 313 m 128,-1,1
 89 415 89 415 112 453 c 1,2,-1
 20 546 l 1,3,-1
 66 592 l 1,4,-1
 161 496 l 1,5,6
 202 515 202 515 277 515 c 128,-1,7
 352 515 352 515 396 496 c 1,8,-1
 492 592 l 1,9,-1
 538 546 l 1,10,-1
 445 453 l 1,11,12
 468 412 468 412 468 312.5 c 128,-1,13
 468 213 468 213 445 173 c 1,14,-1
 538 80 l 1,15,-1
 492 34 l 1,16,-1
 396 130 l 1,17,18
 355 111 355 111 279 111 c 128,-1,19
 203 111 203 111 161 129 c 1,20,-1
 66 34 l 1,21,-1
 20 80 l 1,22,-1
 112 172 l 1,23,0
 89 211 89 211 89 313 c 128,-1,1
197 394 m 2,24,-1
 197 191 l 1,25,-1
 300 191 l 2,26,27
 332 191 332 191 345 198.5 c 128,-1,28
 358 206 358 206 358 232 c 2,29,-1
 358 435 l 1,30,-1
 253 435 l 2,31,32
 220 435 220 435 208.5 428 c 128,-1,33
 197 421 197 421 197 394 c 2,24,-1
EndSplineSet
EndChar

StartChar: yen
Encoding: 165 165 103
Width: 500
GlyphClass: 2
Flags: W
LayerCount: 2
Fore
SplineSet
440 150 m 1,0,-1
 300 150 l 1,1,-1
 300 0 l 1,2,-1
 200 0 l 1,3,-1
 200 150 l 1,4,-1
 60 150 l 1,5,-1
 60 207 l 1,6,-1
 191 207 l 1,7,-1
 160 287 l 1,8,-1
 60 287 l 1,9,-1
 60 344 l 1,10,-1
 138 344 l 1,11,-1
 30 625 l 1,12,-1
 136 625 l 1,13,-1
 242 331 l 1,14,-1
 258 331 l 1,15,-1
 364 625 l 1,16,-1
 470 625 l 1,17,-1
 361 344 l 1,18,-1
 440 344 l 1,19,-1
 440 287 l 1,20,-1
 339 287 l 1,21,-1
 308 207 l 1,22,-1
 440 207 l 1,23,-1
 440 150 l 1,0,-1
EndSplineSet
EndChar

StartChar: brokenbar
Encoding: 166 166 104
Width: 264
GlyphClass: 2
Flags: W
LayerCount: 2
Fore
SplineSet
100 368 m 1,0,-1
 100 704 l 1,1,-1
 164 704 l 1,2,-1
 164 368 l 1,3,-1
 100 368 l 1,0,-1
100 -180 m 1,4,-1
 100 156 l 1,5,-1
 164 156 l 1,6,-1
 164 -180 l 1,7,-1
 100 -180 l 1,4,-1
EndSplineSet
Position2: "'case' Case-Sensitive Forms in Latin lookup 0 subtable" dx=0 dy=45 dh=0 dv=0
EndChar

StartChar: section
Encoding: 167 167 105
Width: 528
GlyphClass: 2
Flags: W
LayerCount: 2
Fore
SplineSet
200 186 m 2,0,-1
 380 186 l 1,1,-1
 380 272 l 2,2,3
 380 295 380 295 374.5 301 c 128,-1,4
 369 307 369 307 346 307 c 2,5,-1
 166 307 l 1,6,-1
 166 222 l 2,7,8
 166 199 166 199 171.5 192.5 c 128,-1,9
 177 186 177 186 200 186 c 2,0,-1
360 -29 m 1,10,-1
 360 105 l 1,11,12
 200 105 200 105 139.5 138.5 c 128,-1,13
 79 172 79 172 79 247 c 0,14,15
 79 306 79 306 102 342 c 1,16,17
 79 375 79 375 79 426 c 128,-1,18
 79 477 79 477 85.5 508.5 c 128,-1,19
 92 540 92 540 106.5 560 c 128,-1,20
 121 580 121 580 136.5 592 c 128,-1,21
 152 604 152 604 177 610 c 0,22,23
 216 618 216 618 288 618 c 128,-1,24
 360 618 360 618 434 593 c 1,25,-1
 412 526 l 1,26,-1
 185 526 l 1,27,-1
 185 392 l 1,28,29
 346 392 346 392 405 352 c 0,30,31
 434 333 434 333 446 308.5 c 128,-1,32
 458 284 458 284 458 238 c 128,-1,33
 458 192 458 192 433 155 c 1,34,35
 458 119 458 119 458 72.5 c 128,-1,36
 458 26 458 26 451.5 -3 c 128,-1,37
 445 -32 445 -32 435 -51.5 c 128,-1,38
 425 -71 425 -71 407.5 -84.5 c 128,-1,39
 390 -98 390 -98 374.5 -105 c 128,-1,40
 359 -112 359 -112 334 -116 c 0,41,42
 296 -121 296 -121 248 -121 c 0,43,44
 151 -121 151 -121 70 -91 c 1,45,-1
 92 -29 l 1,46,-1
 360 -29 l 1,10,-1
EndSplineSet
EndChar

StartChar: dieresis
Encoding: 168 168 106
Width: 386
GlyphClass: 2
Flags: W
LayerCount: 2
Fore
SplineSet
50 632 m 128,-1,1
 50 665 50 665 60 677.5 c 128,-1,2
 70 690 70 690 101.5 690 c 128,-1,3
 133 690 133 690 143 677.5 c 128,-1,4
 153 665 153 665 153 632 c 128,-1,5
 153 599 153 599 143 587 c 128,-1,6
 133 575 133 575 101.5 575 c 128,-1,7
 70 575 70 575 60 587 c 128,-1,0
 50 599 50 599 50 632 c 128,-1,1
233 632 m 128,-1,9
 233 665 233 665 243 677.5 c 128,-1,10
 253 690 253 690 284.5 690 c 128,-1,11
 316 690 316 690 326 677.5 c 128,-1,12
 336 665 336 665 336 632 c 128,-1,13
 336 599 336 599 326 587 c 128,-1,14
 316 575 316 575 284.5 575 c 128,-1,15
 253 575 253 575 243 587 c 128,-1,8
 233 599 233 599 233 632 c 128,-1,9
EndSplineSet
EndChar

StartChar: copyright
Encoding: 169 169 107
Width: 563
GlyphClass: 2
Flags: W
LayerCount: 2
Fore
SplineSet
30 431 m 128,-1,1
 30 558 30 558 89.5 620 c 128,-1,2
 149 682 149 682 281.5 682 c 128,-1,3
 414 682 414 682 473.5 620 c 128,-1,4
 533 558 533 558 533 431 c 128,-1,5
 533 304 533 304 473.5 241.5 c 128,-1,6
 414 179 414 179 281.5 179 c 128,-1,7
 149 179 149 179 89.5 241.5 c 128,-1,0
 30 304 30 304 30 431 c 128,-1,1
114 602.5 m 128,-1,9
 65 554 65 554 65 430.5 c 128,-1,10
 65 307 65 307 114 258.5 c 128,-1,11
 163 210 163 210 281.5 210 c 128,-1,12
 400 210 400 210 449 258.5 c 128,-1,13
 498 307 498 307 498 430.5 c 128,-1,14
 498 554 498 554 449 602.5 c 128,-1,15
 400 651 400 651 281.5 651 c 128,-1,8
 163 651 163 651 114 602.5 c 128,-1,9
289 274 m 0,16,17
 219 274 219 274 193 311 c 128,-1,18
 167 348 167 348 167 430 c 128,-1,19
 167 512 167 512 193 549 c 128,-1,20
 219 586 219 586 289 586 c 0,21,22
 340 586 340 586 369 574 c 1,23,-1
 357 514 l 1,24,25
 329 521 329 521 300 521 c 128,-1,26
 271 521 271 521 261 516 c 128,-1,27
 251 511 251 511 251 497 c 2,28,-1
 251 345 l 1,29,30
 270 341 270 341 298 341 c 128,-1,31
 326 341 326 341 363 352 c 1,32,-1
 369 286 l 1,33,34
 340 274 340 274 289 274 c 0,16,17
EndSplineSet
EndChar

StartChar: ordfeminine
Encoding: 170 170 108
Width: 458
GlyphClass: 2
Flags: W
LayerCount: 2
Fore
SplineSet
88 748 m 1,0,1
 151 770 151 770 225.5 770 c 128,-1,2
 300 770 300 770 339.5 740.5 c 128,-1,3
 379 711 379 711 379 635 c 2,4,-1
 379 356 l 1,5,-1
 334 356 l 1,6,-1
 314 398 l 1,7,8
 266 344 266 344 181 344 c 0,9,10
 57 344 57 344 57 475 c 0,11,12
 57 544 57 544 99.5 570 c 128,-1,13
 142 596 142 596 246 596 c 2,14,-1
 300 596 l 1,15,-1
 300 692 l 1,16,17
 270 695 270 695 220.5 695 c 128,-1,18
 171 695 171 695 107 678 c 1,19,-1
 88 748 l 1,0,1
141 503 m 2,20,-1
 141 422 l 1,21,-1
 252 422 l 2,22,23
 268 422 268 422 277 423.5 c 128,-1,24
 286 425 286 425 293 432.5 c 128,-1,25
 300 440 300 440 300 454 c 2,26,-1
 300 538 l 1,27,-1
 187 538 l 2,28,29
 170 538 170 538 162 536 c 0,30,31
 141 533 141 533 141 503 c 2,20,-1
85 221 m 1,32,-1
 85 251 l 2,33,34
 85 271 85 271 95.5 275.5 c 128,-1,35
 106 280 106 280 133 280 c 2,36,-1
 373 280 l 1,37,-1
 373 252 l 2,38,39
 373 232 373 232 361.5 226.5 c 128,-1,40
 350 221 350 221 325 221 c 2,41,-1
 85 221 l 1,32,-1
EndSplineSet
EndChar

StartChar: guillemotleft
Encoding: 171 171 109
Width: 432
GlyphClass: 2
Flags: W
LayerCount: 2
Fore
SplineSet
25 290 m 1,0,-1
 176 444 l 1,1,-1
 211 417 l 1,2,-1
 115 250 l 1,3,-1
 211 83 l 1,4,-1
 176 56 l 1,5,-1
 25 209 l 1,6,-1
 25 290 l 1,0,-1
221 290 m 1,7,-1
 372 444 l 1,8,-1
 407 417 l 1,9,-1
 311 250 l 1,10,-1
 407 83 l 1,11,-1
 372 56 l 1,12,-1
 221 209 l 1,13,-1
 221 290 l 1,7,-1
EndSplineSet
Position2: "'case' Case-Sensitive Forms in Latin lookup 0 subtable" dx=0 dy=45 dh=0 dv=0
EndChar

StartChar: logicalnot
Encoding: 172 172 110
Width: 570
GlyphClass: 2
Flags: W
LayerCount: 2
Fore
SplineSet
107 272 m 1,0,-1
 107 352 l 1,1,-1
 462 352 l 1,2,-1
 462 164 l 1,3,-1
 383 164 l 1,4,-1
 383 272 l 1,5,-1
 107 272 l 1,0,-1
EndSplineSet
EndChar

StartChar: registered
Encoding: 174 174 111
Width: 563
GlyphClass: 2
Flags: W
LayerCount: 2
Fore
SplineSet
30 431 m 128,-1,1
 30 558 30 558 89.5 620 c 128,-1,2
 149 682 149 682 281.5 682 c 128,-1,3
 414 682 414 682 473.5 620 c 128,-1,4
 533 558 533 558 533 431 c 128,-1,5
 533 304 533 304 473.5 241.5 c 128,-1,6
 414 179 414 179 281.5 179 c 128,-1,7
 149 179 149 179 89.5 241.5 c 128,-1,0
 30 304 30 304 30 431 c 128,-1,1
114 602.5 m 128,-1,9
 65 554 65 554 65 430.5 c 128,-1,10
 65 307 65 307 114 258.5 c 128,-1,11
 163 210 163 210 281.5 210 c 128,-1,12
 400 210 400 210 449 258.5 c 128,-1,13
 498 307 498 307 498 430.5 c 128,-1,14
 498 554 498 554 449 602.5 c 128,-1,15
 400 651 400 651 281.5 651 c 128,-1,8
 163 651 163 651 114 602.5 c 128,-1,9
247 378 m 1,16,-1
 247 281 l 1,17,-1
 170 281 l 1,18,-1
 170 581 l 1,19,-1
 302 581 l 2,20,21
 402 581 402 581 402 480 c 0,22,23
 402 411 402 411 357 389 c 1,24,-1
 413 281 l 1,25,-1
 326 281 l 1,26,-1
 284 378 l 1,27,-1
 247 378 l 1,16,-1
247 519 m 1,28,-1
 247 437 l 1,29,-1
 288 437 l 2,30,31
 305 437 305 437 313 441 c 128,-1,32
 321 445 321 445 321 458 c 2,33,-1
 321 499 l 2,34,35
 321 516 321 516 306 518 c 0,36,37
 300 519 300 519 288 519 c 2,38,-1
 247 519 l 1,28,-1
EndSplineSet
EndChar

StartChar: macron
Encoding: 175 175 112
Width: 399
GlyphClass: 2
Flags: W
LayerCount: 2
Fore
SplineSet
321 586 m 1,0,-1
 123 586 l 2,1,2
 94 586 94 586 86 595.5 c 128,-1,3
 78 605 78 605 78 632 c 2,4,-1
 78 667 l 1,5,-1
 277 667 l 2,6,7
 306 667 306 667 313.5 658 c 128,-1,8
 321 649 321 649 321 622 c 2,9,-1
 321 586 l 1,0,-1
EndSplineSet
EndChar

StartChar: degree
Encoding: 176 176 113
Width: 407
GlyphClass: 2
Flags: W
LayerCount: 2
Fore
SplineSet
91 419.5 m 128,-1,1
 56 456 56 456 56 530.5 c 128,-1,2
 56 605 56 605 91 641.5 c 128,-1,3
 126 678 126 678 203.5 678 c 128,-1,4
 281 678 281 678 316 641.5 c 128,-1,5
 351 605 351 605 351 530.5 c 128,-1,6
 351 456 351 456 316 419.5 c 128,-1,7
 281 383 281 383 203.5 383 c 128,-1,0
 126 383 126 383 91 419.5 c 128,-1,1
140 562 m 2,8,-1
 140 461 l 1,9,-1
 203 461 l 2,10,11
 226 461 226 461 236.5 462.5 c 128,-1,12
 247 464 247 464 256 473 c 128,-1,13
 265 482 265 482 265 500 c 2,14,-1
 265 600 l 1,15,-1
 208 600 l 2,16,17
 183 600 183 600 171 598.5 c 128,-1,18
 159 597 159 597 149.5 588.5 c 128,-1,19
 140 580 140 580 140 562 c 2,8,-1
EndSplineSet
EndChar

StartChar: plusminus
Encoding: 177 177 114
Width: 570
GlyphClass: 2
Flags: W
LayerCount: 2
Fore
SplineSet
108 333 m 1,0,-1
 108 413 l 1,1,-1
 245 413 l 1,2,-1
 245 550 l 1,3,-1
 325 550 l 1,4,-1
 325 413 l 1,5,-1
 463 413 l 1,6,-1
 463 333 l 1,7,-1
 325 333 l 1,8,-1
 325 195 l 1,9,-1
 245 195 l 1,10,-1
 245 333 l 1,11,-1
 108 333 l 1,0,-1
107 22 m 1,12,-1
 107 102 l 1,13,-1
 462 102 l 1,14,-1
 462 22 l 1,15,-1
 107 22 l 1,12,-1
EndSplineSet
EndChar

StartChar: twosuperior
Encoding: 178 178 115
Width: 373
GlyphClass: 2
Flags: W
LayerCount: 2
Fore
SplineSet
50 719 m 1,0,1
 121 738 121 738 191.5 738 c 128,-1,2
 262 738 262 738 298 715.5 c 128,-1,3
 334 693 334 693 334 626 c 128,-1,4
 334 559 334 559 298.5 530 c 128,-1,5
 263 501 263 501 148 462 c 1,6,-1
 148 412 l 1,7,-1
 328 412 l 1,8,-1
 328 343 l 1,9,-1
 40 343 l 1,10,-1
 40 412 l 2,11,12
 40 474 40 474 82 506 c 0,13,14
 119 533 119 533 186 562 c 2,15,-1
 237 584 l 1,16,-1
 237 655 l 1,17,18
 210 660 210 660 164 660 c 128,-1,19
 118 660 118 660 64 648 c 1,20,-1
 50 719 l 1,0,1
EndSplineSet
EndChar

StartChar: threesuperior
Encoding: 179 179 116
Width: 373
GlyphClass: 2
Flags: W
LayerCount: 2
Fore
SplineSet
49 346 m 1,0,1
 58 400 58 400 64 427 c 1,2,3
 116 414 116 414 157.5 414 c 128,-1,4
 199 414 199 414 234 418 c 1,5,-1
 234 491 l 1,6,-1
 130 506 l 1,7,-1
 130 565 l 1,8,-1
 234 582 l 1,9,-1
 234 655 l 1,10,11
 209 660 209 660 168 660 c 128,-1,12
 127 660 127 660 70 649 c 1,13,-1
 56 716 l 1,14,15
 124 738 124 738 191.5 738 c 128,-1,16
 259 738 259 738 293.5 720 c 128,-1,17
 328 702 328 702 328 645 c 128,-1,18
 328 588 328 588 273 554 c 1,19,-1
 273 548 l 1,20,21
 338 513 338 513 338 453 c 0,22,23
 338 391 338 391 305 363 c 0,24,25
 278 340 278 340 224 336 c 0,26,27
 204 334 204 334 154.5 334 c 128,-1,28
 105 334 105 334 49 346 c 1,0,1
EndSplineSet
EndChar

StartChar: acute
Encoding: 180 180 117
Width: 429
GlyphClass: 2
Flags: W
LayerCount: 2
Fore
SplineSet
260 708 m 2,0,1
 265 712 265 712 268.5 712 c 128,-1,2
 272 712 272 712 276 707 c 2,3,-1
 320 653 l 2,4,5
 326 645 326 645 326 641.5 c 128,-1,6
 326 638 326 638 322 634 c 2,7,-1
 292 609 l 2,8,9
 283 602 283 602 270 599 c 2,10,-1
 130 564 l 1,11,-1
 108 598 l 1,12,-1
 260 708 l 2,0,1
EndSplineSet
EndChar

StartChar: mu
Encoding: 181 181 118
Width: 560
GlyphClass: 2
Flags: W
LayerCount: 2
Fore
SplineSet
255 0 m 2,0,-1
 173 0 l 1,1,-1
 141 -165 l 1,2,-1
 90 -165 l 1,3,-1
 90 500 l 1,4,-1
 190 500 l 1,5,-1
 190 81 l 1,6,-1
 273 81 l 2,7,8
 318 81 318 81 344 96.5 c 128,-1,9
 370 112 370 112 370 159 c 2,10,-1
 370 500 l 1,11,-1
 470 515 l 1,12,-1
 470 0 l 1,13,-1
 423 0 l 1,14,-1
 397 50 l 1,15,16
 350 0 350 0 255 0 c 2,0,-1
EndSplineSet
EndChar

StartChar: paragraph
Encoding: 182 182 119
Width: 604
GlyphClass: 2
Flags: W
LayerCount: 2
Fore
SplineSet
110 0 m 1,0,-1
 110 35 l 1,1,-1
 205 67 l 1,2,-1
 205 297 l 1,3,4
 70 315 70 315 70 458 c 0,5,6
 70 625 70 625 257 625 c 2,7,-1
 524 625 l 1,8,-1
 524 535 l 1,9,-1
 474 535 l 1,10,-1
 474 0 l 1,11,-1
 379 0 l 1,12,-1
 379 535 l 1,13,-1
 269 535 l 1,14,-1
 269 0 l 1,15,-1
 110 0 l 1,0,-1
EndSplineSet
EndChar

StartChar: periodcentered
Encoding: 183 183 120
Width: 221
GlyphClass: 2
Flags: W
LayerCount: 2
Fore
SplineSet
45 224 m 128,-1,1
 45 269 45 269 58.5 287 c 128,-1,2
 72 305 72 305 110.5 305 c 128,-1,3
 149 305 149 305 162.5 287 c 128,-1,4
 176 269 176 269 176 224 c 128,-1,5
 176 179 176 179 163 161.5 c 128,-1,6
 150 144 150 144 111 144 c 128,-1,7
 72 144 72 144 58.5 161.5 c 128,-1,0
 45 179 45 179 45 224 c 128,-1,1
EndSplineSet
EndChar

StartChar: cedilla
Encoding: 184 184 121
Width: 266
GlyphClass: 2
Flags: W
LayerCount: 2
Fore
SplineSet
137 -66 m 2,0,-1
 137 21 l 1,1,-1
 156 21 l 1,2,3
 184 8 184 8 200 -20.5 c 128,-1,4
 216 -49 216 -49 216 -83 c 128,-1,5
 216 -117 216 -117 191.5 -141 c 128,-1,6
 167 -165 167 -165 126.5 -165 c 128,-1,7
 86 -165 86 -165 50 -149 c 1,8,-1
 59 -98 l 1,9,-1
 94 -98 l 2,10,11
 117 -98 117 -98 127 -92 c 128,-1,12
 137 -86 137 -86 137 -66 c 2,0,-1
EndSplineSet
EndChar

StartChar: onesuperior
Encoding: 185 185 122
Width: 373
GlyphClass: 2
Flags: W
LayerCount: 2
Fore
SplineSet
167 641 m 1,0,-1
 59 632 l 1,1,-1
 59 696 l 1,2,-1
 195 728 l 1,3,-1
 261 728 l 1,4,-1
 261 412 l 1,5,-1
 339 412 l 1,6,-1
 339 343 l 1,7,-1
 59 343 l 1,8,-1
 59 412 l 1,9,-1
 167 412 l 1,10,-1
 167 641 l 1,0,-1
EndSplineSet
EndChar

StartChar: ordmasculine
Encoding: 186 186 123
Width: 472
GlyphClass: 2
Flags: W
LayerCount: 2
Fore
SplineSet
65 557 m 128,-1,1
 65 677 65 677 103 723.5 c 128,-1,2
 141 770 141 770 233 770 c 128,-1,3
 325 770 325 770 363 723.5 c 128,-1,4
 401 677 401 677 401 557 c 128,-1,5
 401 437 401 437 363 390.5 c 128,-1,6
 325 344 325 344 233 344 c 128,-1,7
 141 344 141 344 103 390.5 c 128,-1,0
 65 437 65 437 65 557 c 128,-1,1
156 678 m 2,8,-1
 156 412 l 1,9,-1
 263 412 l 2,10,11
 287 412 287 412 298.5 416.5 c 128,-1,12
 310 421 310 421 310 437 c 2,13,-1
 310 703 l 1,14,-1
 202 703 l 2,15,16
 178 703 178 703 167 698.5 c 128,-1,17
 156 694 156 694 156 678 c 2,8,-1
85 221 m 1,18,-1
 85 251 l 2,19,20
 85 271 85 271 95.5 275.5 c 128,-1,21
 106 280 106 280 133 280 c 2,22,-1
 373 280 l 1,23,-1
 373 252 l 2,24,25
 373 232 373 232 361.5 226.5 c 128,-1,26
 350 221 350 221 325 221 c 2,27,-1
 85 221 l 1,18,-1
EndSplineSet
EndChar

StartChar: guillemotright
Encoding: 187 187 124
Width: 432
GlyphClass: 2
Flags: W
LayerCount: 2
Fore
SplineSet
256 444 m 1,0,-1
 407 290 l 1,1,-1
 407 209 l 1,2,-1
 256 56 l 1,3,-1
 221 83 l 1,4,-1
 317 250 l 1,5,-1
 221 417 l 1,6,-1
 256 444 l 1,0,-1
60 444 m 1,7,-1
 211 290 l 1,8,-1
 211 209 l 1,9,-1
 60 56 l 1,10,-1
 25 83 l 1,11,-1
 121 250 l 1,12,-1
 25 417 l 1,13,-1
 60 444 l 1,7,-1
EndSplineSet
Position2: "'case' Case-Sensitive Forms in Latin lookup 0 subtable" dx=0 dy=45 dh=0 dv=0
EndChar

StartChar: onequarter
Encoding: 188 188 125
Width: 971
GlyphClass: 2
Flags: W
LayerCount: 2
Fore
SplineSet
377 -40 m 2,0,-1
 326 -40 l 1,1,-1
 595 640 l 2,2,3
 600 650 600 650 604 654 c 0,4,5
 615 665 615 665 638 665 c 2,6,-1
 689 665 l 1,7,-1
 420 -15 l 2,8,9
 415 -25 415 -25 411 -29 c 0,10,11
 400 -40 400 -40 377 -40 c 2,0,-1
584 129 m 1,12,13
 606 188 606 188 681 385 c 1,14,-1
 869 385 l 1,15,-1
 869 140 l 1,16,-1
 911 140 l 1,17,-1
 911 70 l 1,18,-1
 869 70 l 1,19,-1
 869 0 l 1,20,-1
 782 0 l 1,21,-1
 782 70 l 1,22,-1
 584 70 l 1,23,-1
 584 129 l 1,12,13
782 140 m 1,24,-1
 782 323 l 1,25,-1
 750 323 l 1,26,-1
 673 140 l 1,27,-1
 782 140 l 1,24,-1
173 538 m 1,28,-1
 65 529 l 1,29,-1
 65 593 l 1,30,-1
 201 625 l 1,31,-1
 267 625 l 1,32,-1
 267 309 l 1,33,-1
 345 309 l 1,34,-1
 345 240 l 1,35,-1
 65 240 l 1,36,-1
 65 309 l 1,37,-1
 173 309 l 1,38,-1
 173 538 l 1,28,-1
EndSplineSet
EndChar

StartChar: onehalf
Encoding: 189 189 126
Width: 971
GlyphClass: 2
Flags: W
LayerCount: 2
Fore
SplineSet
347 -40 m 2,0,-1
 296 -40 l 1,1,-1
 565 640 l 2,2,3
 570 650 570 650 574 654 c 0,4,5
 585 665 585 665 608 665 c 2,6,-1
 659 665 l 1,7,-1
 390 -15 l 2,8,9
 385 -25 385 -25 381 -29 c 0,10,11
 370 -40 370 -40 347 -40 c 2,0,-1
607 376 m 1,12,13
 678 395 678 395 748.5 395 c 128,-1,14
 819 395 819 395 855 372.5 c 128,-1,15
 891 350 891 350 891 283 c 128,-1,16
 891 216 891 216 855.5 187 c 128,-1,17
 820 158 820 158 705 119 c 1,18,-1
 705 69 l 1,19,-1
 885 69 l 1,20,-1
 885 0 l 1,21,-1
 597 0 l 1,22,-1
 597 69 l 2,23,24
 597 131 597 131 639 162 c 0,25,26
 676 190 676 190 743 219 c 2,27,-1
 794 241 l 1,28,-1
 794 312 l 1,29,30
 766 317 766 317 720.5 317 c 128,-1,31
 675 317 675 317 621 305 c 1,32,-1
 607 376 l 1,12,13
173 538 m 1,33,-1
 65 529 l 1,34,-1
 65 593 l 1,35,-1
 201 625 l 1,36,-1
 267 625 l 1,37,-1
 267 309 l 1,38,-1
 345 309 l 1,39,-1
 345 240 l 1,40,-1
 65 240 l 1,41,-1
 65 309 l 1,42,-1
 173 309 l 1,43,-1
 173 538 l 1,33,-1
EndSplineSet
EndChar

StartChar: threequarters
Encoding: 190 190 127
Width: 971
GlyphClass: 2
Flags: W
LayerCount: 2
Fore
SplineSet
358 -40 m 2,0,-1
 307 -40 l 1,1,-1
 576 640 l 2,2,3
 581 650 581 650 585 654 c 0,4,5
 596 665 596 665 619 665 c 2,6,-1
 670 665 l 1,7,-1
 401 -15 l 2,8,9
 396 -25 396 -25 392 -29 c 0,10,11
 381 -40 381 -40 358 -40 c 2,0,-1
584 129 m 1,12,13
 606 188 606 188 681 385 c 1,14,-1
 869 385 l 1,15,-1
 869 140 l 1,16,-1
 911 140 l 1,17,-1
 911 70 l 1,18,-1
 869 70 l 1,19,-1
 869 0 l 1,20,-1
 782 0 l 1,21,-1
 782 70 l 1,22,-1
 584 70 l 1,23,-1
 584 129 l 1,12,13
782 140 m 1,24,-1
 782 323 l 1,25,-1
 750 323 l 1,26,-1
 673 140 l 1,27,-1
 782 140 l 1,24,-1
250 552 m 1,28,29
 225 557 225 557 184 557 c 128,-1,30
 143 557 143 557 86 546 c 1,31,-1
 72 613 l 1,32,33
 140 635 140 635 207.5 635 c 128,-1,34
 275 635 275 635 309.5 617 c 128,-1,35
 344 599 344 599 344 542 c 128,-1,36
 344 485 344 485 289 451 c 1,37,-1
 289 445 l 1,38,39
 354 410 354 410 354 350 c 0,40,41
 354 288 354 288 321 260 c 0,42,43
 294 237 294 237 240 232 c 0,44,45
 220 231 220 231 170.5 231 c 128,-1,46
 121 231 121 231 65 243 c 1,47,-1
 80 324 l 1,48,49
 132 311 132 311 173.5 311 c 128,-1,50
 215 311 215 311 250 315 c 1,51,-1
 250 388 l 1,52,-1
 146 403 l 1,53,-1
 146 462 l 1,54,-1
 250 479 l 1,55,-1
 250 552 l 1,28,29
EndSplineSet
EndChar

StartChar: questiondown
Encoding: 191 191 128
Width: 418
GlyphClass: 2
Flags: W
LayerCount: 2
Fore
SplineSet
276 288 m 1,0,1
 279 246 279 246 288 143 c 1,2,3
 288 129 288 129 275.5 120.5 c 128,-1,4
 263 112 263 112 226 99 c 2,5,-1
 130 66 l 1,6,-1
 130 -39 l 1,7,8
 148 -41 148 -41 189 -41 c 0,9,10
 288 -41 288 -41 354 -21 c 1,11,-1
 378 -104 l 1,12,13
 294 -132 294 -132 233.5 -132 c 128,-1,14
 173 -132 173 -132 144.5 -128 c 128,-1,15
 116 -124 116 -124 87 -111 c 0,16,17
 30 -85 30 -85 30 5 c 0,18,19
 30 76 30 76 68.5 110.5 c 128,-1,20
 107 145 107 145 197 176 c 1,21,-1
 202 288 l 1,22,-1
 276 288 l 1,0,1
307 451 m 128,-1,24
 307 415 307 415 293.5 400.5 c 128,-1,25
 280 386 280 386 241.5 386 c 128,-1,26
 203 386 203 386 189.5 400.5 c 128,-1,27
 176 415 176 415 176 451 c 128,-1,28
 176 487 176 487 189 501 c 128,-1,29
 202 515 202 515 241 515 c 128,-1,30
 280 515 280 515 293.5 501 c 128,-1,23
 307 487 307 487 307 451 c 128,-1,24
EndSplineSet
EndChar

StartChar: Agrave
Encoding: 192 192 129
Width: 549
GlyphClass: 2
Flags: W
LayerCount: 2
Fore
SplineSet
425 0 m 1,0,-1
 391 137 l 1,1,-1
 157 137 l 1,2,-1
 124 0 l 1,3,-1
 18 0 l 1,4,-1
 180 625 l 1,5,-1
 369 625 l 1,6,-1
 531 0 l 1,7,-1
 425 0 l 1,0,-1
254 533 m 1,8,-1
 179 227 l 1,9,-1
 369 227 l 1,10,-1
 295 533 l 1,11,-1
 254 533 l 1,8,-1
137 749 m 2,12,13
 133 753 133 753 133 756.5 c 128,-1,14
 133 760 133 760 139 768 c 2,15,-1
 183 822 l 2,16,17
 187 827 187 827 190.5 827 c 128,-1,18
 194 827 194 827 199 823 c 2,19,-1
 351 713 l 1,20,-1
 329 679 l 1,21,-1
 189 714 l 2,22,23
 176 717 176 717 167 724 c 2,24,-1
 137 749 l 2,12,13
EndSplineSet
EndChar

StartChar: Aacute
Encoding: 193 193 130
Width: 549
GlyphClass: 2
Flags: W
LayerCount: 2
Fore
SplineSet
425 0 m 1,0,-1
 391 137 l 1,1,-1
 157 137 l 1,2,-1
 124 0 l 1,3,-1
 18 0 l 1,4,-1
 180 625 l 1,5,-1
 369 625 l 1,6,-1
 531 0 l 1,7,-1
 425 0 l 1,0,-1
254 533 m 1,8,-1
 179 227 l 1,9,-1
 369 227 l 1,10,-1
 295 533 l 1,11,-1
 254 533 l 1,8,-1
320 818 m 2,12,13
 325 822 325 822 328.5 822 c 128,-1,14
 332 822 332 822 336 817 c 2,15,-1
 380 763 l 2,16,17
 386 755 386 755 386 751.5 c 128,-1,18
 386 748 386 748 382 744 c 2,19,-1
 352 719 l 2,20,21
 343 712 343 712 330 709 c 2,22,-1
 190 674 l 1,23,-1
 168 708 l 1,24,-1
 320 818 l 2,12,13
EndSplineSet
EndChar

StartChar: Acircumflex
Encoding: 194 194 131
Width: 549
GlyphClass: 2
Flags: W
LayerCount: 2
Fore
SplineSet
425 0 m 1,0,-1
 391 137 l 1,1,-1
 157 137 l 1,2,-1
 124 0 l 1,3,-1
 18 0 l 1,4,-1
 180 625 l 1,5,-1
 369 625 l 1,6,-1
 531 0 l 1,7,-1
 425 0 l 1,0,-1
254 533 m 1,8,-1
 179 227 l 1,9,-1
 369 227 l 1,10,-1
 295 533 l 1,11,-1
 254 533 l 1,8,-1
265 836 m 2,12,-1
 283 836 l 2,13,14
 288 836 288 836 293 830 c 2,15,-1
 407 714 l 1,16,-1
 367 680 l 1,17,-1
 274 744 l 1,18,-1
 181 680 l 1,19,-1
 141 714 l 1,20,-1
 255 830 l 2,21,22
 260 836 260 836 265 836 c 2,12,-1
EndSplineSet
EndChar

StartChar: Atilde
Encoding: 195 195 132
Width: 549
GlyphClass: 2
Flags: W
LayerCount: 2
Fore
SplineSet
425 0 m 1,0,-1
 391 137 l 1,1,-1
 157 137 l 1,2,-1
 124 0 l 1,3,-1
 18 0 l 1,4,-1
 180 625 l 1,5,-1
 369 625 l 1,6,-1
 531 0 l 1,7,-1
 425 0 l 1,0,-1
254 533 m 1,8,-1
 179 227 l 1,9,-1
 369 227 l 1,10,-1
 295 533 l 1,11,-1
 254 533 l 1,8,-1
329 695.5 m 128,-1,13
 312 688 312 688 292 688 c 128,-1,14
 272 688 272 688 240 719 c 1,15,-1
 225 731 l 1,16,-1
 159 698 l 1,17,-1
 128 749 l 1,18,-1
 158 770 l 1,19,20
 203 799 203 799 219 806.5 c 128,-1,21
 235 814 235 814 254.5 814 c 128,-1,22
 274 814 274 814 308 783 c 1,23,-1
 323 771 l 1,24,-1
 389 804 l 1,25,-1
 420 753 l 1,26,-1
 390 732 l 1,27,12
 346 703 346 703 329 695.5 c 128,-1,13
EndSplineSet
EndChar

StartChar: Adieresis
Encoding: 196 196 133
Width: 549
GlyphClass: 2
Flags: W
LayerCount: 2
Fore
SplineSet
425 0 m 1,0,-1
 391 137 l 1,1,-1
 157 137 l 1,2,-1
 124 0 l 1,3,-1
 18 0 l 1,4,-1
 180 625 l 1,5,-1
 369 625 l 1,6,-1
 531 0 l 1,7,-1
 425 0 l 1,0,-1
254 533 m 1,8,-1
 179 227 l 1,9,-1
 369 227 l 1,10,-1
 295 533 l 1,11,-1
 254 533 l 1,8,-1
131 756 m 128,-1,13
 131 789 131 789 141 801.5 c 128,-1,14
 151 814 151 814 182.5 814 c 128,-1,15
 214 814 214 814 224 801.5 c 128,-1,16
 234 789 234 789 234 756 c 128,-1,17
 234 723 234 723 224 711 c 128,-1,18
 214 699 214 699 182.5 699 c 128,-1,19
 151 699 151 699 141 711 c 128,-1,12
 131 723 131 723 131 756 c 128,-1,13
314 756 m 128,-1,21
 314 789 314 789 324 801.5 c 128,-1,22
 334 814 334 814 365.5 814 c 128,-1,23
 397 814 397 814 407 801.5 c 128,-1,24
 417 789 417 789 417 756 c 128,-1,25
 417 723 417 723 407 711 c 128,-1,26
 397 699 397 699 365.5 699 c 128,-1,27
 334 699 334 699 324 711 c 128,-1,20
 314 723 314 723 314 756 c 128,-1,21
EndSplineSet
EndChar

StartChar: Aring
Encoding: 197 197 134
Width: 549
GlyphClass: 2
Flags: W
LayerCount: 2
Fore
SplineSet
425 0 m 1,0,-1
 391 137 l 1,1,-1
 157 137 l 1,2,-1
 124 0 l 1,3,-1
 18 0 l 1,4,-1
 180 625 l 1,5,-1
 369 625 l 1,6,-1
 531 0 l 1,7,-1
 425 0 l 1,0,-1
254 533 m 1,8,-1
 179 227 l 1,9,-1
 369 227 l 1,10,-1
 295 533 l 1,11,-1
 254 533 l 1,8,-1
176 762 m 128,-1,13
 176 812 176 812 199.5 836 c 128,-1,14
 223 860 223 860 275 860 c 128,-1,15
 327 860 327 860 350 836 c 128,-1,16
 373 812 373 812 373 762 c 128,-1,17
 373 712 373 712 350 687.5 c 128,-1,18
 327 663 327 663 275 663 c 128,-1,19
 223 663 223 663 199.5 687.5 c 128,-1,12
 176 712 176 712 176 762 c 128,-1,13
232 783 m 2,20,-1
 232 715 l 1,21,-1
 274 715 l 2,22,23
 289 715 289 715 296 716 c 0,24,25
 316 719 316 719 316 741 c 2,26,-1
 316 808 l 1,27,-1
 277 808 l 2,28,29
 247 808 247 808 239.5 801 c 128,-1,30
 232 794 232 794 232 783 c 2,20,-1
EndSplineSet
EndChar

StartChar: AE
Encoding: 198 198 135
Width: 736
GlyphClass: 2
Flags: W
LayerCount: 2
Fore
SplineSet
619 351 m 1,0,-1
 619 266 l 1,1,-1
 462 266 l 1,2,-1
 507 90 l 1,3,-1
 711 90 l 1,4,-1
 711 0 l 1,5,-1
 425 0 l 1,6,-1
 391 137 l 1,7,-1
 157 137 l 1,8,-1
 124 0 l 1,9,-1
 18 0 l 1,10,-1
 180 625 l 1,11,-1
 661 625 l 1,12,-1
 646 535 l 1,13,-1
 392 535 l 1,14,-1
 440 351 l 1,15,-1
 619 351 l 1,0,-1
254 533 m 1,16,-1
 179 227 l 1,17,-1
 369 227 l 1,18,-1
 295 533 l 1,19,-1
 254 533 l 1,16,-1
EndSplineSet
PairPos2: "'kern' Horizontal Kerning in Latin lookup 1 per glyph data 1" quotedblright dx=0 dy=0 dh=-30 dv=0 dx=0 dy=0 dh=0 dv=0
PairPos2: "'kern' Horizontal Kerning in Latin lookup 1 per glyph data 1" quotedblleft dx=0 dy=0 dh=-30 dv=0 dx=0 dy=0 dh=0 dv=0
PairPos2: "'kern' Horizontal Kerning in Latin lookup 1 per glyph data 1" quoteright dx=0 dy=0 dh=-30 dv=0 dx=0 dy=0 dh=0 dv=0
PairPos2: "'kern' Horizontal Kerning in Latin lookup 1 per glyph data 1" quoteleft dx=0 dy=0 dh=-30 dv=0 dx=0 dy=0 dh=0 dv=0
PairPos2: "'kern' Horizontal Kerning in Latin lookup 1 per glyph data 1" Ygrave dx=0 dy=0 dh=-60 dv=0 dx=0 dy=0 dh=0 dv=0
PairPos2: "'kern' Horizontal Kerning in Latin lookup 1 per glyph data 1" Wdieresis dx=0 dy=0 dh=-25 dv=0 dx=0 dy=0 dh=0 dv=0
PairPos2: "'kern' Horizontal Kerning in Latin lookup 1 per glyph data 1" Wacute dx=0 dy=0 dh=-25 dv=0 dx=0 dy=0 dh=0 dv=0
PairPos2: "'kern' Horizontal Kerning in Latin lookup 1 per glyph data 1" Wgrave dx=0 dy=0 dh=-25 dv=0 dx=0 dy=0 dh=0 dv=0
PairPos2: "'kern' Horizontal Kerning in Latin lookup 1 per glyph data 1" uni021A dx=0 dy=0 dh=-40 dv=0 dx=0 dy=0 dh=0 dv=0
PairPos2: "'kern' Horizontal Kerning in Latin lookup 1 per glyph data 1" Ydieresis dx=0 dy=0 dh=-60 dv=0 dx=0 dy=0 dh=0 dv=0
PairPos2: "'kern' Horizontal Kerning in Latin lookup 1 per glyph data 1" Ycircumflex dx=0 dy=0 dh=-60 dv=0 dx=0 dy=0 dh=0 dv=0
PairPos2: "'kern' Horizontal Kerning in Latin lookup 1 per glyph data 1" Wcircumflex dx=0 dy=0 dh=-25 dv=0 dx=0 dy=0 dh=0 dv=0
PairPos2: "'kern' Horizontal Kerning in Latin lookup 1 per glyph data 1" Tbar dx=0 dy=0 dh=-40 dv=0 dx=0 dy=0 dh=0 dv=0
PairPos2: "'kern' Horizontal Kerning in Latin lookup 1 per glyph data 1" Tcaron dx=0 dy=0 dh=-40 dv=0 dx=0 dy=0 dh=0 dv=0
PairPos2: "'kern' Horizontal Kerning in Latin lookup 1 per glyph data 1" Yacute dx=0 dy=0 dh=-60 dv=0 dx=0 dy=0 dh=0 dv=0
PairPos2: "'kern' Horizontal Kerning in Latin lookup 1 per glyph data 1" Y dx=0 dy=0 dh=-60 dv=0 dx=0 dy=0 dh=0 dv=0
PairPos2: "'kern' Horizontal Kerning in Latin lookup 1 per glyph data 1" W dx=0 dy=0 dh=-25 dv=0 dx=0 dy=0 dh=0 dv=0
PairPos2: "'kern' Horizontal Kerning in Latin lookup 1 per glyph data 1" V dx=0 dy=0 dh=-40 dv=0 dx=0 dy=0 dh=0 dv=0
PairPos2: "'kern' Horizontal Kerning in Latin lookup 1 per glyph data 1" T dx=0 dy=0 dh=-40 dv=0 dx=0 dy=0 dh=0 dv=0
PairPos2: "'kern' Horizontal Kerning in Latin lookup 1 per glyph data 1" quotesingle dx=0 dy=0 dh=-30 dv=0 dx=0 dy=0 dh=0 dv=0
PairPos2: "'kern' Horizontal Kerning in Latin lookup 1 per glyph data 1" quotedbl dx=0 dy=0 dh=-30 dv=0 dx=0 dy=0 dh=0 dv=0
EndChar

StartChar: Ccedilla
Encoding: 199 199 136
Width: 445
GlyphClass: 2
Flags: W
LayerCount: 2
Fore
SplineSet
239 -66 m 2,0,-1
 239 -9 l 1,1,2
 127 -2 127 -2 88.5 65 c 128,-1,3
 50 132 50 132 50 320 c 128,-1,4
 50 508 50 508 94.5 574 c 128,-1,5
 139 640 139 640 274 640 c 0,6,7
 355 640 355 640 410 619 c 1,8,-1
 395 531 l 1,9,10
 327 545 327 545 265.5 545 c 128,-1,11
 204 545 204 545 182 534 c 128,-1,12
 160 523 160 523 160 489 c 2,13,-1
 160 98 l 1,14,15
 207 83 207 83 271 83 c 128,-1,16
 335 83 335 83 410 103 c 1,17,-1
 420 11 l 1,18,19
 369 -7 369 -7 295 -10 c 1,20,21
 318 -41 318 -41 318 -79 c 128,-1,22
 318 -117 318 -117 293.5 -141 c 128,-1,23
 269 -165 269 -165 228.5 -165 c 128,-1,24
 188 -165 188 -165 152 -149 c 1,25,-1
 161 -98 l 1,26,-1
 196 -98 l 2,27,28
 219 -98 219 -98 229 -92 c 128,-1,29
 239 -86 239 -86 239 -66 c 2,0,-1
EndSplineSet
EndChar

StartChar: Egrave
Encoding: 200 200 137
Width: 455
GlyphClass: 2
Flags: W
LayerCount: 2
Fore
SplineSet
370 266 m 1,0,-1
 170 266 l 1,1,-1
 170 90 l 1,2,-1
 415 90 l 1,3,-1
 415 0 l 1,4,-1
 70 0 l 1,5,-1
 70 625 l 1,6,-1
 410 625 l 1,7,-1
 395 535 l 1,8,-1
 170 535 l 1,9,-1
 170 351 l 1,10,-1
 370 351 l 1,11,-1
 370 266 l 1,0,-1
132 749 m 2,12,13
 128 753 128 753 128 756.5 c 128,-1,14
 128 760 128 760 134 768 c 2,15,-1
 178 822 l 2,16,17
 182 827 182 827 185.5 827 c 128,-1,18
 189 827 189 827 194 823 c 2,19,-1
 346 713 l 1,20,-1
 324 679 l 1,21,-1
 184 714 l 2,22,23
 171 717 171 717 162 724 c 2,24,-1
 132 749 l 2,12,13
EndSplineSet
EndChar

StartChar: Eacute
Encoding: 201 201 138
Width: 455
GlyphClass: 2
Flags: W
LayerCount: 2
Fore
SplineSet
370 266 m 1,0,-1
 170 266 l 1,1,-1
 170 90 l 1,2,-1
 415 90 l 1,3,-1
 415 0 l 1,4,-1
 70 0 l 1,5,-1
 70 625 l 1,6,-1
 410 625 l 1,7,-1
 395 535 l 1,8,-1
 170 535 l 1,9,-1
 170 351 l 1,10,-1
 370 351 l 1,11,-1
 370 266 l 1,0,-1
290 818 m 2,12,13
 295 822 295 822 298.5 822 c 128,-1,14
 302 822 302 822 306 817 c 2,15,-1
 350 763 l 2,16,17
 356 755 356 755 356 751.5 c 128,-1,18
 356 748 356 748 352 744 c 2,19,-1
 322 719 l 2,20,21
 313 712 313 712 300 709 c 2,22,-1
 160 674 l 1,23,-1
 138 708 l 1,24,-1
 290 818 l 2,12,13
EndSplineSet
EndChar

StartChar: Ecircumflex
Encoding: 202 202 139
Width: 455
GlyphClass: 2
Flags: W
LayerCount: 2
Fore
SplineSet
370 266 m 1,0,-1
 170 266 l 1,1,-1
 170 90 l 1,2,-1
 415 90 l 1,3,-1
 415 0 l 1,4,-1
 70 0 l 1,5,-1
 70 625 l 1,6,-1
 410 625 l 1,7,-1
 395 535 l 1,8,-1
 170 535 l 1,9,-1
 170 351 l 1,10,-1
 370 351 l 1,11,-1
 370 266 l 1,0,-1
236 836 m 2,12,-1
 254 836 l 2,13,14
 260 836 260 836 264 830 c 1,15,-1
 378 714 l 1,16,-1
 338 680 l 1,17,-1
 245 744 l 1,18,-1
 152 680 l 1,19,-1
 112 714 l 1,20,-1
 226 830 l 1,21,22
 230 836 230 836 236 836 c 2,12,-1
EndSplineSet
EndChar

StartChar: Edieresis
Encoding: 203 203 140
Width: 455
GlyphClass: 2
Flags: W
LayerCount: 2
Fore
SplineSet
370 266 m 1,0,-1
 170 266 l 1,1,-1
 170 90 l 1,2,-1
 415 90 l 1,3,-1
 415 0 l 1,4,-1
 70 0 l 1,5,-1
 70 625 l 1,6,-1
 410 625 l 1,7,-1
 395 535 l 1,8,-1
 170 535 l 1,9,-1
 170 351 l 1,10,-1
 370 351 l 1,11,-1
 370 266 l 1,0,-1
104 756 m 128,-1,13
 104 789 104 789 114 801.5 c 128,-1,14
 124 814 124 814 155.5 814 c 128,-1,15
 187 814 187 814 197 801.5 c 128,-1,16
 207 789 207 789 207 756 c 128,-1,17
 207 723 207 723 197 711 c 128,-1,18
 187 699 187 699 155.5 699 c 128,-1,19
 124 699 124 699 114 711 c 128,-1,12
 104 723 104 723 104 756 c 128,-1,13
287 756 m 128,-1,21
 287 789 287 789 297 801.5 c 128,-1,22
 307 814 307 814 338.5 814 c 128,-1,23
 370 814 370 814 380 801.5 c 128,-1,24
 390 789 390 789 390 756 c 128,-1,25
 390 723 390 723 380 711 c 128,-1,26
 370 699 370 699 338.5 699 c 128,-1,27
 307 699 307 699 297 711 c 128,-1,20
 287 723 287 723 287 756 c 128,-1,21
EndSplineSet
EndChar

StartChar: Igrave
Encoding: 204 204 141
Width: 240
GlyphClass: 2
Flags: W
LayerCount: 2
Fore
SplineSet
70 0 m 1,0,-1
 70 625 l 1,1,-1
 170 625 l 1,2,-1
 170 0 l 1,3,-1
 70 0 l 1,0,-1
-17 749 m 2,4,5
 -21 753 -21 753 -21 756.5 c 128,-1,6
 -21 760 -21 760 -15 768 c 2,7,-1
 29 822 l 2,8,9
 33 827 33 827 36.5 827 c 128,-1,10
 40 827 40 827 45 823 c 2,11,-1
 197 713 l 1,12,-1
 175 679 l 1,13,-1
 35 714 l 2,14,15
 22 717 22 717 13 724 c 2,16,-1
 -17 749 l 2,4,5
EndSplineSet
EndChar

StartChar: Iacute
Encoding: 205 205 142
Width: 240
GlyphClass: 2
Flags: W
LayerCount: 2
Fore
SplineSet
70 0 m 1,0,-1
 70 625 l 1,1,-1
 170 625 l 1,2,-1
 170 0 l 1,3,-1
 70 0 l 1,0,-1
166 818 m 2,4,5
 171 822 171 822 174.5 822 c 128,-1,6
 178 822 178 822 182 817 c 2,7,-1
 226 763 l 2,8,9
 232 755 232 755 232 751.5 c 128,-1,10
 232 748 232 748 228 744 c 2,11,-1
 198 719 l 2,12,13
 189 712 189 712 176 709 c 2,14,-1
 36 674 l 1,15,-1
 14 708 l 1,16,-1
 166 818 l 2,4,5
EndSplineSet
EndChar

StartChar: Icircumflex
Encoding: 206 206 143
Width: 240
GlyphClass: 2
Flags: W
LayerCount: 2
Fore
SplineSet
70 0 m 1,0,-1
 70 625 l 1,1,-1
 170 625 l 1,2,-1
 170 0 l 1,3,-1
 70 0 l 1,0,-1
111 836 m 2,4,-1
 129 836 l 2,5,6
 134 836 134 836 139 830 c 2,7,-1
 253 714 l 1,8,-1
 213 680 l 1,9,-1
 120 744 l 1,10,-1
 27 680 l 1,11,-1
 -13 714 l 1,12,-1
 101 830 l 1,13,14
 105 836 105 836 111 836 c 2,4,-1
EndSplineSet
EndChar

StartChar: Idieresis
Encoding: 207 207 144
Width: 240
GlyphClass: 2
Flags: W
LayerCount: 2
Fore
SplineSet
70 0 m 1,0,-1
 70 625 l 1,1,-1
 170 625 l 1,2,-1
 170 0 l 1,3,-1
 70 0 l 1,0,-1
-23 756 m 128,-1,5
 -23 789 -23 789 -13 801.5 c 128,-1,6
 -3 814 -3 814 28.5 814 c 128,-1,7
 60 814 60 814 70 801.5 c 128,-1,8
 80 789 80 789 80 756 c 128,-1,9
 80 723 80 723 70 711 c 128,-1,10
 60 699 60 699 28.5 699 c 128,-1,11
 -3 699 -3 699 -13 711 c 128,-1,4
 -23 723 -23 723 -23 756 c 128,-1,5
160 756 m 128,-1,13
 160 789 160 789 170 801.5 c 128,-1,14
 180 814 180 814 211.5 814 c 128,-1,15
 243 814 243 814 253 801.5 c 128,-1,16
 263 789 263 789 263 756 c 128,-1,17
 263 723 263 723 253 711 c 128,-1,18
 243 699 243 699 211.5 699 c 128,-1,19
 180 699 180 699 170 711 c 128,-1,12
 160 723 160 723 160 756 c 128,-1,13
EndSplineSet
EndChar

StartChar: Eth
Encoding: 208 208 145
Width: 561
GlyphClass: 2
Flags: W
LayerCount: 2
Fore
SplineSet
70 0 m 1,0,-1
 70 270 l 1,1,-1
 12 270 l 1,2,-1
 12 326 l 2,3,4
 12 351 12 351 50 351 c 2,5,-1
 70 351 l 1,6,-1
 70 625 l 1,7,-1
 264 625 l 2,8,9
 344 625 344 625 389.5 613.5 c 128,-1,10
 435 602 435 602 464 565.5 c 128,-1,11
 493 529 493 529 502 471.5 c 128,-1,12
 511 414 511 414 511 312.5 c 128,-1,13
 511 211 511 211 502 153.5 c 128,-1,14
 493 96 493 96 464 59.5 c 128,-1,15
 435 23 435 23 389.5 11.5 c 128,-1,16
 344 0 344 0 264 0 c 2,17,-1
 70 0 l 1,0,-1
323 535 m 2,18,-1
 170 535 l 1,19,-1
 170 351 l 1,20,-1
 258 351 l 1,21,-1
 258 296 l 2,22,23
 258 275 258 275 234 272 c 0,24,25
 225 270 225 270 208 270 c 2,26,-1
 170 270 l 1,27,-1
 170 90 l 1,28,-1
 323 90 l 2,29,30
 364 90 364 90 382.5 99.5 c 128,-1,31
 401 109 401 109 401 143 c 2,32,-1
 401 482 l 2,33,34
 401 516 401 516 382.5 525.5 c 128,-1,35
 364 535 364 535 323 535 c 2,18,-1
EndSplineSet
EndChar

StartChar: Ntilde
Encoding: 209 209 146
Width: 575
GlyphClass: 2
Flags: W
LayerCount: 2
Fore
SplineSet
170 458 m 1,0,-1
 170 0 l 1,1,-1
 70 0 l 1,2,-1
 70 625 l 1,3,-1
 178 625 l 1,4,-1
 391 215 l 1,5,6
 399 204 399 204 401 167 c 1,7,-1
 405 167 l 1,8,-1
 405 625 l 1,9,-1
 505 625 l 1,10,-1
 505 0 l 1,11,-1
 397 0 l 1,12,-1
 184 410 l 1,13,14
 176 421 176 421 174 458 c 1,15,-1
 170 458 l 1,0,-1
342 695.5 m 128,-1,17
 325 688 325 688 305 688 c 128,-1,18
 285 688 285 688 253 719 c 1,19,-1
 238 731 l 1,20,-1
 172 698 l 1,21,-1
 141 749 l 1,22,-1
 171 770 l 1,23,24
 216 799 216 799 232 806.5 c 128,-1,25
 248 814 248 814 267.5 814 c 128,-1,26
 287 814 287 814 321 783 c 1,27,-1
 336 771 l 1,28,-1
 402 804 l 1,29,-1
 433 753 l 1,30,-1
 403 732 l 1,31,16
 359 703 359 703 342 695.5 c 128,-1,17
EndSplineSet
EndChar

StartChar: Ograve
Encoding: 210 210 147
Width: 581
GlyphClass: 2
Flags: W
LayerCount: 2
Fore
SplineSet
98 51 m 128,-1,1
 50 117 50 117 50 312.5 c 128,-1,2
 50 508 50 508 98 574 c 128,-1,3
 146 640 146 640 290 640 c 128,-1,4
 434 640 434 640 482.5 573.5 c 128,-1,5
 531 507 531 507 531 312 c 128,-1,6
 531 117 531 117 482.5 51 c 128,-1,7
 434 -15 434 -15 290 -15 c 128,-1,0
 146 -15 146 -15 98 51 c 128,-1,1
160 486 m 2,8,-1
 160 86 l 1,9,-1
 343 86 l 2,10,11
 384 86 384 86 402.5 95.5 c 128,-1,12
 421 105 421 105 421 139 c 2,13,-1
 421 539 l 1,14,-1
 237 539 l 2,15,16
 197 539 197 539 178.5 529.5 c 128,-1,17
 160 520 160 520 160 486 c 2,8,-1
152 749 m 2,18,19
 148 753 148 753 148 756.5 c 128,-1,20
 148 760 148 760 154 768 c 2,21,-1
 198 822 l 2,22,23
 202 827 202 827 205.5 827 c 128,-1,24
 209 827 209 827 214 823 c 2,25,-1
 366 713 l 1,26,-1
 344 679 l 1,27,-1
 204 714 l 2,28,29
 191 717 191 717 182 724 c 2,30,-1
 152 749 l 2,18,19
EndSplineSet
EndChar

StartChar: Oacute
Encoding: 211 211 148
Width: 581
GlyphClass: 2
Flags: W
LayerCount: 2
Fore
SplineSet
98 51 m 128,-1,1
 50 117 50 117 50 312.5 c 128,-1,2
 50 508 50 508 98 574 c 128,-1,3
 146 640 146 640 290 640 c 128,-1,4
 434 640 434 640 482.5 573.5 c 128,-1,5
 531 507 531 507 531 312 c 128,-1,6
 531 117 531 117 482.5 51 c 128,-1,7
 434 -15 434 -15 290 -15 c 128,-1,0
 146 -15 146 -15 98 51 c 128,-1,1
160 486 m 2,8,-1
 160 86 l 1,9,-1
 343 86 l 2,10,11
 384 86 384 86 402.5 95.5 c 128,-1,12
 421 105 421 105 421 139 c 2,13,-1
 421 539 l 1,14,-1
 237 539 l 2,15,16
 197 539 197 539 178.5 529.5 c 128,-1,17
 160 520 160 520 160 486 c 2,8,-1
336 818 m 2,18,19
 341 822 341 822 344.5 822 c 128,-1,20
 348 822 348 822 352 817 c 2,21,-1
 396 763 l 2,22,23
 402 755 402 755 402 751.5 c 128,-1,24
 402 748 402 748 398 744 c 2,25,-1
 368 719 l 2,26,27
 359 712 359 712 346 709 c 2,28,-1
 206 674 l 1,29,-1
 184 708 l 1,30,-1
 336 818 l 2,18,19
EndSplineSet
EndChar

StartChar: Ocircumflex
Encoding: 212 212 149
Width: 581
GlyphClass: 2
Flags: W
LayerCount: 2
Fore
SplineSet
98 51 m 128,-1,1
 50 117 50 117 50 312.5 c 128,-1,2
 50 508 50 508 98 574 c 128,-1,3
 146 640 146 640 290 640 c 128,-1,4
 434 640 434 640 482.5 573.5 c 128,-1,5
 531 507 531 507 531 312 c 128,-1,6
 531 117 531 117 482.5 51 c 128,-1,7
 434 -15 434 -15 290 -15 c 128,-1,0
 146 -15 146 -15 98 51 c 128,-1,1
160 486 m 2,8,-1
 160 86 l 1,9,-1
 343 86 l 2,10,11
 384 86 384 86 402.5 95.5 c 128,-1,12
 421 105 421 105 421 139 c 2,13,-1
 421 539 l 1,14,-1
 237 539 l 2,15,16
 197 539 197 539 178.5 529.5 c 128,-1,17
 160 520 160 520 160 486 c 2,8,-1
281 836 m 2,18,-1
 299 836 l 2,19,20
 304 836 304 836 309 830 c 2,21,-1
 423 714 l 1,22,-1
 383 680 l 1,23,-1
 290 744 l 1,24,-1
 197 680 l 1,25,-1
 157 714 l 1,26,-1
 271 830 l 2,27,28
 276 836 276 836 281 836 c 2,18,-1
EndSplineSet
EndChar

StartChar: Otilde
Encoding: 213 213 150
Width: 581
GlyphClass: 2
Flags: W
LayerCount: 2
Fore
SplineSet
98 51 m 128,-1,1
 50 117 50 117 50 312.5 c 128,-1,2
 50 508 50 508 98 574 c 128,-1,3
 146 640 146 640 290 640 c 128,-1,4
 434 640 434 640 482.5 573.5 c 128,-1,5
 531 507 531 507 531 312 c 128,-1,6
 531 117 531 117 482.5 51 c 128,-1,7
 434 -15 434 -15 290 -15 c 128,-1,0
 146 -15 146 -15 98 51 c 128,-1,1
160 486 m 2,8,-1
 160 86 l 1,9,-1
 343 86 l 2,10,11
 384 86 384 86 402.5 95.5 c 128,-1,12
 421 105 421 105 421 139 c 2,13,-1
 421 539 l 1,14,-1
 237 539 l 2,15,16
 197 539 197 539 178.5 529.5 c 128,-1,17
 160 520 160 520 160 486 c 2,8,-1
345 695.5 m 128,-1,19
 328 688 328 688 308 688 c 128,-1,20
 288 688 288 688 256 719 c 1,21,-1
 241 731 l 1,22,-1
 175 698 l 1,23,-1
 144 749 l 1,24,-1
 174 770 l 1,25,26
 219 799 219 799 235 806.5 c 128,-1,27
 251 814 251 814 270.5 814 c 128,-1,28
 290 814 290 814 324 783 c 1,29,-1
 339 771 l 1,30,-1
 405 804 l 1,31,-1
 436 753 l 1,32,-1
 406 732 l 1,33,18
 362 703 362 703 345 695.5 c 128,-1,19
EndSplineSet
EndChar

StartChar: Odieresis
Encoding: 214 214 151
Width: 581
GlyphClass: 2
Flags: W
LayerCount: 2
Fore
SplineSet
98 51 m 128,-1,1
 50 117 50 117 50 312.5 c 128,-1,2
 50 508 50 508 98 574 c 128,-1,3
 146 640 146 640 290 640 c 128,-1,4
 434 640 434 640 482.5 573.5 c 128,-1,5
 531 507 531 507 531 312 c 128,-1,6
 531 117 531 117 482.5 51 c 128,-1,7
 434 -15 434 -15 290 -15 c 128,-1,0
 146 -15 146 -15 98 51 c 128,-1,1
160 486 m 2,8,-1
 160 86 l 1,9,-1
 343 86 l 2,10,11
 384 86 384 86 402.5 95.5 c 128,-1,12
 421 105 421 105 421 139 c 2,13,-1
 421 539 l 1,14,-1
 237 539 l 2,15,16
 197 539 197 539 178.5 529.5 c 128,-1,17
 160 520 160 520 160 486 c 2,8,-1
147 756 m 128,-1,19
 147 789 147 789 157 801.5 c 128,-1,20
 167 814 167 814 198.5 814 c 128,-1,21
 230 814 230 814 240 801.5 c 128,-1,22
 250 789 250 789 250 756 c 128,-1,23
 250 723 250 723 240 711 c 128,-1,24
 230 699 230 699 198.5 699 c 128,-1,25
 167 699 167 699 157 711 c 128,-1,18
 147 723 147 723 147 756 c 128,-1,19
330 756 m 128,-1,27
 330 789 330 789 340 801.5 c 128,-1,28
 350 814 350 814 381.5 814 c 128,-1,29
 413 814 413 814 423 801.5 c 128,-1,30
 433 789 433 789 433 756 c 128,-1,31
 433 723 433 723 423 711 c 128,-1,32
 413 699 413 699 381.5 699 c 128,-1,33
 350 699 350 699 340 711 c 128,-1,26
 330 723 330 723 330 756 c 128,-1,27
EndSplineSet
EndChar

StartChar: multiply
Encoding: 215 215 152
Width: 570
GlyphClass: 2
Flags: W
LayerCount: 2
Fore
SplineSet
166 137 m 1,0,-1
 109 193 l 1,1,-1
 227 311 l 1,2,-1
 109 430 l 1,3,-1
 166 486 l 1,4,-1
 284 368 l 1,5,-1
 403 487 l 1,6,-1
 459 430 l 1,7,-1
 340 311 l 1,8,-1
 459 193 l 1,9,-1
 403 136 l 1,10,-1
 284 255 l 1,11,-1
 166 137 l 1,0,-1
EndSplineSet
EndChar

StartChar: Oslash
Encoding: 216 216 153
Width: 581
GlyphClass: 2
Flags: W
LayerCount: 2
Fore
SplineSet
531 312 m 0,0,1
 531 117 531 117 482.5 51 c 128,-1,2
 434 -15 434 -15 290 -15 c 0,3,4
 217 -15 217 -15 174 -1 c 1,5,-1
 168 -15 l 2,6,7
 163 -25 163 -25 159 -29 c 0,8,9
 148 -40 148 -40 125 -40 c 2,10,-1
 84 -40 l 1,11,-1
 118 30 l 1,12,13
 80 63 80 63 65 129 c 128,-1,14
 50 195 50 195 50 312 c 0,15,16
 50 508 50 508 98 574 c 128,-1,17
 146 640 146 640 290 640 c 0,18,19
 363 640 363 640 406 626 c 1,20,-1
 413 640 l 2,21,22
 418 650 418 650 422 654 c 0,23,24
 433 665 433 665 456 665 c 2,25,-1
 497 665 l 1,26,-1
 463 595 l 1,27,28
 500 561 500 561 515.5 494.5 c 128,-1,29
 531 428 531 428 531 312 c 0,0,1
160 486 m 2,30,-1
 160 117 l 1,31,-1
 364 539 l 1,32,-1
 237 539 l 2,33,34
 197 539 197 539 178.5 529.5 c 128,-1,35
 160 520 160 520 160 486 c 2,30,-1
343 86 m 2,36,37
 384 86 384 86 402.5 95.5 c 128,-1,38
 421 105 421 105 421 139 c 2,39,-1
 421 508 l 1,40,-1
 217 86 l 1,41,-1
 343 86 l 2,36,37
EndSplineSet
EndChar

StartChar: Ugrave
Encoding: 217 217 154
Width: 567
GlyphClass: 2
Flags: W
LayerCount: 2
Fore
SplineSet
502 625 m 1,0,-1
 502 225 l 2,1,2
 502 101 502 101 480 64 c 0,3,4
 454 18 454 18 416 4 c 0,5,6
 363 -15 363 -15 301 -15 c 128,-1,7
 239 -15 239 -15 206 -9.5 c 128,-1,8
 173 -4 173 -4 149.5 4.5 c 128,-1,9
 126 13 126 13 110.5 30 c 128,-1,10
 95 47 95 47 86 63.5 c 128,-1,11
 77 80 77 80 72 108 c 0,12,13
 65 156 65 156 65 225 c 2,14,-1
 65 625 l 1,15,-1
 165 625 l 1,16,-1
 165 86 l 1,17,-1
 288 86 l 2,18,19
 353 86 353 86 377.5 95.5 c 128,-1,20
 402 105 402 105 402 139 c 2,21,-1
 402 625 l 1,22,-1
 502 625 l 1,0,-1
146 749 m 2,23,24
 142 753 142 753 142 756.5 c 128,-1,25
 142 760 142 760 148 768 c 2,26,-1
 192 822 l 2,27,28
 196 827 196 827 199.5 827 c 128,-1,29
 203 827 203 827 208 823 c 2,30,-1
 360 713 l 1,31,-1
 338 679 l 1,32,-1
 198 714 l 2,33,34
 185 717 185 717 176 724 c 2,35,-1
 146 749 l 2,23,24
EndSplineSet
EndChar

StartChar: Uacute
Encoding: 218 218 155
Width: 567
GlyphClass: 2
Flags: W
LayerCount: 2
Fore
SplineSet
502 625 m 1,0,-1
 502 225 l 2,1,2
 502 101 502 101 480 64 c 0,3,4
 454 18 454 18 416 4 c 0,5,6
 363 -15 363 -15 301 -15 c 128,-1,7
 239 -15 239 -15 206 -9.5 c 128,-1,8
 173 -4 173 -4 149.5 4.5 c 128,-1,9
 126 13 126 13 110.5 30 c 128,-1,10
 95 47 95 47 86 63.5 c 128,-1,11
 77 80 77 80 72 108 c 0,12,13
 65 156 65 156 65 225 c 2,14,-1
 65 625 l 1,15,-1
 165 625 l 1,16,-1
 165 86 l 1,17,-1
 288 86 l 2,18,19
 353 86 353 86 377.5 95.5 c 128,-1,20
 402 105 402 105 402 139 c 2,21,-1
 402 625 l 1,22,-1
 502 625 l 1,0,-1
329 818 m 2,23,24
 334 822 334 822 337.5 822 c 128,-1,25
 341 822 341 822 345 817 c 2,26,-1
 389 763 l 2,27,28
 395 755 395 755 395 751.5 c 128,-1,29
 395 748 395 748 391 744 c 2,30,-1
 361 719 l 2,31,32
 352 712 352 712 339 709 c 2,33,-1
 199 674 l 1,34,-1
 177 708 l 1,35,-1
 329 818 l 2,23,24
EndSplineSet
EndChar

StartChar: Ucircumflex
Encoding: 219 219 156
Width: 567
GlyphClass: 2
Flags: W
LayerCount: 2
Fore
SplineSet
502 625 m 1,0,-1
 502 225 l 2,1,2
 502 101 502 101 480 64 c 0,3,4
 454 18 454 18 416 4 c 0,5,6
 363 -15 363 -15 301 -15 c 128,-1,7
 239 -15 239 -15 206 -9.5 c 128,-1,8
 173 -4 173 -4 149.5 4.5 c 128,-1,9
 126 13 126 13 110.5 30 c 128,-1,10
 95 47 95 47 86 63.5 c 128,-1,11
 77 80 77 80 72 108 c 0,12,13
 65 156 65 156 65 225 c 2,14,-1
 65 625 l 1,15,-1
 165 625 l 1,16,-1
 165 86 l 1,17,-1
 288 86 l 2,18,19
 353 86 353 86 377.5 95.5 c 128,-1,20
 402 105 402 105 402 139 c 2,21,-1
 402 625 l 1,22,-1
 502 625 l 1,0,-1
274 836 m 2,23,-1
 292 836 l 2,24,25
 298 836 298 836 302 830 c 1,26,-1
 416 714 l 1,27,-1
 376 680 l 1,28,-1
 283 744 l 1,29,-1
 190 680 l 1,30,-1
 150 714 l 1,31,-1
 264 830 l 1,32,33
 268 836 268 836 274 836 c 2,23,-1
EndSplineSet
EndChar

StartChar: Udieresis
Encoding: 220 220 157
Width: 567
GlyphClass: 2
Flags: W
LayerCount: 2
Fore
SplineSet
502 625 m 1,0,-1
 502 225 l 2,1,2
 502 101 502 101 480 64 c 0,3,4
 454 18 454 18 416 4 c 0,5,6
 363 -15 363 -15 301 -15 c 128,-1,7
 239 -15 239 -15 206 -9.5 c 128,-1,8
 173 -4 173 -4 149.5 4.5 c 128,-1,9
 126 13 126 13 110.5 30 c 128,-1,10
 95 47 95 47 86 63.5 c 128,-1,11
 77 80 77 80 72 108 c 0,12,13
 65 156 65 156 65 225 c 2,14,-1
 65 625 l 1,15,-1
 165 625 l 1,16,-1
 165 86 l 1,17,-1
 288 86 l 2,18,19
 353 86 353 86 377.5 95.5 c 128,-1,20
 402 105 402 105 402 139 c 2,21,-1
 402 625 l 1,22,-1
 502 625 l 1,0,-1
140 756 m 128,-1,24
 140 789 140 789 150 801.5 c 128,-1,25
 160 814 160 814 191.5 814 c 128,-1,26
 223 814 223 814 233 801.5 c 128,-1,27
 243 789 243 789 243 756 c 128,-1,28
 243 723 243 723 233 711 c 128,-1,29
 223 699 223 699 191.5 699 c 128,-1,30
 160 699 160 699 150 711 c 128,-1,23
 140 723 140 723 140 756 c 128,-1,24
323 756 m 128,-1,32
 323 789 323 789 333 801.5 c 128,-1,33
 343 814 343 814 374.5 814 c 128,-1,34
 406 814 406 814 416 801.5 c 128,-1,35
 426 789 426 789 426 756 c 128,-1,36
 426 723 426 723 416 711 c 128,-1,37
 406 699 406 699 374.5 699 c 128,-1,38
 343 699 343 699 333 711 c 128,-1,31
 323 723 323 723 323 756 c 128,-1,32
EndSplineSet
EndChar

StartChar: Yacute
Encoding: 221 221 158
Width: 470
GlyphClass: 2
Flags: W
LayerCount: 2
Fore
SplineSet
285 0 m 1,0,-1
 185 0 l 1,1,-1
 185 200 l 1,2,-1
 10 625 l 1,3,-1
 116 625 l 1,4,-1
 231 315 l 1,5,-1
 238 315 l 1,6,-1
 354 625 l 1,7,-1
 460 625 l 1,8,-1
 285 200 l 1,9,-1
 285 0 l 1,0,-1
296 832 m 2,10,11
 301 836 301 836 304.5 836 c 128,-1,12
 308 836 308 836 312 831 c 2,13,-1
 356 777 l 2,14,15
 362 769 362 769 362 765.5 c 128,-1,16
 362 762 362 762 358 758 c 2,17,-1
 328 733 l 2,18,19
 319 726 319 726 306 723 c 2,20,-1
 166 688 l 1,21,-1
 144 722 l 1,22,-1
 296 832 l 2,10,11
EndSplineSet
EndChar

StartChar: Thorn
Encoding: 222 222 159
Width: 524
GlyphClass: 2
Flags: W
LayerCount: 2
Fore
SplineSet
289 98 m 2,0,-1
 169 98 l 1,1,-1
 169 0 l 1,2,-1
 70 0 l 1,3,-1
 70 625 l 1,4,-1
 169 625 l 1,5,-1
 169 527 l 1,6,-1
 274 527 l 2,7,8
 395 527 395 527 434.5 478 c 128,-1,9
 474 429 474 429 474 318 c 0,10,11
 474 268 474 268 468.5 235 c 128,-1,12
 463 202 463 202 446 168 c 0,13,14
 412 98 412 98 289 98 c 2,0,-1
169 437 m 1,15,-1
 169 188 l 1,16,-1
 295 188 l 2,17,18
 331 188 331 188 347.5 195.5 c 128,-1,19
 364 203 364 203 364 230 c 2,20,-1
 364 395 l 2,21,22
 364 422 364 422 347.5 429.5 c 128,-1,23
 331 437 331 437 295 437 c 2,24,-1
 169 437 l 1,15,-1
EndSplineSet
EndChar

StartChar: germandbls
Encoding: 223 223 160
Width: 625
GlyphClass: 2
Flags: W
LayerCount: 2
Fore
SplineSet
480 196 m 1,0,1
 322 196 322 196 322 290 c 0,2,3
 322 315 322 315 345 346 c 128,-1,4
 368 377 368 377 391.5 414 c 128,-1,5
 415 451 415 451 415 495 c 0,6,7
 415 590 415 590 300 590 c 0,8,9
 264 590 264 590 220 582 c 1,10,-1
 220 0 l 1,11,-1
 120 0 l 1,12,-1
 120 420 l 1,13,-1
 50 420 l 1,14,-1
 50 500 l 1,15,-1
 120 500 l 1,16,-1
 123 540 l 2,17,18
 129 612 129 612 182.5 643.5 c 128,-1,19
 236 675 236 675 312 675 c 0,20,21
 456 675 456 675 495 598 c 0,22,23
 512 565 512 565 512 515 c 0,24,25
 512 419 512 419 410 304 c 1,26,27
 490 304 490 304 542.5 263.5 c 128,-1,28
 595 223 595 223 595 142 c 128,-1,29
 595 61 595 61 540 23 c 128,-1,30
 485 -15 485 -15 409.5 -15 c 128,-1,31
 334 -15 334 -15 258 8 c 1,32,-1
 286 106 l 1,33,34
 353 82 353 82 399 82 c 128,-1,35
 445 82 445 82 480 89 c 1,36,-1
 480 196 l 1,0,1
EndSplineSet
EndChar

StartChar: agrave
Encoding: 224 224 161
Width: 533
GlyphClass: 2
Flags: W
LayerCount: 2
Fore
SplineSet
156 81 m 1,0,-1
 270 81 l 2,1,2
 314 81 314 81 331.5 92 c 128,-1,3
 349 103 349 103 349 139 c 2,4,-1
 349 228 l 1,5,-1
 235 228 l 2,6,7
 191 228 191 228 173.5 217 c 128,-1,8
 156 206 156 206 156 170 c 2,9,-1
 156 81 l 1,0,-1
201 -10 m 0,10,11
 55 -10 55 -10 55 145 c 0,12,13
 55 235 55 235 113.5 273.5 c 128,-1,14
 172 312 172 312 285 312 c 2,15,-1
 349 312 l 1,16,-1
 349 412 l 1,17,18
 318 416 318 416 274 416 c 0,19,20
 172 416 172 416 112 395 c 1,21,-1
 100 479 l 1,22,23
 193 510 193 510 278.5 510 c 128,-1,24
 364 510 364 510 406 481.5 c 128,-1,25
 448 453 448 453 448 369 c 2,26,-1
 448 0 l 1,27,-1
 402 0 l 1,28,-1
 375 50 l 1,29,30
 308 -10 308 -10 201 -10 c 0,10,11
158 624 m 2,31,32
 154 628 154 628 154 631.5 c 128,-1,33
 154 635 154 635 160 643 c 2,34,-1
 204 697 l 2,35,36
 208 702 208 702 211.5 702 c 128,-1,37
 215 702 215 702 220 698 c 2,38,-1
 372 588 l 1,39,-1
 350 554 l 1,40,-1
 210 589 l 2,41,42
 197 592 197 592 188 599 c 2,43,-1
 158 624 l 2,31,32
EndSplineSet
EndChar

StartChar: aacute
Encoding: 225 225 162
Width: 533
GlyphClass: 2
Flags: W
LayerCount: 2
Fore
SplineSet
156 81 m 1,0,-1
 270 81 l 2,1,2
 314 81 314 81 331.5 92 c 128,-1,3
 349 103 349 103 349 139 c 2,4,-1
 349 228 l 1,5,-1
 235 228 l 2,6,7
 191 228 191 228 173.5 217 c 128,-1,8
 156 206 156 206 156 170 c 2,9,-1
 156 81 l 1,0,-1
201 -10 m 0,10,11
 55 -10 55 -10 55 145 c 0,12,13
 55 235 55 235 113.5 273.5 c 128,-1,14
 172 312 172 312 285 312 c 2,15,-1
 349 312 l 1,16,-1
 349 412 l 1,17,18
 318 416 318 416 274 416 c 0,19,20
 172 416 172 416 112 395 c 1,21,-1
 100 479 l 1,22,23
 193 510 193 510 278.5 510 c 128,-1,24
 364 510 364 510 406 481.5 c 128,-1,25
 448 453 448 453 448 369 c 2,26,-1
 448 0 l 1,27,-1
 402 0 l 1,28,-1
 375 50 l 1,29,30
 308 -10 308 -10 201 -10 c 0,10,11
342 708 m 2,31,32
 347 712 347 712 350.5 712 c 128,-1,33
 354 712 354 712 358 707 c 2,34,-1
 402 653 l 2,35,36
 408 645 408 645 408 641.5 c 128,-1,37
 408 638 408 638 404 634 c 2,38,-1
 374 609 l 2,39,40
 365 602 365 602 352 599 c 2,41,-1
 212 564 l 1,42,-1
 190 598 l 1,43,-1
 342 708 l 2,31,32
EndSplineSet
EndChar

StartChar: acircumflex
Encoding: 226 226 163
Width: 533
GlyphClass: 2
Flags: W
LayerCount: 2
Fore
SplineSet
156 81 m 1,0,-1
 270 81 l 2,1,2
 314 81 314 81 331.5 92 c 128,-1,3
 349 103 349 103 349 139 c 2,4,-1
 349 228 l 1,5,-1
 235 228 l 2,6,7
 191 228 191 228 173.5 217 c 128,-1,8
 156 206 156 206 156 170 c 2,9,-1
 156 81 l 1,0,-1
201 -10 m 0,10,11
 55 -10 55 -10 55 145 c 0,12,13
 55 235 55 235 113.5 273.5 c 128,-1,14
 172 312 172 312 285 312 c 2,15,-1
 349 312 l 1,16,-1
 349 412 l 1,17,18
 318 416 318 416 274 416 c 0,19,20
 172 416 172 416 112 395 c 1,21,-1
 100 479 l 1,22,23
 193 510 193 510 278.5 510 c 128,-1,24
 364 510 364 510 406 481.5 c 128,-1,25
 448 453 448 453 448 369 c 2,26,-1
 448 0 l 1,27,-1
 402 0 l 1,28,-1
 375 50 l 1,29,30
 308 -10 308 -10 201 -10 c 0,10,11
252 712 m 2,31,-1
 270 712 l 2,32,33
 276 712 276 712 280 706 c 1,34,-1
 394 590 l 1,35,-1
 354 556 l 1,36,-1
 261 620 l 1,37,-1
 168 556 l 1,38,-1
 128 590 l 1,39,-1
 242 706 l 1,40,41
 246 712 246 712 252 712 c 2,31,-1
EndSplineSet
EndChar

StartChar: atilde
Encoding: 227 227 164
Width: 533
GlyphClass: 2
Flags: W
LayerCount: 2
Fore
SplineSet
156 81 m 1,0,-1
 270 81 l 2,1,2
 314 81 314 81 331.5 92 c 128,-1,3
 349 103 349 103 349 139 c 2,4,-1
 349 228 l 1,5,-1
 235 228 l 2,6,7
 191 228 191 228 173.5 217 c 128,-1,8
 156 206 156 206 156 170 c 2,9,-1
 156 81 l 1,0,-1
201 -10 m 0,10,11
 55 -10 55 -10 55 145 c 0,12,13
 55 235 55 235 113.5 273.5 c 128,-1,14
 172 312 172 312 285 312 c 2,15,-1
 349 312 l 1,16,-1
 349 412 l 1,17,18
 318 416 318 416 274 416 c 0,19,20
 172 416 172 416 112 395 c 1,21,-1
 100 479 l 1,22,23
 193 510 193 510 278.5 510 c 128,-1,24
 364 510 364 510 406 481.5 c 128,-1,25
 448 453 448 453 448 369 c 2,26,-1
 448 0 l 1,27,-1
 402 0 l 1,28,-1
 375 50 l 1,29,30
 308 -10 308 -10 201 -10 c 0,10,11
317 571.5 m 128,-1,32
 300 564 300 564 280 564 c 128,-1,33
 260 564 260 564 228 595 c 1,34,-1
 213 607 l 1,35,-1
 147 574 l 1,36,-1
 116 625 l 1,37,-1
 146 646 l 1,38,39
 191 675 191 675 207 682.5 c 128,-1,40
 223 690 223 690 242.5 690 c 128,-1,41
 262 690 262 690 296 659 c 1,42,-1
 311 647 l 1,43,-1
 377 680 l 1,44,-1
 408 629 l 1,45,-1
 378 608 l 1,46,31
 334 579 334 579 317 571.5 c 128,-1,32
EndSplineSet
EndChar

StartChar: adieresis
Encoding: 228 228 165
Width: 533
GlyphClass: 2
Flags: W
LayerCount: 2
Fore
SplineSet
156 81 m 1,0,-1
 270 81 l 2,1,2
 314 81 314 81 331.5 92 c 128,-1,3
 349 103 349 103 349 139 c 2,4,-1
 349 228 l 1,5,-1
 235 228 l 2,6,7
 191 228 191 228 173.5 217 c 128,-1,8
 156 206 156 206 156 170 c 2,9,-1
 156 81 l 1,0,-1
201 -10 m 0,10,11
 55 -10 55 -10 55 145 c 0,12,13
 55 235 55 235 113.5 273.5 c 128,-1,14
 172 312 172 312 285 312 c 2,15,-1
 349 312 l 1,16,-1
 349 412 l 1,17,18
 318 416 318 416 274 416 c 0,19,20
 172 416 172 416 112 395 c 1,21,-1
 100 479 l 1,22,23
 193 510 193 510 278.5 510 c 128,-1,24
 364 510 364 510 406 481.5 c 128,-1,25
 448 453 448 453 448 369 c 2,26,-1
 448 0 l 1,27,-1
 402 0 l 1,28,-1
 375 50 l 1,29,30
 308 -10 308 -10 201 -10 c 0,10,11
133 632 m 128,-1,32
 133 665 133 665 143 677.5 c 128,-1,33
 153 690 153 690 184.5 690 c 128,-1,34
 216 690 216 690 226 677.5 c 128,-1,35
 236 665 236 665 236 632 c 128,-1,36
 236 599 236 599 226 587 c 128,-1,37
 216 575 216 575 184.5 575 c 128,-1,38
 153 575 153 575 143 587 c 128,-1,31
 133 599 133 599 133 632 c 128,-1,32
316 632 m 128,-1,40
 316 665 316 665 326 677.5 c 128,-1,41
 336 690 336 690 367.5 690 c 128,-1,42
 399 690 399 690 409 677.5 c 128,-1,43
 419 665 419 665 419 632 c 128,-1,44
 419 599 419 599 409 587 c 128,-1,45
 399 575 399 575 367.5 575 c 128,-1,46
 336 575 336 575 326 587 c 128,-1,39
 316 599 316 599 316 632 c 128,-1,40
EndSplineSet
EndChar

StartChar: aring
Encoding: 229 229 166
Width: 533
GlyphClass: 2
Flags: W
LayerCount: 2
Fore
SplineSet
156 81 m 1,0,-1
 270 81 l 2,1,2
 314 81 314 81 331.5 92 c 128,-1,3
 349 103 349 103 349 139 c 2,4,-1
 349 228 l 1,5,-1
 235 228 l 2,6,7
 191 228 191 228 173.5 217 c 128,-1,8
 156 206 156 206 156 170 c 2,9,-1
 156 81 l 1,0,-1
201 -10 m 0,10,11
 55 -10 55 -10 55 145 c 0,12,13
 55 235 55 235 113.5 273.5 c 128,-1,14
 172 312 172 312 285 312 c 2,15,-1
 349 312 l 1,16,-1
 349 412 l 1,17,18
 318 416 318 416 274 416 c 0,19,20
 172 416 172 416 112 395 c 1,21,-1
 100 479 l 1,22,23
 193 510 193 510 278.5 510 c 128,-1,24
 364 510 364 510 406 481.5 c 128,-1,25
 448 453 448 453 448 369 c 2,26,-1
 448 0 l 1,27,-1
 402 0 l 1,28,-1
 375 50 l 1,29,30
 308 -10 308 -10 201 -10 c 0,10,11
178 638 m 128,-1,32
 178 688 178 688 201.5 712 c 128,-1,33
 225 736 225 736 277 736 c 128,-1,34
 329 736 329 736 352 712 c 128,-1,35
 375 688 375 688 375 638 c 128,-1,36
 375 588 375 588 352 563.5 c 128,-1,37
 329 539 329 539 277 539 c 128,-1,38
 225 539 225 539 201.5 563.5 c 128,-1,31
 178 588 178 588 178 638 c 128,-1,32
234 659 m 2,39,-1
 234 591 l 1,40,-1
 276 591 l 2,41,42
 291 591 291 591 298 592 c 0,43,44
 318 595 318 595 318 617 c 2,45,-1
 318 684 l 1,46,-1
 279 684 l 2,47,48
 249 684 249 684 241.5 677 c 128,-1,49
 234 670 234 670 234 659 c 2,39,-1
EndSplineSet
EndChar

StartChar: ae
Encoding: 230 230 167
Width: 803
GlyphClass: 2
Flags: W
LayerCount: 2
Fore
SplineSet
726 20 m 1,0,1
 642 -8 642 -8 558.5 -8 c 128,-1,2
 475 -8 475 -8 436 4.5 c 128,-1,3
 397 17 397 17 375 50 c 1,4,5
 308 -10 308 -10 201 -10 c 0,6,7
 55 -10 55 -10 55 145 c 0,8,9
 55 235 55 235 113.5 273.5 c 128,-1,10
 172 312 172 312 285 312 c 2,11,-1
 349 312 l 1,12,-1
 349 412 l 1,13,14
 318 416 318 416 274 416 c 0,15,16
 172 416 172 416 112 395 c 1,17,-1
 100 479 l 1,18,19
 193 510 193 510 280 510 c 128,-1,20
 367 510 367 510 406 467 c 1,21,22
 451 515 451 515 555.5 515 c 128,-1,23
 660 515 660 515 701.5 482.5 c 128,-1,24
 743 450 743 450 743 350 c 0,25,26
 743 285 743 285 731.5 263.5 c 128,-1,27
 720 242 720 242 711.5 230.5 c 128,-1,28
 703 219 703 219 682 211 c 128,-1,29
 661 203 661 203 643.5 199 c 128,-1,30
 626 195 626 195 592 192 c 0,31,32
 543 189 543 189 448 189 c 1,33,-1
 448 90 l 1,34,35
 494 79 494 79 558 79 c 128,-1,36
 622 79 622 79 708 103 c 1,37,-1
 726 20 l 1,0,1
641 420 m 1,38,-1
 527 420 l 2,39,40
 485 420 485 420 466.5 409.5 c 128,-1,41
 448 399 448 399 448 369 c 2,42,-1
 448 273 l 1,43,-1
 562 273 l 2,44,45
 606 273 606 273 623.5 284 c 128,-1,46
 641 295 641 295 641 331 c 2,47,-1
 641 420 l 1,38,-1
156 81 m 1,48,-1
 270 81 l 2,49,50
 314 81 314 81 331.5 92 c 128,-1,51
 349 103 349 103 349 139 c 2,52,-1
 349 228 l 1,53,-1
 235 228 l 2,54,55
 191 228 191 228 173.5 217 c 128,-1,56
 156 206 156 206 156 170 c 2,57,-1
 156 81 l 1,48,-1
EndSplineSet
EndChar

StartChar: ccedilla
Encoding: 231 231 168
Width: 417
GlyphClass: 2
Flags: W
LayerCount: 2
Fore
SplineSet
221 -66 m 2,0,-1
 221 -8 l 1,1,2
 133 -2 133 -2 100.5 52.5 c 128,-1,3
 68 107 68 107 68 255.5 c 128,-1,4
 68 404 68 404 111.5 457 c 128,-1,5
 155 510 155 510 268 510 c 0,6,7
 331 510 331 510 385 492 c 1,8,-1
 363 408 l 1,9,10
 302 419 302 419 266 419 c 0,11,12
 177 419 177 419 177 347 c 2,13,-1
 177 82 l 1,14,15
 215 77 215 77 266 77 c 128,-1,16
 317 77 317 77 375 95 c 1,17,-1
 387 10 l 1,18,19
 341 -6 341 -6 276 -9 c 1,20,21
 300 -40 300 -40 300 -78.5 c 128,-1,22
 300 -117 300 -117 275.5 -141 c 128,-1,23
 251 -165 251 -165 210.5 -165 c 128,-1,24
 170 -165 170 -165 134 -149 c 1,25,-1
 143 -98 l 1,26,-1
 178 -98 l 2,27,28
 201 -98 201 -98 211 -92 c 128,-1,29
 221 -86 221 -86 221 -66 c 2,0,-1
EndSplineSet
EndChar

StartChar: egrave
Encoding: 232 232 169
Width: 533
GlyphClass: 2
Flags: W
LayerCount: 2
Fore
SplineSet
371 420 m 1,0,-1
 257 420 l 2,1,2
 213 420 213 420 195.5 409 c 128,-1,3
 178 398 178 398 178 362 c 2,4,-1
 178 273 l 1,5,-1
 292 273 l 2,6,7
 336 273 336 273 353.5 284 c 128,-1,8
 371 295 371 295 371 331 c 2,9,-1
 371 420 l 1,0,-1
456 20 m 1,10,11
 372 -8 372 -8 281 -8 c 128,-1,12
 190 -8 190 -8 148.5 13 c 128,-1,13
 107 34 107 34 87.5 89 c 128,-1,14
 68 144 68 144 68 250 c 0,15,16
 68 405 68 405 113.5 460 c 128,-1,17
 159 515 159 515 274.5 515 c 128,-1,18
 390 515 390 515 431.5 482.5 c 128,-1,19
 473 450 473 450 473 350 c 0,20,21
 473 285 473 285 461.5 263.5 c 128,-1,22
 450 242 450 242 441.5 230.5 c 128,-1,23
 433 219 433 219 412 211 c 128,-1,24
 391 203 391 203 373.5 199 c 128,-1,25
 356 195 356 195 322 192 c 0,26,27
 273 189 273 189 178 189 c 1,28,-1
 178 90 l 1,29,30
 224 79 224 79 288 79 c 128,-1,31
 352 79 352 79 438 103 c 1,32,-1
 456 20 l 1,10,11
160 624 m 2,33,34
 156 628 156 628 156 631.5 c 128,-1,35
 156 635 156 635 162 643 c 2,36,-1
 206 697 l 2,37,38
 210 702 210 702 213.5 702 c 128,-1,39
 217 702 217 702 222 698 c 2,40,-1
 374 588 l 1,41,-1
 352 554 l 1,42,-1
 212 589 l 2,43,44
 199 592 199 592 190 599 c 2,45,-1
 160 624 l 2,33,34
EndSplineSet
EndChar

StartChar: eacute
Encoding: 233 233 170
Width: 533
GlyphClass: 2
Flags: W
LayerCount: 2
Fore
SplineSet
371 420 m 1,0,-1
 257 420 l 2,1,2
 213 420 213 420 195.5 409 c 128,-1,3
 178 398 178 398 178 362 c 2,4,-1
 178 273 l 1,5,-1
 292 273 l 2,6,7
 336 273 336 273 353.5 284 c 128,-1,8
 371 295 371 295 371 331 c 2,9,-1
 371 420 l 1,0,-1
456 20 m 1,10,11
 372 -8 372 -8 281 -8 c 128,-1,12
 190 -8 190 -8 148.5 13 c 128,-1,13
 107 34 107 34 87.5 89 c 128,-1,14
 68 144 68 144 68 250 c 0,15,16
 68 405 68 405 113.5 460 c 128,-1,17
 159 515 159 515 274.5 515 c 128,-1,18
 390 515 390 515 431.5 482.5 c 128,-1,19
 473 450 473 450 473 350 c 0,20,21
 473 285 473 285 461.5 263.5 c 128,-1,22
 450 242 450 242 441.5 230.5 c 128,-1,23
 433 219 433 219 412 211 c 128,-1,24
 391 203 391 203 373.5 199 c 128,-1,25
 356 195 356 195 322 192 c 0,26,27
 273 189 273 189 178 189 c 1,28,-1
 178 90 l 1,29,30
 224 79 224 79 288 79 c 128,-1,31
 352 79 352 79 438 103 c 1,32,-1
 456 20 l 1,10,11
348 708 m 2,33,34
 353 712 353 712 356.5 712 c 128,-1,35
 360 712 360 712 364 707 c 2,36,-1
 408 653 l 2,37,38
 414 645 414 645 414 641.5 c 128,-1,39
 414 638 414 638 410 634 c 2,40,-1
 380 609 l 2,41,42
 371 602 371 602 358 599 c 2,43,-1
 218 564 l 1,44,-1
 196 598 l 1,45,-1
 348 708 l 2,33,34
EndSplineSet
EndChar

StartChar: ecircumflex
Encoding: 234 234 171
Width: 533
GlyphClass: 2
Flags: W
LayerCount: 2
Fore
SplineSet
371 420 m 1,0,-1
 257 420 l 2,1,2
 213 420 213 420 195.5 409 c 128,-1,3
 178 398 178 398 178 362 c 2,4,-1
 178 273 l 1,5,-1
 292 273 l 2,6,7
 336 273 336 273 353.5 284 c 128,-1,8
 371 295 371 295 371 331 c 2,9,-1
 371 420 l 1,0,-1
456 20 m 1,10,11
 372 -8 372 -8 281 -8 c 128,-1,12
 190 -8 190 -8 148.5 13 c 128,-1,13
 107 34 107 34 87.5 89 c 128,-1,14
 68 144 68 144 68 250 c 0,15,16
 68 405 68 405 113.5 460 c 128,-1,17
 159 515 159 515 274.5 515 c 128,-1,18
 390 515 390 515 431.5 482.5 c 128,-1,19
 473 450 473 450 473 350 c 0,20,21
 473 285 473 285 461.5 263.5 c 128,-1,22
 450 242 450 242 441.5 230.5 c 128,-1,23
 433 219 433 219 412 211 c 128,-1,24
 391 203 391 203 373.5 199 c 128,-1,25
 356 195 356 195 322 192 c 0,26,27
 273 189 273 189 178 189 c 1,28,-1
 178 90 l 1,29,30
 224 79 224 79 288 79 c 128,-1,31
 352 79 352 79 438 103 c 1,32,-1
 456 20 l 1,10,11
258 712 m 2,33,-1
 276 712 l 2,34,35
 282 712 282 712 286 706 c 1,36,-1
 400 590 l 1,37,-1
 360 556 l 1,38,-1
 267 620 l 1,39,-1
 174 556 l 1,40,-1
 134 590 l 1,41,-1
 248 706 l 1,42,43
 252 712 252 712 258 712 c 2,33,-1
EndSplineSet
EndChar

StartChar: edieresis
Encoding: 235 235 172
Width: 533
GlyphClass: 2
Flags: W
LayerCount: 2
Fore
SplineSet
371 420 m 1,0,-1
 257 420 l 2,1,2
 213 420 213 420 195.5 409 c 128,-1,3
 178 398 178 398 178 362 c 2,4,-1
 178 273 l 1,5,-1
 292 273 l 2,6,7
 336 273 336 273 353.5 284 c 128,-1,8
 371 295 371 295 371 331 c 2,9,-1
 371 420 l 1,0,-1
456 20 m 1,10,11
 372 -8 372 -8 281 -8 c 128,-1,12
 190 -8 190 -8 148.5 13 c 128,-1,13
 107 34 107 34 87.5 89 c 128,-1,14
 68 144 68 144 68 250 c 0,15,16
 68 405 68 405 113.5 460 c 128,-1,17
 159 515 159 515 274.5 515 c 128,-1,18
 390 515 390 515 431.5 482.5 c 128,-1,19
 473 450 473 450 473 350 c 0,20,21
 473 285 473 285 461.5 263.5 c 128,-1,22
 450 242 450 242 441.5 230.5 c 128,-1,23
 433 219 433 219 412 211 c 128,-1,24
 391 203 391 203 373.5 199 c 128,-1,25
 356 195 356 195 322 192 c 0,26,27
 273 189 273 189 178 189 c 1,28,-1
 178 90 l 1,29,30
 224 79 224 79 288 79 c 128,-1,31
 352 79 352 79 438 103 c 1,32,-1
 456 20 l 1,10,11
125 632 m 128,-1,34
 125 665 125 665 135 677.5 c 128,-1,35
 145 690 145 690 176.5 690 c 128,-1,36
 208 690 208 690 218 677.5 c 128,-1,37
 228 665 228 665 228 632 c 128,-1,38
 228 599 228 599 218 587 c 128,-1,39
 208 575 208 575 176.5 575 c 128,-1,40
 145 575 145 575 135 587 c 128,-1,33
 125 599 125 599 125 632 c 128,-1,34
308 632 m 128,-1,42
 308 665 308 665 318 677.5 c 128,-1,43
 328 690 328 690 359.5 690 c 128,-1,44
 391 690 391 690 401 677.5 c 128,-1,45
 411 665 411 665 411 632 c 128,-1,46
 411 599 411 599 401 587 c 128,-1,47
 391 575 391 575 359.5 575 c 128,-1,48
 328 575 328 575 318 587 c 128,-1,41
 308 599 308 599 308 632 c 128,-1,42
EndSplineSet
EndChar

StartChar: igrave
Encoding: 236 236 173
Width: 280
GlyphClass: 2
Flags: W
LayerCount: 2
Fore
SplineSet
10 624 m 2,0,1
 6 628 6 628 6 631.5 c 128,-1,2
 6 635 6 635 12 643 c 2,3,-1
 56 697 l 2,4,5
 60 702 60 702 63.5 702 c 128,-1,6
 67 702 67 702 72 698 c 2,7,-1
 224 588 l 1,8,-1
 202 554 l 1,9,-1
 62 589 l 2,10,11
 49 592 49 592 40 599 c 2,12,-1
 10 624 l 2,0,1
90 0 m 1,13,-1
 90 493 l 1,14,-1
 190 508 l 1,15,-1
 190 0 l 1,16,-1
 90 0 l 1,13,-1
EndSplineSet
EndChar

StartChar: iacute
Encoding: 237 237 174
Width: 280
GlyphClass: 2
Flags: W
LayerCount: 2
Fore
SplineSet
227 708 m 2,0,1
 232 712 232 712 235.5 712 c 128,-1,2
 239 712 239 712 243 707 c 2,3,-1
 287 653 l 2,4,5
 293 645 293 645 293 641.5 c 128,-1,6
 293 638 293 638 289 634 c 2,7,-1
 259 609 l 2,8,9
 250 602 250 602 237 599 c 2,10,-1
 97 564 l 1,11,-1
 75 598 l 1,12,-1
 227 708 l 2,0,1
90 0 m 1,13,-1
 90 493 l 1,14,-1
 190 508 l 1,15,-1
 190 0 l 1,16,-1
 90 0 l 1,13,-1
EndSplineSet
EndChar

StartChar: icircumflex
Encoding: 238 238 175
Width: 280
GlyphClass: 2
Flags: W
LayerCount: 2
Fore
SplineSet
138 712 m 2,0,-1
 156 712 l 2,1,2
 162 712 162 712 166 706 c 1,3,-1
 280 590 l 1,4,-1
 240 556 l 1,5,-1
 147 620 l 1,6,-1
 54 556 l 1,7,-1
 14 590 l 1,8,-1
 128 706 l 1,9,10
 132 712 132 712 138 712 c 2,0,-1
90 0 m 1,11,-1
 90 493 l 1,12,-1
 190 508 l 1,13,-1
 190 0 l 1,14,-1
 90 0 l 1,11,-1
EndSplineSet
EndChar

StartChar: idieresis
Encoding: 239 239 176
Width: 280
GlyphClass: 2
Flags: W
LayerCount: 2
Fore
SplineSet
90 0 m 1,0,-1
 90 493 l 1,1,-1
 190 508 l 1,2,-1
 190 0 l 1,3,-1
 90 0 l 1,0,-1
4 632 m 128,-1,5
 4 665 4 665 14 677.5 c 128,-1,6
 24 690 24 690 55.5 690 c 128,-1,7
 87 690 87 690 97 677.5 c 128,-1,8
 107 665 107 665 107 632 c 128,-1,9
 107 599 107 599 97 587 c 128,-1,10
 87 575 87 575 55.5 575 c 128,-1,11
 24 575 24 575 14 587 c 128,-1,4
 4 599 4 599 4 632 c 128,-1,5
187 632 m 128,-1,13
 187 665 187 665 197 677.5 c 128,-1,14
 207 690 207 690 238.5 690 c 128,-1,15
 270 690 270 690 280 677.5 c 128,-1,16
 290 665 290 665 290 632 c 128,-1,17
 290 599 290 599 280 587 c 128,-1,18
 270 575 270 575 238.5 575 c 128,-1,19
 207 575 207 575 197 587 c 128,-1,12
 187 599 187 599 187 632 c 128,-1,13
EndSplineSet
EndChar

StartChar: eth
Encoding: 240 240 177
Width: 514
GlyphClass: 2
Flags: W
LayerCount: 2
Fore
SplineSet
398 588 m 0,0,1
 398 572 398 572 367 561 c 2,2,-1
 331 549 l 1,3,-1
 390 456 l 2,4,5
 464 338 464 338 464 216.5 c 128,-1,6
 464 95 464 95 421 40 c 128,-1,7
 378 -15 378 -15 257 -15 c 128,-1,8
 136 -15 136 -15 93 40 c 128,-1,9
 50 95 50 95 50 214.5 c 128,-1,10
 50 334 50 334 109.5 389.5 c 128,-1,11
 169 445 169 445 297 445 c 1,12,-1
 248 521 l 1,13,-1
 159 492 l 1,14,-1
 144 536 l 2,15,16
 142 544 142 544 142 546 c 0,17,18
 142 562 142 562 173 573 c 2,19,-1
 208 585 l 1,20,-1
 165 654 l 1,21,-1
 258 665 l 1,22,-1
 291 612 l 1,23,-1
 381 642 l 1,24,-1
 396 598 l 2,25,26
 398 590 398 590 398 588 c 0,0,1
159 81 m 1,27,-1
 276 81 l 2,28,29
 320 81 320 81 337.5 92 c 128,-1,30
 355 103 355 103 355 139 c 2,31,-1
 355 349 l 1,32,-1
 238 349 l 2,33,34
 194 349 194 349 176.5 338 c 128,-1,35
 159 327 159 327 159 291 c 2,36,-1
 159 81 l 1,27,-1
EndSplineSet
EndChar

StartChar: ntilde
Encoding: 241 241 178
Width: 555
GlyphClass: 2
Flags: W
LayerCount: 2
Fore
SplineSet
370 510 m 0,0,1
 421 510 421 510 445.5 488.5 c 128,-1,2
 470 467 470 467 470 410 c 2,3,-1
 470 0 l 1,4,-1
 370 0 l 1,5,-1
 370 408 l 1,6,-1
 269 408 l 2,7,8
 225 408 225 408 207.5 397 c 128,-1,9
 190 386 190 386 190 350 c 2,10,-1
 190 0 l 1,11,-1
 90 0 l 1,12,-1
 90 500 l 1,13,-1
 136 500 l 1,14,-1
 173 440 l 1,15,16
 277 510 277 510 370 510 c 0,0,1
332 571.5 m 128,-1,18
 315 564 315 564 295 564 c 128,-1,19
 275 564 275 564 243 595 c 1,20,-1
 228 607 l 1,21,-1
 162 574 l 1,22,-1
 131 625 l 1,23,-1
 161 646 l 1,24,25
 206 675 206 675 222 682.5 c 128,-1,26
 238 690 238 690 257.5 690 c 128,-1,27
 277 690 277 690 311 659 c 1,28,-1
 326 647 l 1,29,-1
 392 680 l 1,30,-1
 423 629 l 1,31,-1
 393 608 l 1,32,17
 349 579 349 579 332 571.5 c 128,-1,18
EndSplineSet
EndChar

StartChar: ograve
Encoding: 242 242 179
Width: 550
GlyphClass: 2
Flags: W
LayerCount: 2
Fore
SplineSet
68 250 m 128,-1,1
 68 391 68 391 111 453 c 128,-1,2
 154 515 154 515 275 515 c 128,-1,3
 396 515 396 515 439 453 c 128,-1,4
 482 391 482 391 482 250 c 128,-1,5
 482 109 482 109 439 47 c 128,-1,6
 396 -15 396 -15 275 -15 c 128,-1,7
 154 -15 154 -15 111 47 c 128,-1,0
 68 109 68 109 68 250 c 128,-1,1
177 81 m 1,8,-1
 294 81 l 2,9,10
 338 81 338 81 355.5 92 c 128,-1,11
 373 103 373 103 373 139 c 2,12,-1
 373 419 l 1,13,-1
 256 419 l 2,14,15
 212 419 212 419 194.5 408 c 128,-1,16
 177 397 177 397 177 361 c 2,17,-1
 177 81 l 1,8,-1
137 624 m 2,18,19
 133 628 133 628 133 631.5 c 128,-1,20
 133 635 133 635 139 643 c 2,21,-1
 183 697 l 2,22,23
 187 702 187 702 190.5 702 c 128,-1,24
 194 702 194 702 199 698 c 2,25,-1
 351 588 l 1,26,-1
 329 554 l 1,27,-1
 189 589 l 2,28,29
 176 592 176 592 167 599 c 2,30,-1
 137 624 l 2,18,19
EndSplineSet
EndChar

StartChar: oacute
Encoding: 243 243 180
Width: 550
GlyphClass: 2
Flags: W
LayerCount: 2
Fore
SplineSet
68 250 m 128,-1,1
 68 391 68 391 111 453 c 128,-1,2
 154 515 154 515 275 515 c 128,-1,3
 396 515 396 515 439 453 c 128,-1,4
 482 391 482 391 482 250 c 128,-1,5
 482 109 482 109 439 47 c 128,-1,6
 396 -15 396 -15 275 -15 c 128,-1,7
 154 -15 154 -15 111 47 c 128,-1,0
 68 109 68 109 68 250 c 128,-1,1
177 81 m 1,8,-1
 294 81 l 2,9,10
 338 81 338 81 355.5 92 c 128,-1,11
 373 103 373 103 373 139 c 2,12,-1
 373 419 l 1,13,-1
 256 419 l 2,14,15
 212 419 212 419 194.5 408 c 128,-1,16
 177 397 177 397 177 361 c 2,17,-1
 177 81 l 1,8,-1
355 708 m 2,18,19
 360 712 360 712 363.5 712 c 128,-1,20
 367 712 367 712 371 707 c 2,21,-1
 415 653 l 2,22,23
 421 645 421 645 421 641.5 c 128,-1,24
 421 638 421 638 417 634 c 2,25,-1
 387 609 l 2,26,27
 378 602 378 602 365 599 c 2,28,-1
 225 564 l 1,29,-1
 203 598 l 1,30,-1
 355 708 l 2,18,19
EndSplineSet
EndChar

StartChar: ocircumflex
Encoding: 244 244 181
Width: 550
GlyphClass: 2
Flags: W
LayerCount: 2
Fore
SplineSet
68 250 m 128,-1,1
 68 391 68 391 111 453 c 128,-1,2
 154 515 154 515 275 515 c 128,-1,3
 396 515 396 515 439 453 c 128,-1,4
 482 391 482 391 482 250 c 128,-1,5
 482 109 482 109 439 47 c 128,-1,6
 396 -15 396 -15 275 -15 c 128,-1,7
 154 -15 154 -15 111 47 c 128,-1,0
 68 109 68 109 68 250 c 128,-1,1
177 81 m 1,8,-1
 294 81 l 2,9,10
 338 81 338 81 355.5 92 c 128,-1,11
 373 103 373 103 373 139 c 2,12,-1
 373 419 l 1,13,-1
 256 419 l 2,14,15
 212 419 212 419 194.5 408 c 128,-1,16
 177 397 177 397 177 361 c 2,17,-1
 177 81 l 1,8,-1
265 712 m 2,18,-1
 283 712 l 2,19,20
 288 712 288 712 293 706 c 2,21,-1
 407 590 l 1,22,-1
 367 556 l 1,23,-1
 274 620 l 1,24,-1
 181 556 l 1,25,-1
 141 590 l 1,26,-1
 255 706 l 2,27,28
 260 712 260 712 265 712 c 2,18,-1
EndSplineSet
EndChar

StartChar: otilde
Encoding: 245 245 182
Width: 550
GlyphClass: 2
Flags: W
LayerCount: 2
Fore
SplineSet
68 250 m 128,-1,1
 68 391 68 391 111 453 c 128,-1,2
 154 515 154 515 275 515 c 128,-1,3
 396 515 396 515 439 453 c 128,-1,4
 482 391 482 391 482 250 c 128,-1,5
 482 109 482 109 439 47 c 128,-1,6
 396 -15 396 -15 275 -15 c 128,-1,7
 154 -15 154 -15 111 47 c 128,-1,0
 68 109 68 109 68 250 c 128,-1,1
177 81 m 1,8,-1
 294 81 l 2,9,10
 338 81 338 81 355.5 92 c 128,-1,11
 373 103 373 103 373 139 c 2,12,-1
 373 419 l 1,13,-1
 256 419 l 2,14,15
 212 419 212 419 194.5 408 c 128,-1,16
 177 397 177 397 177 361 c 2,17,-1
 177 81 l 1,8,-1
330 571.5 m 128,-1,19
 313 564 313 564 293 564 c 128,-1,20
 273 564 273 564 241 595 c 1,21,-1
 226 607 l 1,22,-1
 160 574 l 1,23,-1
 129 625 l 1,24,-1
 159 646 l 1,25,26
 204 675 204 675 220 682.5 c 128,-1,27
 236 690 236 690 255.5 690 c 128,-1,28
 275 690 275 690 309 659 c 1,29,-1
 324 647 l 1,30,-1
 390 680 l 1,31,-1
 421 629 l 1,32,-1
 391 608 l 1,33,18
 347 579 347 579 330 571.5 c 128,-1,19
EndSplineSet
EndChar

StartChar: odieresis
Encoding: 246 246 183
Width: 550
GlyphClass: 2
Flags: W
LayerCount: 2
Fore
SplineSet
68 250 m 128,-1,1
 68 391 68 391 111 453 c 128,-1,2
 154 515 154 515 275 515 c 128,-1,3
 396 515 396 515 439 453 c 128,-1,4
 482 391 482 391 482 250 c 128,-1,5
 482 109 482 109 439 47 c 128,-1,6
 396 -15 396 -15 275 -15 c 128,-1,7
 154 -15 154 -15 111 47 c 128,-1,0
 68 109 68 109 68 250 c 128,-1,1
177 81 m 1,8,-1
 294 81 l 2,9,10
 338 81 338 81 355.5 92 c 128,-1,11
 373 103 373 103 373 139 c 2,12,-1
 373 419 l 1,13,-1
 256 419 l 2,14,15
 212 419 212 419 194.5 408 c 128,-1,16
 177 397 177 397 177 361 c 2,17,-1
 177 81 l 1,8,-1
132 632 m 128,-1,19
 132 665 132 665 142 677.5 c 128,-1,20
 152 690 152 690 183.5 690 c 128,-1,21
 215 690 215 690 225 677.5 c 128,-1,22
 235 665 235 665 235 632 c 128,-1,23
 235 599 235 599 225 587 c 128,-1,24
 215 575 215 575 183.5 575 c 128,-1,25
 152 575 152 575 142 587 c 128,-1,18
 132 599 132 599 132 632 c 128,-1,19
315 632 m 128,-1,27
 315 665 315 665 325 677.5 c 128,-1,28
 335 690 335 690 366.5 690 c 128,-1,29
 398 690 398 690 408 677.5 c 128,-1,30
 418 665 418 665 418 632 c 128,-1,31
 418 599 418 599 408 587 c 128,-1,32
 398 575 398 575 366.5 575 c 128,-1,33
 335 575 335 575 325 587 c 128,-1,26
 315 599 315 599 315 632 c 128,-1,27
EndSplineSet
EndChar

StartChar: divide
Encoding: 247 247 184
Width: 570
GlyphClass: 2
Flags: W
LayerCount: 2
Fore
SplineSet
107 272 m 1,0,-1
 107 352 l 1,1,-1
 462 352 l 1,2,-1
 462 272 l 1,3,-1
 107 272 l 1,0,-1
237 141 m 128,-1,5
 237 175 237 175 247 188.5 c 128,-1,6
 257 202 257 202 286 202 c 128,-1,7
 315 202 315 202 325 188.5 c 128,-1,8
 335 175 335 175 335 141 c 128,-1,9
 335 107 335 107 325 94 c 128,-1,10
 315 81 315 81 286 81 c 128,-1,11
 257 81 257 81 247 94 c 128,-1,4
 237 107 237 107 237 141 c 128,-1,5
237 482 m 128,-1,13
 237 516 237 516 247 529.5 c 128,-1,14
 257 543 257 543 286 543 c 128,-1,15
 315 543 315 543 325 529.5 c 128,-1,16
 335 516 335 516 335 482 c 128,-1,17
 335 448 335 448 325 435 c 128,-1,18
 315 422 315 422 286 422 c 128,-1,19
 257 422 257 422 247 435 c 128,-1,12
 237 448 237 448 237 482 c 128,-1,13
EndSplineSet
EndChar

StartChar: oslash
Encoding: 248 248 185
Width: 550
GlyphClass: 2
Flags: W
LayerCount: 2
Fore
SplineSet
482 250 m 0,0,1
 482 109 482 109 439 47 c 128,-1,2
 396 -15 396 -15 275 -15 c 0,3,4
 226 -15 226 -15 188 -4 c 1,5,-1
 153 -77 l 2,6,7
 148 -87 148 -87 144 -91 c 0,8,9
 133 -102 133 -102 110 -102 c 2,10,-1
 69 -102 l 1,11,-1
 131 26 l 1,12,13
 68 80 68 80 68 250 c 0,14,15
 68 391 68 391 111 453 c 128,-1,16
 154 515 154 515 275 515 c 0,17,18
 324 515 324 515 362 504 c 1,19,-1
 398 578 l 2,20,21
 403 588 403 588 407 592 c 0,22,23
 418 603 418 603 441 603 c 2,24,-1
 482 603 l 1,25,-1
 419 473 l 1,26,27
 482 419 482 419 482 250 c 0,0,1
177 361 m 2,28,-1
 177 121 l 1,29,-1
 321 419 l 1,30,-1
 256 419 l 2,31,32
 212 419 212 419 194.5 408 c 128,-1,33
 177 397 177 397 177 361 c 2,28,-1
294 81 m 2,34,35
 338 81 338 81 355.5 92 c 128,-1,36
 373 103 373 103 373 139 c 2,37,-1
 373 377 l 1,38,-1
 229 81 l 1,39,-1
 294 81 l 2,34,35
EndSplineSet
EndChar

StartChar: ugrave
Encoding: 249 249 186
Width: 555
GlyphClass: 2
Flags: W
LayerCount: 2
Fore
SplineSet
465 0 m 1,0,-1
 418 0 l 1,1,-1
 392 50 l 1,2,3
 312 -10 312 -10 206 -10 c 0,4,5
 148 -10 148 -10 116.5 14 c 128,-1,6
 85 38 85 38 85 100 c 2,7,-1
 85 500 l 1,8,-1
 185 500 l 1,9,-1
 185 81 l 1,10,-1
 253 81 l 2,11,12
 308 81 308 81 336.5 96 c 128,-1,13
 365 111 365 111 365 159 c 2,14,-1
 365 500 l 1,15,-1
 465 500 l 1,16,-1
 465 0 l 1,0,-1
143 624 m 2,17,18
 139 628 139 628 139 631.5 c 128,-1,19
 139 635 139 635 145 643 c 2,20,-1
 189 697 l 2,21,22
 193 702 193 702 196.5 702 c 128,-1,23
 200 702 200 702 205 698 c 2,24,-1
 357 588 l 1,25,-1
 335 554 l 1,26,-1
 195 589 l 2,27,28
 182 592 182 592 173 599 c 2,29,-1
 143 624 l 2,17,18
EndSplineSet
EndChar

StartChar: uacute
Encoding: 250 250 187
Width: 555
GlyphClass: 2
Flags: W
LayerCount: 2
Fore
SplineSet
465 0 m 1,0,-1
 418 0 l 1,1,-1
 392 50 l 1,2,3
 312 -10 312 -10 206 -10 c 0,4,5
 148 -10 148 -10 116.5 14 c 128,-1,6
 85 38 85 38 85 100 c 2,7,-1
 85 500 l 1,8,-1
 185 500 l 1,9,-1
 185 81 l 1,10,-1
 253 81 l 2,11,12
 308 81 308 81 336.5 96 c 128,-1,13
 365 111 365 111 365 159 c 2,14,-1
 365 500 l 1,15,-1
 465 500 l 1,16,-1
 465 0 l 1,0,-1
361 708 m 2,17,18
 366 712 366 712 369.5 712 c 128,-1,19
 373 712 373 712 377 707 c 2,20,-1
 421 653 l 2,21,22
 427 645 427 645 427 641.5 c 128,-1,23
 427 638 427 638 423 634 c 2,24,-1
 393 609 l 2,25,26
 384 602 384 602 371 599 c 2,27,-1
 231 564 l 1,28,-1
 209 598 l 1,29,-1
 361 708 l 2,17,18
EndSplineSet
EndChar

StartChar: ucircumflex
Encoding: 251 251 188
Width: 555
GlyphClass: 2
Flags: W
LayerCount: 2
Fore
SplineSet
465 0 m 1,0,-1
 418 0 l 1,1,-1
 392 50 l 1,2,3
 312 -10 312 -10 206 -10 c 0,4,5
 148 -10 148 -10 116.5 14 c 128,-1,6
 85 38 85 38 85 100 c 2,7,-1
 85 500 l 1,8,-1
 185 500 l 1,9,-1
 185 81 l 1,10,-1
 253 81 l 2,11,12
 308 81 308 81 336.5 96 c 128,-1,13
 365 111 365 111 365 159 c 2,14,-1
 365 500 l 1,15,-1
 465 500 l 1,16,-1
 465 0 l 1,0,-1
271 712 m 2,17,-1
 289 712 l 2,18,19
 294 712 294 712 299 706 c 2,20,-1
 413 590 l 1,21,-1
 373 556 l 1,22,-1
 280 620 l 1,23,-1
 187 556 l 1,24,-1
 147 590 l 1,25,-1
 261 706 l 2,26,27
 266 712 266 712 271 712 c 2,17,-1
EndSplineSet
EndChar

StartChar: udieresis
Encoding: 252 252 189
Width: 555
GlyphClass: 2
Flags: W
LayerCount: 2
Fore
SplineSet
465 0 m 1,0,-1
 418 0 l 1,1,-1
 392 50 l 1,2,3
 312 -10 312 -10 206 -10 c 0,4,5
 148 -10 148 -10 116.5 14 c 128,-1,6
 85 38 85 38 85 100 c 2,7,-1
 85 500 l 1,8,-1
 185 500 l 1,9,-1
 185 81 l 1,10,-1
 253 81 l 2,11,12
 308 81 308 81 336.5 96 c 128,-1,13
 365 111 365 111 365 159 c 2,14,-1
 365 500 l 1,15,-1
 465 500 l 1,16,-1
 465 0 l 1,0,-1
138 632 m 128,-1,18
 138 665 138 665 148 677.5 c 128,-1,19
 158 690 158 690 189.5 690 c 128,-1,20
 221 690 221 690 231 677.5 c 128,-1,21
 241 665 241 665 241 632 c 128,-1,22
 241 599 241 599 231 587 c 128,-1,23
 221 575 221 575 189.5 575 c 128,-1,24
 158 575 158 575 148 587 c 128,-1,17
 138 599 138 599 138 632 c 128,-1,18
321 632 m 128,-1,26
 321 665 321 665 331 677.5 c 128,-1,27
 341 690 341 690 372.5 690 c 128,-1,28
 404 690 404 690 414 677.5 c 128,-1,29
 424 665 424 665 424 632 c 128,-1,30
 424 599 424 599 414 587 c 128,-1,31
 404 575 404 575 372.5 575 c 128,-1,32
 341 575 341 575 331 587 c 128,-1,25
 321 599 321 599 321 632 c 128,-1,26
EndSplineSet
EndChar

StartChar: yacute
Encoding: 253 253 190
Width: 477
GlyphClass: 2
Flags: W
LayerCount: 2
Fore
SplineSet
219 30 m 1,0,-1
 159 30 l 1,1,-1
 16 500 l 1,2,-1
 118 500 l 1,3,-1
 233 115 l 1,4,-1
 243 115 l 1,5,-1
 358 500 l 1,6,-1
 460 500 l 1,7,-1
 305 -15 l 2,8,9
 280 -98 280 -98 233 -131.5 c 128,-1,10
 186 -165 186 -165 108 -165 c 2,11,-1
 24 -165 l 1,12,-1
 24 -105 l 1,13,-1
 118 -87 l 2,14,15
 165 -78 165 -78 188 -61 c 128,-1,16
 211 -44 211 -44 219 -14 c 1,17,-1
 219 30 l 1,0,-1
284 708 m 2,18,19
 289 712 289 712 292.5 712 c 128,-1,20
 296 712 296 712 300 707 c 2,21,-1
 344 653 l 2,22,23
 350 645 350 645 350 641.5 c 128,-1,24
 350 638 350 638 346 634 c 2,25,-1
 316 609 l 2,26,27
 307 602 307 602 294 599 c 2,28,-1
 154 564 l 1,29,-1
 132 598 l 1,30,-1
 284 708 l 2,18,19
EndSplineSet
EndChar

StartChar: thorn
Encoding: 254 254 191
Width: 555
GlyphClass: 2
Flags: W
LayerCount: 2
Fore
SplineSet
185 453 m 1,0,1
 242 510 242 510 328.5 510 c 128,-1,2
 415 510 415 510 451 452.5 c 128,-1,3
 487 395 487 395 487 256 c 128,-1,4
 487 117 487 117 445 58.5 c 128,-1,5
 403 0 403 0 297 0 c 2,6,-1
 190 0 l 1,7,-1
 190 -165 l 1,8,-1
 90 -177 l 1,9,-1
 90 657 l 1,10,-1
 185 665 l 1,11,-1
 185 453 l 1,0,1
191 91 m 1,12,-1
 299 91 l 2,13,14
 343 91 343 91 360.5 102 c 128,-1,15
 378 113 378 113 378 149 c 2,16,-1
 378 409 l 1,17,-1
 271 409 l 2,18,19
 227 409 227 409 209 397.5 c 128,-1,20
 191 386 191 386 191 351 c 2,21,-1
 191 91 l 1,12,-1
EndSplineSet
EndChar

StartChar: ydieresis
Encoding: 255 255 192
Width: 477
GlyphClass: 2
Flags: W
LayerCount: 2
Fore
SplineSet
219 30 m 1,0,-1
 159 30 l 1,1,-1
 16 500 l 1,2,-1
 118 500 l 1,3,-1
 233 115 l 1,4,-1
 243 115 l 1,5,-1
 358 500 l 1,6,-1
 460 500 l 1,7,-1
 305 -15 l 2,8,9
 280 -98 280 -98 233 -131.5 c 128,-1,10
 186 -165 186 -165 108 -165 c 2,11,-1
 24 -165 l 1,12,-1
 24 -105 l 1,13,-1
 118 -87 l 2,14,15
 165 -78 165 -78 188 -61 c 128,-1,16
 211 -44 211 -44 219 -14 c 1,17,-1
 219 30 l 1,0,-1
288 632 m 128,-1,19
 288 665 288 665 298 677.5 c 128,-1,20
 308 690 308 690 339.5 690 c 128,-1,21
 371 690 371 690 381 677.5 c 128,-1,22
 391 665 391 665 391 632 c 128,-1,23
 391 599 391 599 381 587 c 128,-1,24
 371 575 371 575 339.5 575 c 128,-1,25
 308 575 308 575 298 587 c 128,-1,18
 288 599 288 599 288 632 c 128,-1,19
105 632 m 128,-1,27
 105 665 105 665 115 677.5 c 128,-1,28
 125 690 125 690 156.5 690 c 128,-1,29
 188 690 188 690 198 677.5 c 128,-1,30
 208 665 208 665 208 632 c 128,-1,31
 208 599 208 599 198 587 c 128,-1,32
 188 575 188 575 156.5 575 c 128,-1,33
 125 575 125 575 115 587 c 128,-1,26
 105 599 105 599 105 632 c 128,-1,27
EndSplineSet
EndChar

StartChar: Amacron
Encoding: 256 256 193
Width: 549
GlyphClass: 2
Flags: W
LayerCount: 2
Fore
SplineSet
425 0 m 1,0,-1
 391 137 l 1,1,-1
 157 137 l 1,2,-1
 124 0 l 1,3,-1
 18 0 l 1,4,-1
 180 625 l 1,5,-1
 369 625 l 1,6,-1
 531 0 l 1,7,-1
 425 0 l 1,0,-1
254 533 m 1,8,-1
 179 227 l 1,9,-1
 369 227 l 1,10,-1
 295 533 l 1,11,-1
 254 533 l 1,8,-1
396 711 m 1,12,-1
 198 711 l 2,13,14
 169 711 169 711 161 720.5 c 128,-1,15
 153 730 153 730 153 757 c 2,16,-1
 153 792 l 1,17,-1
 352 792 l 2,18,19
 381 792 381 792 388.5 783 c 128,-1,20
 396 774 396 774 396 747 c 2,21,-1
 396 711 l 1,12,-1
EndSplineSet
EndChar

StartChar: amacron
Encoding: 257 257 194
Width: 533
GlyphClass: 2
Flags: W
LayerCount: 2
Fore
SplineSet
156 81 m 1,0,-1
 270 81 l 2,1,2
 314 81 314 81 331.5 92 c 128,-1,3
 349 103 349 103 349 139 c 2,4,-1
 349 228 l 1,5,-1
 235 228 l 2,6,7
 191 228 191 228 173.5 217 c 128,-1,8
 156 206 156 206 156 170 c 2,9,-1
 156 81 l 1,0,-1
201 -10 m 0,10,11
 55 -10 55 -10 55 145 c 0,12,13
 55 235 55 235 113.5 273.5 c 128,-1,14
 172 312 172 312 285 312 c 2,15,-1
 349 312 l 1,16,-1
 349 412 l 1,17,18
 318 416 318 416 274 416 c 0,19,20
 172 416 172 416 112 395 c 1,21,-1
 100 479 l 1,22,23
 193 510 193 510 278.5 510 c 128,-1,24
 364 510 364 510 406 481.5 c 128,-1,25
 448 453 448 453 448 369 c 2,26,-1
 448 0 l 1,27,-1
 402 0 l 1,28,-1
 375 50 l 1,29,30
 308 -10 308 -10 201 -10 c 0,10,11
405 586 m 1,31,-1
 207 586 l 2,32,33
 178 586 178 586 170 595.5 c 128,-1,34
 162 605 162 605 162 632 c 2,35,-1
 162 667 l 1,36,-1
 361 667 l 2,37,38
 390 667 390 667 397.5 658 c 128,-1,39
 405 649 405 649 405 622 c 2,40,-1
 405 586 l 1,31,-1
EndSplineSet
EndChar

StartChar: Abreve
Encoding: 258 258 195
Width: 549
GlyphClass: 2
Flags: W
LayerCount: 2
Fore
SplineSet
425 0 m 1,0,-1
 391 137 l 1,1,-1
 157 137 l 1,2,-1
 124 0 l 1,3,-1
 18 0 l 1,4,-1
 180 625 l 1,5,-1
 369 625 l 1,6,-1
 531 0 l 1,7,-1
 425 0 l 1,0,-1
254 533 m 1,8,-1
 179 227 l 1,9,-1
 369 227 l 1,10,-1
 295 533 l 1,11,-1
 254 533 l 1,8,-1
274 765 m 128,-1,13
 291 765 291 765 306 777 c 128,-1,14
 321 789 321 789 327 811 c 1,15,-1
 392 800 l 1,16,17
 379 746 379 746 348 719 c 128,-1,18
 317 692 317 692 274 692 c 0,19,20
 179 692 179 692 156 800 c 1,21,-1
 221 811 l 1,22,23
 227 789 227 789 242 777 c 128,-1,12
 257 765 257 765 274 765 c 128,-1,13
EndSplineSet
EndChar

StartChar: abreve
Encoding: 259 259 196
Width: 533
GlyphClass: 2
Flags: W
LayerCount: 2
Fore
SplineSet
156 81 m 1,0,-1
 270 81 l 2,1,2
 314 81 314 81 331.5 92 c 128,-1,3
 349 103 349 103 349 139 c 2,4,-1
 349 228 l 1,5,-1
 235 228 l 2,6,7
 191 228 191 228 173.5 217 c 128,-1,8
 156 206 156 206 156 170 c 2,9,-1
 156 81 l 1,0,-1
201 -10 m 0,10,11
 55 -10 55 -10 55 145 c 0,12,13
 55 235 55 235 113.5 273.5 c 128,-1,14
 172 312 172 312 285 312 c 2,15,-1
 349 312 l 1,16,-1
 349 412 l 1,17,18
 318 416 318 416 274 416 c 0,19,20
 172 416 172 416 112 395 c 1,21,-1
 100 479 l 1,22,23
 193 510 193 510 278.5 510 c 128,-1,24
 364 510 364 510 406 481.5 c 128,-1,25
 448 453 448 453 448 369 c 2,26,-1
 448 0 l 1,27,-1
 402 0 l 1,28,-1
 375 50 l 1,29,30
 308 -10 308 -10 201 -10 c 0,10,11
273 640 m 128,-1,32
 290 640 290 640 305 652 c 128,-1,33
 320 664 320 664 326 686 c 1,34,-1
 391 675 l 1,35,36
 378 621 378 621 347 594 c 128,-1,37
 316 567 316 567 273 567 c 0,38,39
 178 567 178 567 155 675 c 1,40,-1
 220 686 l 1,41,42
 226 664 226 664 241 652 c 128,-1,31
 256 640 256 640 273 640 c 128,-1,32
EndSplineSet
EndChar

StartChar: Aogonek
Encoding: 260 260 197
Width: 549
GlyphClass: 2
Flags: W
LayerCount: 2
Fore
SplineSet
454 -45 m 2,0,-1
 454 -66 l 2,1,2
 454 -100 454 -100 483 -100 c 0,3,4
 487 -100 487 -100 497 -98 c 2,5,-1
 516 -93 l 1,6,-1
 535 -144 l 1,7,8
 501 -165 501 -165 461 -165 c 128,-1,9
 421 -165 421 -165 398 -141 c 128,-1,10
 375 -117 375 -117 375 -81 c 0,11,12
 375 -23 375 -23 425 0 c 1,13,-1
 391 137 l 1,14,-1
 157 137 l 1,15,-1
 124 0 l 1,16,-1
 18 0 l 1,17,-1
 180 625 l 1,18,-1
 369 625 l 1,19,-1
 531 0 l 1,20,-1
 488 -5 l 1,21,22
 467 -11 467 -11 460.5 -18 c 128,-1,23
 454 -25 454 -25 454 -45 c 2,0,-1
254 533 m 1,24,-1
 179 227 l 1,25,-1
 369 227 l 1,26,-1
 295 533 l 1,27,-1
 254 533 l 1,24,-1
EndSplineSet
EndChar

StartChar: aogonek
Encoding: 261 261 198
Width: 533
GlyphClass: 2
Flags: W
LayerCount: 2
Fore
SplineSet
394 -45 m 2,0,-1
 394 -66 l 2,1,2
 394 -100 394 -100 423 -100 c 0,3,4
 427 -100 427 -100 437 -98 c 2,5,-1
 456 -93 l 1,6,-1
 475 -144 l 1,7,8
 441 -165 441 -165 401 -165 c 128,-1,9
 361 -165 361 -165 338 -141 c 128,-1,10
 315 -117 315 -117 315 -81.5 c 128,-1,11
 315 -46 315 -46 332.5 -23 c 128,-1,12
 350 0 350 0 396 11 c 1,13,-1
 375 50 l 1,14,15
 308 -10 308 -10 201 -10 c 0,16,17
 55 -10 55 -10 55 145 c 0,18,19
 55 235 55 235 113.5 273.5 c 128,-1,20
 172 312 172 312 285 312 c 2,21,-1
 349 312 l 1,22,-1
 349 412 l 1,23,24
 318 416 318 416 274 416 c 0,25,26
 172 416 172 416 112 395 c 1,27,-1
 100 479 l 1,28,29
 193 510 193 510 278.5 510 c 128,-1,30
 364 510 364 510 406 481.5 c 128,-1,31
 448 453 448 453 448 369 c 2,32,-1
 448 0 l 1,33,-1
 428 -5 l 2,34,35
 407 -11 407 -11 400.5 -18 c 128,-1,36
 394 -25 394 -25 394 -45 c 2,0,-1
156 81 m 1,37,-1
 270 81 l 2,38,39
 314 81 314 81 331.5 92 c 128,-1,40
 349 103 349 103 349 139 c 2,41,-1
 349 228 l 1,42,-1
 235 228 l 2,43,44
 191 228 191 228 173.5 217 c 128,-1,45
 156 206 156 206 156 170 c 2,46,-1
 156 81 l 1,37,-1
EndSplineSet
EndChar

StartChar: Cacute
Encoding: 262 262 199
Width: 445
GlyphClass: 2
Flags: W
LayerCount: 2
Fore
SplineSet
274 -10 m 0,0,1
 139 -10 139 -10 94.5 55.5 c 128,-1,2
 50 121 50 121 50 314.5 c 128,-1,3
 50 508 50 508 94.5 574 c 128,-1,4
 139 640 139 640 274 640 c 0,5,6
 355 640 355 640 410 619 c 1,7,-1
 395 531 l 1,8,9
 327 545 327 545 265.5 545 c 128,-1,10
 204 545 204 545 182 534 c 128,-1,11
 160 523 160 523 160 489 c 2,12,-1
 160 98 l 1,13,14
 207 83 207 83 271 83 c 128,-1,15
 335 83 335 83 410 103 c 1,16,-1
 420 11 l 1,17,18
 361 -10 361 -10 274 -10 c 0,0,1
315 833 m 2,19,20
 320 837 320 837 323.5 837 c 128,-1,21
 327 837 327 837 331 832 c 2,22,-1
 375 778 l 2,23,24
 381 770 381 770 381 766.5 c 128,-1,25
 381 763 381 763 377 759 c 2,26,-1
 347 734 l 2,27,28
 338 727 338 727 325 724 c 2,29,-1
 185 689 l 1,30,-1
 163 723 l 1,31,-1
 315 833 l 2,19,20
EndSplineSet
EndChar

StartChar: cacute
Encoding: 263 263 200
Width: 423
GlyphClass: 2
Flags: W
LayerCount: 2
Fore
SplineSet
387 10 m 1,0,1
 327 -10 327 -10 254.5 -10 c 128,-1,2
 182 -10 182 -10 143 11.5 c 128,-1,3
 104 33 104 33 86 88.5 c 128,-1,4
 68 144 68 144 68 250 c 0,5,6
 68 404 68 404 111.5 457 c 128,-1,7
 155 510 155 510 268 510 c 0,8,9
 331 510 331 510 385 492 c 1,10,-1
 363 408 l 1,11,12
 302 419 302 419 266 419 c 0,13,14
 177 419 177 419 177 347 c 2,15,-1
 177 82 l 1,16,17
 215 77 215 77 266 77 c 128,-1,18
 317 77 317 77 375 95 c 1,19,-1
 387 10 l 1,0,1
298 708 m 2,20,21
 303 712 303 712 306.5 712 c 128,-1,22
 310 712 310 712 314 707 c 2,23,-1
 358 653 l 2,24,25
 364 645 364 645 364 641.5 c 128,-1,26
 364 638 364 638 360 634 c 2,27,-1
 330 609 l 2,28,29
 321 602 321 602 308 599 c 2,30,-1
 168 564 l 1,31,-1
 146 598 l 1,32,-1
 298 708 l 2,20,21
EndSplineSet
EndChar

StartChar: Ccircumflex
Encoding: 264 264 201
Width: 445
GlyphClass: 2
Flags: W
LayerCount: 2
Fore
SplineSet
274 -10 m 0,0,1
 139 -10 139 -10 94.5 55.5 c 128,-1,2
 50 121 50 121 50 314.5 c 128,-1,3
 50 508 50 508 94.5 574 c 128,-1,4
 139 640 139 640 274 640 c 0,5,6
 355 640 355 640 410 619 c 1,7,-1
 395 531 l 1,8,9
 327 545 327 545 265.5 545 c 128,-1,10
 204 545 204 545 182 534 c 128,-1,11
 160 523 160 523 160 489 c 2,12,-1
 160 98 l 1,13,14
 207 83 207 83 271 83 c 128,-1,15
 335 83 335 83 410 103 c 1,16,-1
 420 11 l 1,17,18
 361 -10 361 -10 274 -10 c 0,0,1
259 837 m 2,19,-1
 277 837 l 2,20,21
 282 837 282 837 287 831 c 2,22,-1
 401 715 l 1,23,-1
 361 681 l 1,24,-1
 268 745 l 1,25,-1
 175 681 l 1,26,-1
 135 715 l 1,27,-1
 249 831 l 2,28,29
 254 837 254 837 259 837 c 2,19,-1
EndSplineSet
EndChar

StartChar: ccircumflex
Encoding: 265 265 202
Width: 440
GlyphClass: 2
Flags: W
LayerCount: 2
Fore
SplineSet
387 10 m 1,0,1
 327 -10 327 -10 254.5 -10 c 128,-1,2
 182 -10 182 -10 143 11.5 c 128,-1,3
 104 33 104 33 86 88.5 c 128,-1,4
 68 144 68 144 68 250 c 0,5,6
 68 404 68 404 111.5 457 c 128,-1,7
 155 510 155 510 268 510 c 0,8,9
 331 510 331 510 385 492 c 1,10,-1
 363 408 l 1,11,12
 302 419 302 419 266 419 c 0,13,14
 177 419 177 419 177 347 c 2,15,-1
 177 82 l 1,16,17
 215 77 215 77 266 77 c 128,-1,18
 317 77 317 77 375 95 c 1,19,-1
 387 10 l 1,0,1
238 713 m 2,20,-1
 256 713 l 2,21,22
 262 713 262 713 266 707 c 1,23,-1
 380 591 l 1,24,-1
 340 557 l 1,25,-1
 247 621 l 1,26,-1
 154 557 l 1,27,-1
 114 591 l 1,28,-1
 228 707 l 1,29,30
 232 713 232 713 238 713 c 2,20,-1
EndSplineSet
EndChar

StartChar: Cdotaccent
Encoding: 266 266 203
Width: 445
GlyphClass: 2
Flags: W
LayerCount: 2
Fore
SplineSet
274 -10 m 0,0,1
 139 -10 139 -10 94.5 55.5 c 128,-1,2
 50 121 50 121 50 314.5 c 128,-1,3
 50 508 50 508 94.5 574 c 128,-1,4
 139 640 139 640 274 640 c 0,5,6
 355 640 355 640 410 619 c 1,7,-1
 395 531 l 1,8,9
 327 545 327 545 265.5 545 c 128,-1,10
 204 545 204 545 182 534 c 128,-1,11
 160 523 160 523 160 489 c 2,12,-1
 160 98 l 1,13,14
 207 83 207 83 271 83 c 128,-1,15
 335 83 335 83 410 103 c 1,16,-1
 420 11 l 1,17,18
 361 -10 361 -10 274 -10 c 0,0,1
196 762 m 128,-1,20
 196 800 196 800 209.5 815 c 128,-1,21
 223 830 223 830 263.5 830 c 128,-1,22
 304 830 304 830 317 815 c 128,-1,23
 330 800 330 800 330 761.5 c 128,-1,24
 330 723 330 723 317 709.5 c 128,-1,25
 304 696 304 696 263.5 696 c 128,-1,26
 223 696 223 696 209.5 710 c 128,-1,19
 196 724 196 724 196 762 c 128,-1,20
EndSplineSet
EndChar

StartChar: cdotaccent
Encoding: 267 267 204
Width: 417
GlyphClass: 2
Flags: W
LayerCount: 2
Fore
SplineSet
387 10 m 1,0,1
 327 -10 327 -10 254.5 -10 c 128,-1,2
 182 -10 182 -10 143 11.5 c 128,-1,3
 104 33 104 33 86 88.5 c 128,-1,4
 68 144 68 144 68 250 c 0,5,6
 68 404 68 404 111.5 457 c 128,-1,7
 155 510 155 510 268 510 c 0,8,9
 331 510 331 510 385 492 c 1,10,-1
 363 408 l 1,11,12
 302 419 302 419 266 419 c 0,13,14
 177 419 177 419 177 347 c 2,15,-1
 177 82 l 1,16,17
 215 77 215 77 266 77 c 128,-1,18
 317 77 317 77 375 95 c 1,19,-1
 387 10 l 1,0,1
184 637 m 128,-1,21
 184 675 184 675 197.5 690 c 128,-1,22
 211 705 211 705 251.5 705 c 128,-1,23
 292 705 292 705 305 690 c 128,-1,24
 318 675 318 675 318 636.5 c 128,-1,25
 318 598 318 598 305 584.5 c 128,-1,26
 292 571 292 571 251.5 571 c 128,-1,27
 211 571 211 571 197.5 585 c 128,-1,20
 184 599 184 599 184 637 c 128,-1,21
EndSplineSet
EndChar

StartChar: Ccaron
Encoding: 268 268 205
Width: 445
GlyphClass: 2
Flags: W
LayerCount: 2
Fore
SplineSet
274 -10 m 0,0,1
 139 -10 139 -10 94.5 55.5 c 128,-1,2
 50 121 50 121 50 314.5 c 128,-1,3
 50 508 50 508 94.5 574 c 128,-1,4
 139 640 139 640 274 640 c 0,5,6
 355 640 355 640 410 619 c 1,7,-1
 395 531 l 1,8,9
 327 545 327 545 265.5 545 c 128,-1,10
 204 545 204 545 182 534 c 128,-1,11
 160 523 160 523 160 489 c 2,12,-1
 160 98 l 1,13,14
 207 83 207 83 271 83 c 128,-1,15
 335 83 335 83 410 103 c 1,16,-1
 420 11 l 1,17,18
 361 -10 361 -10 274 -10 c 0,0,1
273 685 m 2,19,-1
 255 685 l 2,20,21
 249 685 249 685 245 691 c 1,22,-1
 131 807 l 1,23,-1
 171 841 l 1,24,-1
 264 777 l 1,25,-1
 357 841 l 1,26,-1
 397 807 l 1,27,-1
 283 691 l 2,28,29
 278 685 278 685 273 685 c 2,19,-1
EndSplineSet
EndChar

StartChar: ccaron
Encoding: 269 269 206
Width: 422
GlyphClass: 2
Flags: W
LayerCount: 2
Fore
SplineSet
387 10 m 1,0,1
 327 -10 327 -10 254.5 -10 c 128,-1,2
 182 -10 182 -10 143 11.5 c 128,-1,3
 104 33 104 33 86 88.5 c 128,-1,4
 68 144 68 144 68 250 c 0,5,6
 68 404 68 404 111.5 457 c 128,-1,7
 155 510 155 510 268 510 c 0,8,9
 331 510 331 510 385 492 c 1,10,-1
 363 408 l 1,11,12
 302 419 302 419 266 419 c 0,13,14
 177 419 177 419 177 347 c 2,15,-1
 177 82 l 1,16,17
 215 77 215 77 266 77 c 128,-1,18
 317 77 317 77 375 95 c 1,19,-1
 387 10 l 1,0,1
258 560 m 2,20,-1
 240 560 l 2,21,22
 234 560 234 560 230 566 c 1,23,-1
 116 682 l 1,24,-1
 156 716 l 1,25,-1
 249 652 l 1,26,-1
 342 716 l 1,27,-1
 382 682 l 1,28,-1
 268 566 l 1,29,30
 264 560 264 560 258 560 c 2,20,-1
EndSplineSet
EndChar

StartChar: Dcaron
Encoding: 270 270 207
Width: 561
GlyphClass: 2
Flags: W
LayerCount: 2
Fore
SplineSet
70 0 m 1,0,-1
 70 625 l 1,1,-1
 264 625 l 2,2,3
 344 625 344 625 389.5 613.5 c 128,-1,4
 435 602 435 602 464 565.5 c 128,-1,5
 493 529 493 529 502 471.5 c 128,-1,6
 511 414 511 414 511 312.5 c 128,-1,7
 511 211 511 211 502 153.5 c 128,-1,8
 493 96 493 96 464 59.5 c 128,-1,9
 435 23 435 23 389.5 11.5 c 128,-1,10
 344 0 344 0 264 0 c 2,11,-1
 70 0 l 1,0,-1
323 535 m 2,12,-1
 170 535 l 1,13,-1
 170 90 l 1,14,-1
 323 90 l 2,15,16
 364 90 364 90 382.5 99.5 c 128,-1,17
 401 109 401 109 401 143 c 2,18,-1
 401 482 l 2,19,20
 401 516 401 516 382.5 525.5 c 128,-1,21
 364 535 364 535 323 535 c 2,12,-1
275 685 m 2,22,-1
 257 685 l 2,23,24
 252 685 252 685 247 691 c 2,25,-1
 133 807 l 1,26,-1
 173 841 l 1,27,-1
 266 777 l 1,28,-1
 359 841 l 1,29,-1
 399 807 l 1,30,-1
 285 691 l 2,31,32
 280 685 280 685 275 685 c 2,22,-1
EndSplineSet
EndChar

StartChar: dcaron
Encoding: 271 271 208
Width: 562
GlyphClass: 2
Flags: W
LayerCount: 2
Fore
SplineSet
399 50 m 1,0,1
 344 -15 344 -15 250 -15 c 128,-1,2
 156 -15 156 -15 112 40.5 c 128,-1,3
 68 96 68 96 68 243.5 c 128,-1,4
 68 391 68 391 118 445.5 c 128,-1,5
 168 500 168 500 288 500 c 2,6,-1
 373 500 l 1,7,-1
 373 653 l 1,8,-1
 472 665 l 1,9,-1
 472 0 l 1,10,-1
 425 0 l 1,11,-1
 399 50 l 1,0,1
177 81 m 1,12,-1
 294 81 l 2,13,14
 338 81 338 81 355.5 92 c 128,-1,15
 373 103 373 103 373 139 c 2,16,-1
 373 408 l 1,17,-1
 256 408 l 2,18,19
 212 408 212 408 194.5 397 c 128,-1,20
 177 386 177 386 177 350 c 2,21,-1
 177 81 l 1,12,-1
508.5 544.5 m 128,-1,23
 499 557 499 557 499 593.5 c 128,-1,24
 499 630 499 630 512 647.5 c 128,-1,25
 525 665 525 665 562 665 c 128,-1,26
 599 665 599 665 612 647.5 c 128,-1,27
 625 630 625 630 625 587 c 128,-1,28
 625 544 625 544 607 504 c 2,29,-1
 576 436 l 1,30,-1
 537 448 l 1,31,-1
 545 530 l 1,32,22
 518 532 518 532 508.5 544.5 c 128,-1,23
EndSplineSet
EndChar

StartChar: Dcroat
Encoding: 272 272 209
Width: 561
GlyphClass: 2
Flags: W
LayerCount: 2
Fore
SplineSet
70 0 m 1,0,-1
 70 625 l 1,1,-1
 264 625 l 2,2,3
 344 625 344 625 389.5 613.5 c 128,-1,4
 435 602 435 602 464 565.5 c 128,-1,5
 493 529 493 529 502 471.5 c 128,-1,6
 511 414 511 414 511 312.5 c 128,-1,7
 511 211 511 211 502 153.5 c 128,-1,8
 493 96 493 96 464 59.5 c 128,-1,9
 435 23 435 23 389.5 11.5 c 128,-1,10
 344 0 344 0 264 0 c 2,11,-1
 70 0 l 1,0,-1
323 535 m 2,12,-1
 170 535 l 1,13,-1
 170 90 l 1,14,-1
 323 90 l 2,15,16
 364 90 364 90 382.5 99.5 c 128,-1,17
 401 109 401 109 401 143 c 2,18,-1
 401 482 l 2,19,20
 401 516 401 516 382.5 525.5 c 128,-1,21
 364 535 364 535 323 535 c 2,12,-1
402 711 m 1,22,-1
 204 711 l 2,23,24
 175 711 175 711 167 720.5 c 128,-1,25
 159 730 159 730 159 757 c 2,26,-1
 159 792 l 1,27,-1
 358 792 l 2,28,29
 387 792 387 792 394.5 783 c 128,-1,30
 402 774 402 774 402 747 c 2,31,-1
 402 711 l 1,22,-1
EndSplineSet
EndChar

StartChar: dcroat
Encoding: 273 273 210
Width: 595
GlyphClass: 2
Flags: W
LayerCount: 2
Fore
SplineSet
302 549 m 1,0,-1
 302 586 l 2,1,2
 302 603 302 603 310 607.5 c 128,-1,3
 318 612 318 612 340 612 c 2,4,-1
 373 612 l 1,5,-1
 373 653 l 1,6,-1
 472 665 l 1,7,-1
 472 612 l 1,8,-1
 545 612 l 1,9,-1
 545 574 l 2,10,11
 545 557 545 557 537 553 c 128,-1,12
 529 549 529 549 506 549 c 2,13,-1
 472 549 l 1,14,-1
 472 0 l 1,15,-1
 425 0 l 1,16,-1
 399 50 l 1,17,18
 344 -15 344 -15 250 -15 c 128,-1,19
 156 -15 156 -15 112 40.5 c 128,-1,20
 68 96 68 96 68 243.5 c 128,-1,21
 68 391 68 391 118 445.5 c 128,-1,22
 168 500 168 500 288 500 c 2,23,-1
 373 500 l 1,24,-1
 373 549 l 1,25,-1
 302 549 l 1,0,-1
177 81 m 1,26,-1
 294 81 l 2,27,28
 338 81 338 81 355.5 92 c 128,-1,29
 373 103 373 103 373 139 c 2,30,-1
 373 408 l 1,31,-1
 256 408 l 2,32,33
 212 408 212 408 194.5 397 c 128,-1,34
 177 386 177 386 177 350 c 2,35,-1
 177 81 l 1,26,-1
EndSplineSet
EndChar

StartChar: Emacron
Encoding: 274 274 211
Width: 455
GlyphClass: 2
Flags: W
LayerCount: 2
Fore
SplineSet
370 266 m 1,0,-1
 170 266 l 1,1,-1
 170 90 l 1,2,-1
 415 90 l 1,3,-1
 415 0 l 1,4,-1
 70 0 l 1,5,-1
 70 625 l 1,6,-1
 410 625 l 1,7,-1
 395 535 l 1,8,-1
 170 535 l 1,9,-1
 170 351 l 1,10,-1
 370 351 l 1,11,-1
 370 266 l 1,0,-1
369 711 m 1,12,-1
 171 711 l 2,13,14
 142 711 142 711 134 720.5 c 128,-1,15
 126 730 126 730 126 757 c 2,16,-1
 126 792 l 1,17,-1
 325 792 l 2,18,19
 354 792 354 792 361.5 783 c 128,-1,20
 369 774 369 774 369 747 c 2,21,-1
 369 711 l 1,12,-1
EndSplineSet
EndChar

StartChar: emacron
Encoding: 275 275 212
Width: 533
GlyphClass: 2
Flags: W
LayerCount: 2
Fore
SplineSet
371 420 m 1,0,-1
 257 420 l 2,1,2
 213 420 213 420 195.5 409 c 128,-1,3
 178 398 178 398 178 362 c 2,4,-1
 178 273 l 1,5,-1
 292 273 l 2,6,7
 336 273 336 273 353.5 284 c 128,-1,8
 371 295 371 295 371 331 c 2,9,-1
 371 420 l 1,0,-1
456 20 m 1,10,11
 372 -8 372 -8 281 -8 c 128,-1,12
 190 -8 190 -8 148.5 13 c 128,-1,13
 107 34 107 34 87.5 89 c 128,-1,14
 68 144 68 144 68 250 c 0,15,16
 68 405 68 405 113.5 460 c 128,-1,17
 159 515 159 515 274.5 515 c 128,-1,18
 390 515 390 515 431.5 482.5 c 128,-1,19
 473 450 473 450 473 350 c 0,20,21
 473 285 473 285 461.5 263.5 c 128,-1,22
 450 242 450 242 441.5 230.5 c 128,-1,23
 433 219 433 219 412 211 c 128,-1,24
 391 203 391 203 373.5 199 c 128,-1,25
 356 195 356 195 322 192 c 0,26,27
 273 189 273 189 178 189 c 1,28,-1
 178 90 l 1,29,30
 224 79 224 79 288 79 c 128,-1,31
 352 79 352 79 438 103 c 1,32,-1
 456 20 l 1,10,11
417 586 m 1,33,-1
 219 586 l 2,34,35
 190 586 190 586 182 595.5 c 128,-1,36
 174 605 174 605 174 632 c 2,37,-1
 174 667 l 1,38,-1
 373 667 l 2,39,40
 402 667 402 667 409.5 658 c 128,-1,41
 417 649 417 649 417 622 c 2,42,-1
 417 586 l 1,33,-1
EndSplineSet
EndChar

StartChar: Ebreve
Encoding: 276 276 213
Width: 455
GlyphClass: 2
Flags: W
LayerCount: 2
Fore
SplineSet
370 266 m 1,0,-1
 170 266 l 1,1,-1
 170 90 l 1,2,-1
 415 90 l 1,3,-1
 415 0 l 1,4,-1
 70 0 l 1,5,-1
 70 625 l 1,6,-1
 410 625 l 1,7,-1
 395 535 l 1,8,-1
 170 535 l 1,9,-1
 170 351 l 1,10,-1
 370 351 l 1,11,-1
 370 266 l 1,0,-1
255 765 m 128,-1,13
 272 765 272 765 287 777 c 128,-1,14
 302 789 302 789 308 811 c 1,15,-1
 373 800 l 1,16,17
 360 746 360 746 329 719 c 128,-1,18
 298 692 298 692 255 692 c 0,19,20
 160 692 160 692 137 800 c 1,21,-1
 202 811 l 1,22,23
 208 789 208 789 223 777 c 128,-1,12
 238 765 238 765 255 765 c 128,-1,13
EndSplineSet
EndChar

StartChar: ebreve
Encoding: 277 277 214
Width: 533
GlyphClass: 2
Flags: W
LayerCount: 2
Fore
SplineSet
371 420 m 1,0,-1
 257 420 l 2,1,2
 213 420 213 420 195.5 409 c 128,-1,3
 178 398 178 398 178 362 c 2,4,-1
 178 273 l 1,5,-1
 292 273 l 2,6,7
 336 273 336 273 353.5 284 c 128,-1,8
 371 295 371 295 371 331 c 2,9,-1
 371 420 l 1,0,-1
456 20 m 1,10,11
 372 -8 372 -8 281 -8 c 128,-1,12
 190 -8 190 -8 148.5 13 c 128,-1,13
 107 34 107 34 87.5 89 c 128,-1,14
 68 144 68 144 68 250 c 0,15,16
 68 405 68 405 113.5 460 c 128,-1,17
 159 515 159 515 274.5 515 c 128,-1,18
 390 515 390 515 431.5 482.5 c 128,-1,19
 473 450 473 450 473 350 c 0,20,21
 473 285 473 285 461.5 263.5 c 128,-1,22
 450 242 450 242 441.5 230.5 c 128,-1,23
 433 219 433 219 412 211 c 128,-1,24
 391 203 391 203 373.5 199 c 128,-1,25
 356 195 356 195 322 192 c 0,26,27
 273 189 273 189 178 189 c 1,28,-1
 178 90 l 1,29,30
 224 79 224 79 288 79 c 128,-1,31
 352 79 352 79 438 103 c 1,32,-1
 456 20 l 1,10,11
295 640 m 128,-1,34
 312 640 312 640 327 652 c 128,-1,35
 342 664 342 664 348 686 c 1,36,-1
 413 675 l 1,37,38
 400 621 400 621 369 594 c 128,-1,39
 338 567 338 567 295 567 c 0,40,41
 200 567 200 567 177 675 c 1,42,-1
 242 686 l 1,43,44
 248 664 248 664 263 652 c 128,-1,33
 278 640 278 640 295 640 c 128,-1,34
EndSplineSet
EndChar

StartChar: Edotaccent
Encoding: 278 278 215
Width: 455
GlyphClass: 2
Flags: W
LayerCount: 2
Fore
SplineSet
370 266 m 1,0,-1
 170 266 l 1,1,-1
 170 90 l 1,2,-1
 415 90 l 1,3,-1
 415 0 l 1,4,-1
 70 0 l 1,5,-1
 70 625 l 1,6,-1
 410 625 l 1,7,-1
 395 535 l 1,8,-1
 170 535 l 1,9,-1
 170 351 l 1,10,-1
 370 351 l 1,11,-1
 370 266 l 1,0,-1
187 762 m 128,-1,13
 187 800 187 800 200.5 815 c 128,-1,14
 214 830 214 830 254.5 830 c 128,-1,15
 295 830 295 830 308 815 c 128,-1,16
 321 800 321 800 321 761.5 c 128,-1,17
 321 723 321 723 308 709.5 c 128,-1,18
 295 696 295 696 254.5 696 c 128,-1,19
 214 696 214 696 200.5 710 c 128,-1,12
 187 724 187 724 187 762 c 128,-1,13
EndSplineSet
EndChar

StartChar: edotaccent
Encoding: 279 279 216
Width: 533
GlyphClass: 2
Flags: W
LayerCount: 2
Fore
SplineSet
371 420 m 1,0,-1
 257 420 l 2,1,2
 213 420 213 420 195.5 409 c 128,-1,3
 178 398 178 398 178 362 c 2,4,-1
 178 273 l 1,5,-1
 292 273 l 2,6,7
 336 273 336 273 353.5 284 c 128,-1,8
 371 295 371 295 371 331 c 2,9,-1
 371 420 l 1,0,-1
456 20 m 1,10,11
 372 -8 372 -8 281 -8 c 128,-1,12
 190 -8 190 -8 148.5 13 c 128,-1,13
 107 34 107 34 87.5 89 c 128,-1,14
 68 144 68 144 68 250 c 0,15,16
 68 405 68 405 113.5 460 c 128,-1,17
 159 515 159 515 274.5 515 c 128,-1,18
 390 515 390 515 431.5 482.5 c 128,-1,19
 473 450 473 450 473 350 c 0,20,21
 473 285 473 285 461.5 263.5 c 128,-1,22
 450 242 450 242 441.5 230.5 c 128,-1,23
 433 219 433 219 412 211 c 128,-1,24
 391 203 391 203 373.5 199 c 128,-1,25
 356 195 356 195 322 192 c 0,26,27
 273 189 273 189 178 189 c 1,28,-1
 178 90 l 1,29,30
 224 79 224 79 288 79 c 128,-1,31
 352 79 352 79 438 103 c 1,32,-1
 456 20 l 1,10,11
229 637 m 128,-1,34
 229 675 229 675 242.5 690 c 128,-1,35
 256 705 256 705 296.5 705 c 128,-1,36
 337 705 337 705 350 690 c 128,-1,37
 363 675 363 675 363 636.5 c 128,-1,38
 363 598 363 598 350 584.5 c 128,-1,39
 337 571 337 571 296.5 571 c 128,-1,40
 256 571 256 571 242.5 585 c 128,-1,33
 229 599 229 599 229 637 c 128,-1,34
EndSplineSet
EndChar

StartChar: Eogonek
Encoding: 280 280 217
Width: 455
GlyphClass: 2
Flags: W
LayerCount: 2
Fore
SplineSet
361 -45 m 2,0,-1
 361 -66 l 2,1,2
 361 -100 361 -100 390 -100 c 0,3,4
 394 -100 394 -100 404 -98 c 2,5,-1
 423 -93 l 1,6,-1
 442 -144 l 1,7,8
 408 -165 408 -165 368 -165 c 128,-1,9
 328 -165 328 -165 305 -141 c 128,-1,10
 282 -117 282 -117 282 -81 c 0,11,12
 282 -23 282 -23 331 0 c 1,13,-1
 70 0 l 1,14,-1
 70 625 l 1,15,-1
 410 625 l 1,16,-1
 395 535 l 1,17,-1
 170 535 l 1,18,-1
 170 351 l 1,19,-1
 370 351 l 1,20,-1
 370 266 l 1,21,-1
 170 266 l 1,22,-1
 170 90 l 1,23,-1
 415 90 l 1,24,-1
 415 0 l 1,25,-1
 395 -5 l 2,26,27
 374 -11 374 -11 367.5 -18 c 128,-1,28
 361 -25 361 -25 361 -45 c 2,0,-1
EndSplineSet
EndChar

StartChar: eogonek
Encoding: 281 281 218
Width: 533
GlyphClass: 2
Flags: W
LayerCount: 2
Fore
SplineSet
269 -8 m 0,0,1
 190 -8 190 -8 148.5 13 c 128,-1,2
 107 34 107 34 87.5 89 c 128,-1,3
 68 144 68 144 68 250 c 0,4,5
 68 405 68 405 113.5 460 c 128,-1,6
 159 515 159 515 274.5 515 c 128,-1,7
 390 515 390 515 431.5 482.5 c 128,-1,8
 473 450 473 450 473 350 c 0,9,10
 473 285 473 285 461.5 263.5 c 128,-1,11
 450 242 450 242 441.5 230.5 c 128,-1,12
 433 219 433 219 412 211 c 128,-1,13
 391 203 391 203 373.5 199 c 128,-1,14
 356 195 356 195 322 192 c 0,15,16
 273 189 273 189 178 189 c 1,17,-1
 178 90 l 1,18,19
 224 79 224 79 288 79 c 128,-1,20
 352 79 352 79 438 103 c 1,21,-1
 456 20 l 1,22,23
 431 12 431 12 409 7 c 1,24,25
 389 -1 389 -1 389 -29 c 2,26,-1
 389 -50 l 2,27,28
 389 -84 389 -84 418 -84 c 0,29,30
 422 -84 422 -84 432 -82 c 2,31,-1
 451 -77 l 1,32,-1
 470 -128 l 1,33,34
 436 -149 436 -149 396 -149 c 128,-1,35
 356 -149 356 -149 333 -125 c 128,-1,36
 310 -101 310 -101 310 -63 c 128,-1,37
 310 -25 310 -25 329 -5 c 1,38,39
 275 -8 275 -8 269 -8 c 0,0,1
371 420 m 1,40,-1
 257 420 l 2,41,42
 213 420 213 420 195.5 409 c 128,-1,43
 178 398 178 398 178 362 c 2,44,-1
 178 273 l 1,45,-1
 292 273 l 2,46,47
 336 273 336 273 353.5 284 c 128,-1,48
 371 295 371 295 371 331 c 2,49,-1
 371 420 l 1,40,-1
EndSplineSet
EndChar

StartChar: Ecaron
Encoding: 282 282 219
Width: 455
GlyphClass: 2
Flags: W
LayerCount: 2
Fore
SplineSet
370 266 m 1,0,-1
 170 266 l 1,1,-1
 170 90 l 1,2,-1
 415 90 l 1,3,-1
 415 0 l 1,4,-1
 70 0 l 1,5,-1
 70 625 l 1,6,-1
 410 625 l 1,7,-1
 395 535 l 1,8,-1
 170 535 l 1,9,-1
 170 351 l 1,10,-1
 370 351 l 1,11,-1
 370 266 l 1,0,-1
264 685 m 2,12,-1
 246 685 l 2,13,14
 240 685 240 685 236 691 c 1,15,-1
 122 807 l 1,16,-1
 162 841 l 1,17,-1
 255 777 l 1,18,-1
 348 841 l 1,19,-1
 388 807 l 1,20,-1
 274 691 l 1,21,22
 270 685 270 685 264 685 c 2,12,-1
EndSplineSet
EndChar

StartChar: ecaron
Encoding: 283 283 220
Width: 533
GlyphClass: 2
Flags: W
LayerCount: 2
Fore
SplineSet
371 420 m 1,0,-1
 257 420 l 2,1,2
 213 420 213 420 195.5 409 c 128,-1,3
 178 398 178 398 178 362 c 2,4,-1
 178 273 l 1,5,-1
 292 273 l 2,6,7
 336 273 336 273 353.5 284 c 128,-1,8
 371 295 371 295 371 331 c 2,9,-1
 371 420 l 1,0,-1
456 20 m 1,10,11
 372 -8 372 -8 281 -8 c 128,-1,12
 190 -8 190 -8 148.5 13 c 128,-1,13
 107 34 107 34 87.5 89 c 128,-1,14
 68 144 68 144 68 250 c 0,15,16
 68 405 68 405 113.5 460 c 128,-1,17
 159 515 159 515 274.5 515 c 128,-1,18
 390 515 390 515 431.5 482.5 c 128,-1,19
 473 450 473 450 473 350 c 0,20,21
 473 285 473 285 461.5 263.5 c 128,-1,22
 450 242 450 242 441.5 230.5 c 128,-1,23
 433 219 433 219 412 211 c 128,-1,24
 391 203 391 203 373.5 199 c 128,-1,25
 356 195 356 195 322 192 c 0,26,27
 273 189 273 189 178 189 c 1,28,-1
 178 90 l 1,29,30
 224 79 224 79 288 79 c 128,-1,31
 352 79 352 79 438 103 c 1,32,-1
 456 20 l 1,10,11
306 560 m 2,33,-1
 288 560 l 2,34,35
 282 560 282 560 278 566 c 1,36,-1
 164 682 l 1,37,-1
 204 716 l 1,38,-1
 297 652 l 1,39,-1
 390 716 l 1,40,-1
 430 682 l 1,41,-1
 316 566 l 1,42,43
 312 560 312 560 306 560 c 2,33,-1
EndSplineSet
EndChar

StartChar: Gcircumflex
Encoding: 284 284 221
Width: 600
GlyphClass: 2
Flags: W
LayerCount: 2
Fore
SplineSet
390 142 m 2,0,-1
 390 244 l 1,1,-1
 319 244 l 1,2,-1
 319 334 l 1,3,-1
 480 334 l 1,4,-1
 480 30 l 1,5,6
 380 -15 380 -15 272 -15 c 0,7,8
 136 -15 136 -15 93 50 c 128,-1,9
 50 115 50 115 50 312 c 128,-1,10
 50 509 50 509 99 574.5 c 128,-1,11
 148 640 148 640 301 640 c 0,12,13
 379 640 379 640 450 619 c 1,14,-1
 435 531 l 1,15,16
 354 545 354 545 285 545 c 128,-1,17
 216 545 216 545 188 534 c 128,-1,18
 160 523 160 523 160 489 c 2,19,-1
 160 82 l 1,20,-1
 297 82 l 2,21,22
 329 82 329 82 346 85 c 128,-1,23
 363 88 363 88 376.5 101.5 c 128,-1,24
 390 115 390 115 390 142 c 2,0,-1
291 837 m 2,25,-1
 309 837 l 2,26,27
 314 837 314 837 319 831 c 2,28,-1
 433 715 l 1,29,-1
 393 681 l 1,30,-1
 300 745 l 1,31,-1
 207 681 l 1,32,-1
 167 715 l 1,33,-1
 281 831 l 2,34,35
 286 837 286 837 291 837 c 2,25,-1
EndSplineSet
EndChar

StartChar: gcircumflex
Encoding: 285 285 222
Width: 496
GlyphClass: 2
Flags: W
LayerCount: 2
Fore
SplineSet
81 197.5 m 128,-1,1
 50 238 50 238 50 337.5 c 128,-1,2
 50 437 50 437 93.5 476 c 128,-1,3
 137 515 137 515 243 515 c 0,4,5
 316 515 316 515 357 498 c 1,6,-1
 426 552 l 1,7,-1
 476 503 l 1,8,-1
 419 436 l 1,9,10
 436 394 436 394 436 330 c 0,11,12
 436 228 436 228 397 188.5 c 128,-1,13
 358 149 358 149 263 146 c 1,14,-1
 258 84 l 1,15,16
 362 78 362 78 404.5 56 c 128,-1,17
 447 34 447 34 447 -39 c 0,18,19
 447 -102 447 -102 414 -128 c 0,20,21
 397 -141 397 -141 381 -149 c 128,-1,22
 365 -157 365 -157 334 -160 c 0,23,24
 295 -165 295 -165 213.5 -165 c 128,-1,25
 132 -165 132 -165 58 -135 c 1,26,-1
 73 -49 l 1,27,28
 165 -78 165 -78 264 -78 c 0,29,30
 298 -78 298 -78 331 -73 c 1,31,-1
 331 -8 l 1,32,33
 206 -8 206 -8 166 15 c 0,34,35
 151 24 151 24 151 35 c 1,36,-1
 185 149 l 1,37,0
 112 157 112 157 81 197.5 c 128,-1,1
153 380 m 2,38,-1
 153 235 l 1,39,-1
 264 235 l 2,40,41
 300 235 300 235 316.5 242.5 c 128,-1,42
 333 250 333 250 333 277 c 2,43,-1
 333 422 l 1,44,-1
 222 422 l 2,45,46
 186 422 186 422 169.5 414.5 c 128,-1,47
 153 407 153 407 153 380 c 2,38,-1
245 712 m 2,48,-1
 263 712 l 2,49,50
 268 712 268 712 273 706 c 2,51,-1
 387 590 l 1,52,-1
 347 556 l 1,53,-1
 254 620 l 1,54,-1
 161 556 l 1,55,-1
 121 590 l 1,56,-1
 235 706 l 2,57,58
 240 712 240 712 245 712 c 2,48,-1
EndSplineSet
EndChar

StartChar: Gbreve
Encoding: 286 286 223
Width: 600
GlyphClass: 2
Flags: W
LayerCount: 2
Fore
SplineSet
390 142 m 2,0,-1
 390 244 l 1,1,-1
 319 244 l 1,2,-1
 319 334 l 1,3,-1
 480 334 l 1,4,-1
 480 30 l 1,5,6
 380 -15 380 -15 272 -15 c 0,7,8
 136 -15 136 -15 93 50 c 128,-1,9
 50 115 50 115 50 312 c 128,-1,10
 50 509 50 509 99 574.5 c 128,-1,11
 148 640 148 640 301 640 c 0,12,13
 379 640 379 640 450 619 c 1,14,-1
 435 531 l 1,15,16
 354 545 354 545 285 545 c 128,-1,17
 216 545 216 545 188 534 c 128,-1,18
 160 523 160 523 160 489 c 2,19,-1
 160 82 l 1,20,-1
 297 82 l 2,21,22
 329 82 329 82 346 85 c 128,-1,23
 363 88 363 88 376.5 101.5 c 128,-1,24
 390 115 390 115 390 142 c 2,0,-1
300 765 m 128,-1,26
 317 765 317 765 332 777 c 128,-1,27
 347 789 347 789 353 811 c 1,28,-1
 418 800 l 1,29,30
 405 746 405 746 374 719 c 128,-1,31
 343 692 343 692 300 692 c 0,32,33
 205 692 205 692 182 800 c 1,34,-1
 247 811 l 1,35,36
 253 789 253 789 268 777 c 128,-1,25
 283 765 283 765 300 765 c 128,-1,26
EndSplineSet
EndChar

StartChar: gbreve
Encoding: 287 287 224
Width: 496
GlyphClass: 2
Flags: W
LayerCount: 2
Fore
SplineSet
81 197.5 m 128,-1,1
 50 238 50 238 50 337.5 c 128,-1,2
 50 437 50 437 93.5 476 c 128,-1,3
 137 515 137 515 243 515 c 0,4,5
 316 515 316 515 357 498 c 1,6,-1
 426 552 l 1,7,-1
 476 503 l 1,8,-1
 419 436 l 1,9,10
 436 394 436 394 436 330 c 0,11,12
 436 228 436 228 397 188.5 c 128,-1,13
 358 149 358 149 263 146 c 1,14,-1
 258 84 l 1,15,16
 362 78 362 78 404.5 56 c 128,-1,17
 447 34 447 34 447 -39 c 0,18,19
 447 -102 447 -102 414 -128 c 0,20,21
 397 -141 397 -141 381 -149 c 128,-1,22
 365 -157 365 -157 334 -160 c 0,23,24
 295 -165 295 -165 213.5 -165 c 128,-1,25
 132 -165 132 -165 58 -135 c 1,26,-1
 73 -49 l 1,27,28
 165 -78 165 -78 264 -78 c 0,29,30
 298 -78 298 -78 331 -73 c 1,31,-1
 331 -8 l 1,32,33
 206 -8 206 -8 166 15 c 0,34,35
 151 24 151 24 151 35 c 1,36,-1
 185 149 l 1,37,0
 112 157 112 157 81 197.5 c 128,-1,1
153 380 m 2,38,-1
 153 235 l 1,39,-1
 264 235 l 2,40,41
 300 235 300 235 316.5 242.5 c 128,-1,42
 333 250 333 250 333 277 c 2,43,-1
 333 422 l 1,44,-1
 222 422 l 2,45,46
 186 422 186 422 169.5 414.5 c 128,-1,47
 153 407 153 407 153 380 c 2,38,-1
253 640 m 128,-1,49
 270 640 270 640 285 652 c 128,-1,50
 300 664 300 664 306 686 c 1,51,-1
 371 675 l 1,52,53
 358 621 358 621 327 594 c 128,-1,54
 296 567 296 567 253 567 c 0,55,56
 158 567 158 567 135 675 c 1,57,-1
 200 686 l 1,58,59
 206 664 206 664 221 652 c 128,-1,48
 236 640 236 640 253 640 c 128,-1,49
EndSplineSet
EndChar

StartChar: Gdotaccent
Encoding: 288 288 225
Width: 600
GlyphClass: 2
Flags: W
LayerCount: 2
Fore
SplineSet
390 142 m 2,0,-1
 390 244 l 1,1,-1
 319 244 l 1,2,-1
 319 334 l 1,3,-1
 480 334 l 1,4,-1
 480 30 l 1,5,6
 380 -15 380 -15 272 -15 c 0,7,8
 136 -15 136 -15 93 50 c 128,-1,9
 50 115 50 115 50 312 c 128,-1,10
 50 509 50 509 99 574.5 c 128,-1,11
 148 640 148 640 301 640 c 0,12,13
 379 640 379 640 450 619 c 1,14,-1
 435 531 l 1,15,16
 354 545 354 545 285 545 c 128,-1,17
 216 545 216 545 188 534 c 128,-1,18
 160 523 160 523 160 489 c 2,19,-1
 160 82 l 1,20,-1
 297 82 l 2,21,22
 329 82 329 82 346 85 c 128,-1,23
 363 88 363 88 376.5 101.5 c 128,-1,24
 390 115 390 115 390 142 c 2,0,-1
232 762 m 128,-1,26
 232 800 232 800 245.5 815 c 128,-1,27
 259 830 259 830 299.5 830 c 128,-1,28
 340 830 340 830 353 815 c 128,-1,29
 366 800 366 800 366 761.5 c 128,-1,30
 366 723 366 723 353 709.5 c 128,-1,31
 340 696 340 696 299.5 696 c 128,-1,32
 259 696 259 696 245.5 710 c 128,-1,25
 232 724 232 724 232 762 c 128,-1,26
EndSplineSet
EndChar

StartChar: gdotaccent
Encoding: 289 289 226
Width: 536
GlyphClass: 2
Flags: W
LayerCount: 2
Fore
SplineSet
81 197.5 m 128,-1,1
 50 238 50 238 50 337.5 c 128,-1,2
 50 437 50 437 93.5 476 c 128,-1,3
 137 515 137 515 243 515 c 0,4,5
 316 515 316 515 357 498 c 1,6,-1
 426 552 l 1,7,-1
 476 503 l 1,8,-1
 419 436 l 1,9,10
 436 394 436 394 436 330 c 0,11,12
 436 228 436 228 397 188.5 c 128,-1,13
 358 149 358 149 263 146 c 1,14,-1
 258 84 l 1,15,16
 362 78 362 78 404.5 56 c 128,-1,17
 447 34 447 34 447 -39 c 0,18,19
 447 -102 447 -102 414 -128 c 0,20,21
 397 -141 397 -141 381 -149 c 128,-1,22
 365 -157 365 -157 334 -160 c 0,23,24
 295 -165 295 -165 213.5 -165 c 128,-1,25
 132 -165 132 -165 58 -135 c 1,26,-1
 73 -49 l 1,27,28
 165 -78 165 -78 264 -78 c 0,29,30
 298 -78 298 -78 331 -73 c 1,31,-1
 331 -8 l 1,32,33
 206 -8 206 -8 166 15 c 0,34,35
 151 24 151 24 151 35 c 1,36,-1
 185 149 l 1,37,0
 112 157 112 157 81 197.5 c 128,-1,1
153 380 m 2,38,-1
 153 235 l 1,39,-1
 264 235 l 2,40,41
 300 235 300 235 316.5 242.5 c 128,-1,42
 333 250 333 250 333 277 c 2,43,-1
 333 422 l 1,44,-1
 222 422 l 2,45,46
 186 422 186 422 169.5 414.5 c 128,-1,47
 153 407 153 407 153 380 c 2,38,-1
188 637 m 128,-1,49
 188 675 188 675 201.5 690 c 128,-1,50
 215 705 215 705 255.5 705 c 128,-1,51
 296 705 296 705 309 690 c 128,-1,52
 322 675 322 675 322 636.5 c 128,-1,53
 322 598 322 598 309 584.5 c 128,-1,54
 296 571 296 571 255.5 571 c 128,-1,55
 215 571 215 571 201.5 585 c 128,-1,48
 188 599 188 599 188 637 c 128,-1,49
EndSplineSet
EndChar

StartChar: uni0122
Encoding: 290 290 227
Width: 530
GlyphClass: 2
Flags: W
LayerCount: 2
Fore
SplineSet
390 142 m 2,0,-1
 390 244 l 1,1,-1
 319 244 l 1,2,-1
 319 334 l 1,3,-1
 480 334 l 1,4,-1
 480 30 l 1,5,6
 380 -15 380 -15 272 -15 c 0,7,8
 136 -15 136 -15 93 50 c 128,-1,9
 50 115 50 115 50 312 c 128,-1,10
 50 509 50 509 99 574.5 c 128,-1,11
 148 640 148 640 301 640 c 0,12,13
 379 640 379 640 450 619 c 1,14,-1
 435 531 l 1,15,16
 354 545 354 545 285 545 c 128,-1,17
 216 545 216 545 188 534 c 128,-1,18
 160 523 160 523 160 489 c 2,19,-1
 160 82 l 1,20,-1
 297 82 l 2,21,22
 329 82 329 82 346 85 c 128,-1,23
 363 88 363 88 376.5 101.5 c 128,-1,24
 390 115 390 115 390 142 c 2,0,-1
211.5 -158.5 m 128,-1,26
 202 -146 202 -146 202 -109.5 c 128,-1,27
 202 -73 202 -73 215 -55.5 c 128,-1,28
 228 -38 228 -38 265 -38 c 128,-1,29
 302 -38 302 -38 315 -55.5 c 128,-1,30
 328 -73 328 -73 328 -116 c 128,-1,31
 328 -159 328 -159 310 -199 c 2,32,-1
 279 -267 l 1,33,-1
 240 -255 l 1,34,-1
 248 -173 l 1,35,25
 221 -171 221 -171 211.5 -158.5 c 128,-1,26
EndSplineSet
EndChar

StartChar: uni0123
Encoding: 291 291 228
Width: 496
GlyphClass: 2
Flags: W
LayerCount: 2
Fore
SplineSet
81 197.5 m 128,-1,1
 50 238 50 238 50 337.5 c 128,-1,2
 50 437 50 437 93.5 476 c 128,-1,3
 137 515 137 515 243 515 c 0,4,5
 316 515 316 515 357 498 c 1,6,-1
 426 552 l 1,7,-1
 476 503 l 1,8,-1
 419 436 l 1,9,10
 436 394 436 394 436 330 c 0,11,12
 436 228 436 228 397 188.5 c 128,-1,13
 358 149 358 149 263 146 c 1,14,-1
 258 84 l 1,15,16
 362 78 362 78 404.5 56 c 128,-1,17
 447 34 447 34 447 -39 c 0,18,19
 447 -102 447 -102 414 -128 c 0,20,21
 397 -141 397 -141 381 -149 c 128,-1,22
 365 -157 365 -157 334 -160 c 0,23,24
 295 -165 295 -165 213.5 -165 c 128,-1,25
 132 -165 132 -165 58 -135 c 1,26,-1
 73 -49 l 1,27,28
 165 -78 165 -78 264 -78 c 0,29,30
 298 -78 298 -78 331 -73 c 1,31,-1
 331 -8 l 1,32,33
 206 -8 206 -8 166 15 c 0,34,35
 151 24 151 24 151 35 c 1,36,-1
 185 149 l 1,37,0
 112 157 112 157 81 197.5 c 128,-1,1
153 380 m 2,38,-1
 153 235 l 1,39,-1
 264 235 l 2,40,41
 300 235 300 235 316.5 242.5 c 128,-1,42
 333 250 333 250 333 277 c 2,43,-1
 333 422 l 1,44,-1
 222 422 l 2,45,46
 186 422 186 422 169.5 414.5 c 128,-1,47
 153 407 153 407 153 380 c 2,38,-1
309.5 686.5 m 128,-1,49
 319 674 319 674 319 637.5 c 128,-1,50
 319 601 319 601 306 583.5 c 128,-1,51
 293 566 293 566 256 566 c 128,-1,52
 219 566 219 566 206 583.5 c 128,-1,53
 193 601 193 601 193 644 c 128,-1,54
 193 687 193 687 211 727 c 2,55,-1
 242 795 l 1,56,-1
 281 783 l 1,57,-1
 273 701 l 1,58,48
 300 699 300 699 309.5 686.5 c 128,-1,49
EndSplineSet
EndChar

StartChar: Hcircumflex
Encoding: 292 292 229
Width: 580
GlyphClass: 2
Flags: W
LayerCount: 2
Fore
SplineSet
410 0 m 1,0,-1
 410 267 l 1,1,-1
 170 267 l 1,2,-1
 170 0 l 1,3,-1
 70 0 l 1,4,-1
 70 625 l 1,5,-1
 170 625 l 1,6,-1
 170 357 l 1,7,-1
 410 357 l 1,8,-1
 410 625 l 1,9,-1
 510 625 l 1,10,-1
 510 0 l 1,11,-1
 410 0 l 1,0,-1
281 837 m 2,12,-1
 299 837 l 2,13,14
 304 837 304 837 309 831 c 2,15,-1
 423 715 l 1,16,-1
 383 681 l 1,17,-1
 290 745 l 1,18,-1
 197 681 l 1,19,-1
 157 715 l 1,20,-1
 271 831 l 2,21,22
 276 837 276 837 281 837 c 2,12,-1
EndSplineSet
EndChar

StartChar: hcircumflex
Encoding: 293 293 230
Width: 555
GlyphClass: 2
Flags: W
LayerCount: 2
Fore
SplineSet
370 510 m 0,0,1
 421 510 421 510 445.5 488.5 c 128,-1,2
 470 467 470 467 470 410 c 2,3,-1
 470 0 l 1,4,-1
 370 0 l 1,5,-1
 370 408 l 1,6,-1
 269 408 l 2,7,8
 225 408 225 408 207.5 397 c 128,-1,9
 190 386 190 386 190 350 c 2,10,-1
 190 0 l 1,11,-1
 90 0 l 1,12,-1
 90 657 l 1,13,-1
 185 665 l 1,14,-1
 185 448 l 1,15,16
 277 510 277 510 370 510 c 0,0,1
136 855 m 2,17,-1
 154 855 l 2,18,19
 160 855 160 855 164 849 c 1,20,-1
 278 733 l 1,21,-1
 238 699 l 1,22,-1
 145 763 l 1,23,-1
 52 699 l 1,24,-1
 12 733 l 1,25,-1
 126 849 l 1,26,27
 130 855 130 855 136 855 c 2,17,-1
EndSplineSet
EndChar

StartChar: Hbar
Encoding: 294 294 231
Width: 580
GlyphClass: 2
Flags: W
LayerCount: 2
Fore
SplineSet
18 468 m 1,0,-1
 18 505 l 2,1,2
 18 522 18 522 26 526.5 c 128,-1,3
 34 531 34 531 56 531 c 2,4,-1
 70 531 l 1,5,-1
 70 625 l 1,6,-1
 170 625 l 1,7,-1
 170 531 l 1,8,-1
 410 531 l 1,9,-1
 410 625 l 1,10,-1
 510 625 l 1,11,-1
 510 531 l 1,12,-1
 564 531 l 1,13,-1
 564 493 l 2,14,15
 564 476 564 476 556 472 c 128,-1,16
 548 468 548 468 525 468 c 2,17,-1
 510 468 l 1,18,-1
 510 0 l 1,19,-1
 410 0 l 1,20,-1
 410 267 l 1,21,-1
 170 267 l 1,22,-1
 170 0 l 1,23,-1
 70 0 l 1,24,-1
 70 468 l 1,25,-1
 18 468 l 1,0,-1
170 357 m 1,26,-1
 410 357 l 1,27,-1
 410 468 l 1,28,-1
 170 468 l 1,29,-1
 170 357 l 1,26,-1
EndSplineSet
EndChar

StartChar: hbar
Encoding: 295 295 232
Width: 555
GlyphClass: 2
Flags: W
LayerCount: 2
Fore
SplineSet
14 549 m 1,0,-1
 14 586 l 2,1,2
 14 603 14 603 22 607.5 c 128,-1,3
 30 612 30 612 52 612 c 2,4,-1
 90 612 l 1,5,-1
 90 657 l 1,6,-1
 185 665 l 1,7,-1
 185 612 l 1,8,-1
 257 612 l 1,9,-1
 257 574 l 2,10,11
 257 557 257 557 249 553 c 128,-1,12
 241 549 241 549 218 549 c 2,13,-1
 185 549 l 1,14,-1
 185 448 l 1,15,16
 277 510 277 510 370 510 c 0,17,18
 421 510 421 510 445.5 488.5 c 128,-1,19
 470 467 470 467 470 410 c 2,20,-1
 470 0 l 1,21,-1
 370 0 l 1,22,-1
 370 408 l 1,23,-1
 269 408 l 2,24,25
 225 408 225 408 207.5 397 c 128,-1,26
 190 386 190 386 190 350 c 2,27,-1
 190 0 l 1,28,-1
 90 0 l 1,29,-1
 90 549 l 1,30,-1
 14 549 l 1,0,-1
EndSplineSet
EndChar

StartChar: Itilde
Encoding: 296 296 233
Width: 240
GlyphClass: 2
Flags: W
LayerCount: 2
Fore
SplineSet
70 0 m 1,0,-1
 70 625 l 1,1,-1
 170 625 l 1,2,-1
 170 0 l 1,3,-1
 70 0 l 1,0,-1
175 696.5 m 128,-1,5
 158 689 158 689 138 689 c 128,-1,6
 118 689 118 689 86 720 c 1,7,-1
 71 732 l 1,8,-1
 5 699 l 1,9,-1
 -26 750 l 1,10,-1
 4 771 l 2,11,12
 46 800 46 800 63 807.5 c 128,-1,13
 80 815 80 815 100 815 c 128,-1,14
 120 815 120 815 154 784 c 1,15,-1
 169 772 l 1,16,-1
 235 805 l 1,17,-1
 266 754 l 1,18,-1
 236 733 l 1,19,4
 192 704 192 704 175 696.5 c 128,-1,5
EndSplineSet
EndChar

StartChar: itilde
Encoding: 297 297 234
Width: 280
GlyphClass: 2
Flags: W
LayerCount: 2
Fore
SplineSet
90 0 m 1,0,-1
 90 493 l 1,1,-1
 190 508 l 1,2,-1
 190 0 l 1,3,-1
 90 0 l 1,0,-1
195 571.5 m 128,-1,5
 178 564 178 564 158 564 c 128,-1,6
 138 564 138 564 106 595 c 1,7,-1
 91 607 l 1,8,-1
 25 574 l 1,9,-1
 -6 625 l 1,10,-1
 24 646 l 2,11,12
 66 675 66 675 83 682.5 c 128,-1,13
 100 690 100 690 120 690 c 128,-1,14
 140 690 140 690 174 659 c 1,15,-1
 189 647 l 1,16,-1
 255 680 l 1,17,-1
 286 629 l 1,18,-1
 256 608 l 1,19,4
 212 579 212 579 195 571.5 c 128,-1,5
EndSplineSet
EndChar

StartChar: Imacron
Encoding: 298 298 235
Width: 240
GlyphClass: 2
Flags: W
LayerCount: 2
Fore
SplineSet
70 0 m 1,0,-1
 70 625 l 1,1,-1
 170 625 l 1,2,-1
 170 0 l 1,3,-1
 70 0 l 1,0,-1
242 711 m 1,4,-1
 44 711 l 2,5,6
 15 711 15 711 7 720.5 c 128,-1,7
 -1 730 -1 730 -1 757 c 2,8,-1
 -1 792 l 1,9,-1
 198 792 l 2,10,11
 227 792 227 792 234.5 783 c 128,-1,12
 242 774 242 774 242 747 c 2,13,-1
 242 711 l 1,4,-1
EndSplineSet
EndChar

StartChar: imacron
Encoding: 299 299 236
Width: 280
GlyphClass: 2
Flags: W
LayerCount: 2
Fore
SplineSet
90 0 m 1,0,-1
 90 493 l 1,1,-1
 190 508 l 1,2,-1
 190 0 l 1,3,-1
 90 0 l 1,0,-1
262 586 m 1,4,-1
 64 586 l 2,5,6
 35 586 35 586 27 595.5 c 128,-1,7
 19 605 19 605 19 632 c 2,8,-1
 19 667 l 1,9,-1
 218 667 l 2,10,11
 247 667 247 667 254.5 658 c 128,-1,12
 262 649 262 649 262 622 c 2,13,-1
 262 586 l 1,4,-1
EndSplineSet
EndChar

StartChar: Ibreve
Encoding: 300 300 237
Width: 240
GlyphClass: 2
Flags: W
LayerCount: 2
Fore
SplineSet
70 0 m 1,0,-1
 70 625 l 1,1,-1
 170 625 l 1,2,-1
 170 0 l 1,3,-1
 70 0 l 1,0,-1
120 765 m 128,-1,5
 137 765 137 765 152 777 c 128,-1,6
 167 789 167 789 173 811 c 1,7,-1
 238 800 l 1,8,9
 225 746 225 746 194 719 c 128,-1,10
 163 692 163 692 120 692 c 0,11,12
 25 692 25 692 2 800 c 1,13,-1
 67 811 l 1,14,15
 73 789 73 789 88 777 c 128,-1,4
 103 765 103 765 120 765 c 128,-1,5
EndSplineSet
EndChar

StartChar: ibreve
Encoding: 301 301 238
Width: 280
GlyphClass: 2
Flags: W
LayerCount: 2
Fore
SplineSet
90 0 m 1,0,-1
 90 493 l 1,1,-1
 190 508 l 1,2,-1
 190 0 l 1,3,-1
 90 0 l 1,0,-1
140 640 m 128,-1,5
 157 640 157 640 172 652 c 128,-1,6
 187 664 187 664 193 686 c 1,7,-1
 258 675 l 1,8,9
 245 621 245 621 214 594 c 128,-1,10
 183 567 183 567 140 567 c 0,11,12
 45 567 45 567 22 675 c 1,13,-1
 87 686 l 1,14,15
 93 664 93 664 108 652 c 128,-1,4
 123 640 123 640 140 640 c 128,-1,5
EndSplineSet
EndChar

StartChar: Iogonek
Encoding: 302 302 239
Width: 240
GlyphClass: 2
Flags: W
LayerCount: 2
Fore
SplineSet
70 625 m 1,0,-1
 170 625 l 1,1,-1
 170 0 l 1,2,-1
 134 -5 l 2,3,4
 114 -8 114 -8 107 -16 c 128,-1,5
 100 -24 100 -24 100 -45 c 2,6,-1
 100 -66 l 2,7,8
 100 -100 100 -100 129 -100 c 0,9,10
 133 -100 133 -100 143 -98 c 2,11,-1
 162 -93 l 1,12,-1
 181 -144 l 1,13,14
 147 -165 147 -165 107 -165 c 128,-1,15
 67 -165 67 -165 44 -141 c 128,-1,16
 21 -117 21 -117 21 -81 c 0,17,18
 21 -23 21 -23 70 0 c 1,19,-1
 70 625 l 1,0,-1
EndSplineSet
EndChar

StartChar: iogonek
Encoding: 303 303 240
Width: 280
GlyphClass: 2
Flags: W
LayerCount: 2
Fore
SplineSet
120 -45 m 2,0,-1
 120 -66 l 2,1,2
 120 -100 120 -100 149 -100 c 0,3,4
 153 -100 153 -100 163 -98 c 2,5,-1
 182 -93 l 1,6,-1
 201 -144 l 1,7,8
 167 -165 167 -165 127 -165 c 128,-1,9
 87 -165 87 -165 64 -141 c 128,-1,10
 41 -117 41 -117 41 -81 c 0,11,12
 41 -23 41 -23 90 0 c 1,13,-1
 90 493 l 1,14,-1
 190 508 l 1,15,-1
 190 0 l 1,16,-1
 154 -5 l 2,17,18
 134 -8 134 -8 127 -16 c 128,-1,19
 120 -24 120 -24 120 -45 c 2,0,-1
91.5 588 m 128,-1,21
 79 601 79 601 79 634.5 c 128,-1,22
 79 668 79 668 91.5 681.5 c 128,-1,23
 104 695 104 695 140.5 695 c 128,-1,24
 177 695 177 695 189.5 681.5 c 128,-1,25
 202 668 202 668 202 634.5 c 128,-1,26
 202 601 202 601 189.5 588 c 128,-1,27
 177 575 177 575 140.5 575 c 128,-1,20
 104 575 104 575 91.5 588 c 128,-1,21
EndSplineSet
EndChar

StartChar: Idotaccent
Encoding: 304 304 241
Width: 240
GlyphClass: 2
Flags: W
LayerCount: 2
Fore
SplineSet
70 0 m 1,0,-1
 70 625 l 1,1,-1
 170 625 l 1,2,-1
 170 0 l 1,3,-1
 70 0 l 1,0,-1
53 762 m 128,-1,5
 53 800 53 800 66.5 815 c 128,-1,6
 80 830 80 830 120.5 830 c 128,-1,7
 161 830 161 830 174 815 c 128,-1,8
 187 800 187 800 187 761.5 c 128,-1,9
 187 723 187 723 174 709.5 c 128,-1,10
 161 696 161 696 120.5 696 c 128,-1,11
 80 696 80 696 66.5 710 c 128,-1,4
 53 724 53 724 53 762 c 128,-1,5
EndSplineSet
EndChar

StartChar: dotlessi
Encoding: 305 305 242
Width: 280
GlyphClass: 2
Flags: W
LayerCount: 2
Fore
SplineSet
90 0 m 1,0,-1
 90 493 l 1,1,-1
 190 508 l 1,2,-1
 190 0 l 1,3,-1
 90 0 l 1,0,-1
EndSplineSet
EndChar

StartChar: IJ
Encoding: 306 306 243
Width: 556
GlyphClass: 2
Flags: W
LayerCount: 2
Fore
SplineSet
70 0 m 1,0,-1
 70 625 l 1,1,-1
 170 625 l 1,2,-1
 170 0 l 1,3,-1
 70 0 l 1,0,-1
343 90 m 2,4,5
 374 90 374 90 382.5 98.5 c 128,-1,6
 391 107 391 107 391 120 c 2,7,-1
 391 535 l 1,8,-1
 278 535 l 1,9,-1
 278 625 l 1,10,-1
 491 625 l 1,11,-1
 491 135 l 2,12,13
 491 58 491 58 453.5 29 c 128,-1,14
 416 0 416 0 336 0 c 2,15,-1
 262 0 l 1,16,-1
 250 90 l 1,17,-1
 343 90 l 2,4,5
EndSplineSet
EndChar

StartChar: ij
Encoding: 307 307 244
Width: 560
GlyphClass: 2
Flags: W
LayerCount: 2
Fore
SplineSet
90 0 m 1,0,-1
 90 493 l 1,1,-1
 190 508 l 1,2,-1
 190 0 l 1,3,-1
 90 0 l 1,0,-1
91.5 588 m 128,-1,5
 79 601 79 601 79 634.5 c 128,-1,6
 79 668 79 668 91.5 681.5 c 128,-1,7
 104 695 104 695 140.5 695 c 128,-1,8
 177 695 177 695 189.5 681.5 c 128,-1,9
 202 668 202 668 202 634.5 c 128,-1,10
 202 601 202 601 189.5 588 c 128,-1,11
 177 575 177 575 140.5 575 c 128,-1,4
 104 575 104 575 91.5 588 c 128,-1,5
270 -165 m 1,12,-1
 270 -105 l 1,13,-1
 322 -95 l 2,14,15
 370 -86 370 -86 370 -45 c 2,16,-1
 370 493 l 1,17,-1
 470 508 l 1,18,-1
 470 -20 l 2,19,20
 470 -98 470 -98 439 -131.5 c 128,-1,21
 408 -165 408 -165 346 -165 c 2,22,-1
 270 -165 l 1,12,-1
371.5 588 m 128,-1,24
 359 601 359 601 359 634.5 c 128,-1,25
 359 668 359 668 371.5 681.5 c 128,-1,26
 384 695 384 695 420.5 695 c 128,-1,27
 457 695 457 695 469.5 681.5 c 128,-1,28
 482 668 482 668 482 634.5 c 128,-1,29
 482 601 482 601 469.5 588 c 128,-1,30
 457 575 457 575 420.5 575 c 128,-1,23
 384 575 384 575 371.5 588 c 128,-1,24
EndSplineSet
EndChar

StartChar: Jcircumflex
Encoding: 308 308 245
Width: 316
GlyphClass: 2
Flags: W
LayerCount: 2
Fore
SplineSet
103 90 m 2,0,1
 134 90 134 90 142.5 98.5 c 128,-1,2
 151 107 151 107 151 120 c 2,3,-1
 151 535 l 1,4,-1
 38 535 l 1,5,-1
 38 625 l 1,6,-1
 251 625 l 1,7,-1
 251 135 l 2,8,9
 251 58 251 58 213.5 29 c 128,-1,10
 176 0 176 0 96 0 c 2,11,-1
 22 0 l 1,12,-1
 10 90 l 1,13,-1
 103 90 l 2,0,1
184 837 m 2,14,-1
 202 837 l 2,15,16
 207 837 207 837 212 831 c 2,17,-1
 326 715 l 1,18,-1
 286 681 l 1,19,-1
 193 745 l 1,20,-1
 100 681 l 1,21,-1
 60 715 l 1,22,-1
 174 831 l 1,23,24
 178 837 178 837 184 837 c 2,14,-1
EndSplineSet
EndChar

StartChar: jcircumflex
Encoding: 309 309 246
Width: 280
GlyphClass: 2
Flags: W
LayerCount: 2
Fore
SplineSet
-10 -165 m 1,0,-1
 -10 -105 l 1,1,-1
 42 -95 l 2,2,3
 90 -86 90 -86 90 -45 c 2,4,-1
 90 493 l 1,5,-1
 190 508 l 1,6,-1
 190 -20 l 2,7,8
 190 -98 190 -98 159 -131.5 c 128,-1,9
 128 -165 128 -165 66 -165 c 2,10,-1
 -10 -165 l 1,0,-1
131 712 m 2,11,-1
 149 712 l 2,12,13
 154 712 154 712 159 706 c 2,14,-1
 273 590 l 1,15,-1
 233 556 l 1,16,-1
 140 620 l 1,17,-1
 47 556 l 1,18,-1
 7 590 l 1,19,-1
 121 706 l 1,20,21
 125 712 125 712 131 712 c 2,11,-1
EndSplineSet
EndChar

StartChar: uni0136
Encoding: 310 310 247
Width: 493
GlyphClass: 2
Flags: W
LayerCount: 2
Fore
SplineSet
170 276 m 1,0,-1
 170 0 l 1,1,-1
 70 0 l 1,2,-1
 70 625 l 1,3,-1
 170 625 l 1,4,-1
 170 366 l 1,5,-1
 254 366 l 1,6,7
 256 401 256 401 264 418 c 2,8,-1
 362 625 l 1,9,-1
 478 625 l 1,10,-1
 328 318 l 1,11,-1
 483 0 l 1,12,-1
 367 0 l 1,13,-1
 264 224 l 2,14,15
 256 241 256 241 254 276 c 1,16,-1
 170 276 l 1,0,-1
192.5 -158.5 m 128,-1,18
 183 -146 183 -146 183 -109.5 c 128,-1,19
 183 -73 183 -73 196 -55.5 c 128,-1,20
 209 -38 209 -38 246 -38 c 128,-1,21
 283 -38 283 -38 296 -55.5 c 128,-1,22
 309 -73 309 -73 309 -116 c 128,-1,23
 309 -159 309 -159 291 -199 c 2,24,-1
 260 -267 l 1,25,-1
 221 -255 l 1,26,-1
 229 -173 l 1,27,17
 202 -171 202 -171 192.5 -158.5 c 128,-1,18
EndSplineSet
EndChar

StartChar: uni0137
Encoding: 311 311 248
Width: 510
GlyphClass: 2
Flags: W
LayerCount: 2
Fore
SplineSet
190 227 m 1,0,-1
 190 0 l 1,1,-1
 90 0 l 1,2,-1
 90 650 l 1,3,-1
 190 665 l 1,4,-1
 190 307 l 1,5,-1
 259 307 l 1,6,-1
 363 500 l 1,7,-1
 470 500 l 1,8,-1
 342 267 l 1,9,-1
 475 0 l 1,10,-1
 368 0 l 1,11,-1
 253 227 l 1,12,-1
 190 227 l 1,0,-1
221.5 -158.5 m 128,-1,14
 212 -146 212 -146 212 -109.5 c 128,-1,15
 212 -73 212 -73 225 -55.5 c 128,-1,16
 238 -38 238 -38 275 -38 c 128,-1,17
 312 -38 312 -38 325 -55.5 c 128,-1,18
 338 -73 338 -73 338 -116 c 128,-1,19
 338 -159 338 -159 320 -199 c 2,20,-1
 289 -267 l 1,21,-1
 250 -255 l 1,22,-1
 258 -173 l 1,23,13
 231 -171 231 -171 221.5 -158.5 c 128,-1,14
EndSplineSet
EndChar

StartChar: kgreenlandic
Encoding: 312 312 249
Width: 510
GlyphClass: 2
Flags: W
LayerCount: 2
Fore
SplineSet
190 227 m 1,0,-1
 190 0 l 1,1,-1
 90 0 l 1,2,-1
 90 500 l 1,3,-1
 190 500 l 1,4,-1
 190 307 l 1,5,-1
 259 307 l 1,6,-1
 363 500 l 1,7,-1
 470 500 l 1,8,-1
 342 267 l 1,9,-1
 475 0 l 1,10,-1
 368 0 l 1,11,-1
 253 227 l 1,12,-1
 190 227 l 1,0,-1
EndSplineSet
EndChar

StartChar: Lacute
Encoding: 313 313 250
Width: 380
GlyphClass: 2
Flags: W
LayerCount: 2
Fore
SplineSet
380 0 m 1,0,-1
 70 0 l 1,1,-1
 70 625 l 1,2,-1
 170 625 l 1,3,-1
 170 90 l 1,4,-1
 380 90 l 1,5,-1
 380 0 l 1,0,-1
193 833 m 2,6,7
 198 837 198 837 201.5 837 c 128,-1,8
 205 837 205 837 209 832 c 2,9,-1
 253 778 l 2,10,11
 259 770 259 770 259 766.5 c 128,-1,12
 259 763 259 763 255 759 c 2,13,-1
 225 734 l 2,14,15
 216 727 216 727 203 724 c 2,16,-1
 63 689 l 1,17,-1
 41 723 l 1,18,-1
 193 833 l 2,6,7
EndSplineSet
EndChar

StartChar: lacute
Encoding: 314 314 251
Width: 280
GlyphClass: 2
Flags: W
LayerCount: 2
Fore
SplineSet
90 84 m 2,0,-1
 90 650 l 1,1,-1
 190 665 l 1,2,-1
 190 73 l 1,3,4
 224 69 224 69 236 68 c 1,5,-1
 230 -11 l 1,6,7
 145 -11 145 -11 117.5 7 c 128,-1,8
 90 25 90 25 90 84 c 2,0,-1
200 838 m 2,9,10
 205 842 205 842 208.5 842 c 128,-1,11
 212 842 212 842 216 837 c 2,12,-1
 260 783 l 2,13,14
 266 775 266 775 266 771.5 c 128,-1,15
 266 768 266 768 262 764 c 2,16,-1
 232 739 l 2,17,18
 223 732 223 732 210 729 c 2,19,-1
 70 694 l 1,20,-1
 48 728 l 1,21,-1
 200 838 l 2,9,10
EndSplineSet
EndChar

StartChar: uni013B
Encoding: 315 315 252
Width: 380
GlyphClass: 2
Flags: W
LayerCount: 2
Fore
SplineSet
380 0 m 1,0,-1
 70 0 l 1,1,-1
 70 625 l 1,2,-1
 170 625 l 1,3,-1
 170 90 l 1,4,-1
 380 90 l 1,5,-1
 380 0 l 1,0,-1
171.5 -158.5 m 128,-1,7
 162 -146 162 -146 162 -109.5 c 128,-1,8
 162 -73 162 -73 175 -55.5 c 128,-1,9
 188 -38 188 -38 225 -38 c 128,-1,10
 262 -38 262 -38 275 -55.5 c 128,-1,11
 288 -73 288 -73 288 -116 c 128,-1,12
 288 -159 288 -159 270 -199 c 2,13,-1
 239 -267 l 1,14,-1
 200 -255 l 1,15,-1
 208 -173 l 1,16,6
 181 -171 181 -171 171.5 -158.5 c 128,-1,7
EndSplineSet
EndChar

StartChar: uni013C
Encoding: 316 316 253
Width: 280
GlyphClass: 2
Flags: W
LayerCount: 2
Fore
SplineSet
90 84 m 2,0,-1
 90 650 l 1,1,-1
 190 665 l 1,2,-1
 190 73 l 1,3,4
 224 69 224 69 236 68 c 1,5,-1
 230 -11 l 1,6,7
 145 -11 145 -11 117.5 7 c 128,-1,8
 90 25 90 25 90 84 c 2,0,-1
90.5 -158.5 m 128,-1,10
 81 -146 81 -146 81 -109.5 c 128,-1,11
 81 -73 81 -73 94 -55.5 c 128,-1,12
 107 -38 107 -38 144 -38 c 128,-1,13
 181 -38 181 -38 194 -55.5 c 128,-1,14
 207 -73 207 -73 207 -116 c 128,-1,15
 207 -159 207 -159 189 -199 c 2,16,-1
 158 -267 l 1,17,-1
 119 -255 l 1,18,-1
 127 -173 l 1,19,9
 100 -171 100 -171 90.5 -158.5 c 128,-1,10
EndSplineSet
EndChar

StartChar: Lcaron
Encoding: 317 317 254
Width: 380
GlyphClass: 2
Flags: W
LayerCount: 2
Fore
SplineSet
380 0 m 1,0,-1
 70 0 l 1,1,-1
 70 625 l 1,2,-1
 170 625 l 1,3,-1
 170 90 l 1,4,-1
 380 90 l 1,5,-1
 380 0 l 1,0,-1
241.5 544.5 m 128,-1,7
 232 557 232 557 232 593.5 c 128,-1,8
 232 630 232 630 245 647.5 c 128,-1,9
 258 665 258 665 295 665 c 128,-1,10
 332 665 332 665 345 647.5 c 128,-1,11
 358 630 358 630 358 587 c 128,-1,12
 358 544 358 544 340 504 c 2,13,-1
 309 436 l 1,14,-1
 270 448 l 1,15,-1
 278 530 l 1,16,6
 251 532 251 532 241.5 544.5 c 128,-1,7
EndSplineSet
EndChar

StartChar: lcaron
Encoding: 318 318 255
Width: 309
GlyphClass: 2
Flags: W
LayerCount: 2
Fore
SplineSet
90 84 m 2,0,-1
 90 650 l 1,1,-1
 190 665 l 1,2,-1
 190 73 l 1,3,4
 224 69 224 69 236 68 c 1,5,-1
 230 -11 l 1,6,7
 145 -11 145 -11 117.5 7 c 128,-1,8
 90 25 90 25 90 84 c 2,0,-1
255.5 544.5 m 128,-1,10
 246 557 246 557 246 593.5 c 128,-1,11
 246 630 246 630 259 647.5 c 128,-1,12
 272 665 272 665 309 665 c 128,-1,13
 346 665 346 665 359 647.5 c 128,-1,14
 372 630 372 630 372 587 c 128,-1,15
 372 544 372 544 354 504 c 2,16,-1
 323 436 l 1,17,-1
 284 448 l 1,18,-1
 292 530 l 1,19,9
 265 532 265 532 255.5 544.5 c 128,-1,10
EndSplineSet
EndChar

StartChar: Ldot
Encoding: 319 319 256
Width: 380
GlyphClass: 2
Flags: W
LayerCount: 2
Fore
SplineSet
380 0 m 1,0,-1
 70 0 l 1,1,-1
 70 625 l 1,2,-1
 170 625 l 1,3,-1
 170 90 l 1,4,-1
 380 90 l 1,5,-1
 380 0 l 1,0,-1
249 327 m 128,-1,7
 249 372 249 372 262.5 390 c 128,-1,8
 276 408 276 408 314.5 408 c 128,-1,9
 353 408 353 408 366.5 390 c 128,-1,10
 380 372 380 372 380 327 c 128,-1,11
 380 282 380 282 367 264.5 c 128,-1,12
 354 247 354 247 315 247 c 128,-1,13
 276 247 276 247 262.5 264.5 c 128,-1,6
 249 282 249 282 249 327 c 128,-1,7
EndSplineSet
EndChar

StartChar: ldot
Encoding: 320 320 257
Width: 309
GlyphClass: 2
Flags: W
LayerCount: 2
Fore
SplineSet
90 84 m 2,0,-1
 90 650 l 1,1,-1
 190 665 l 1,2,-1
 190 73 l 1,3,4
 224 69 224 69 236 68 c 1,5,-1
 230 -11 l 1,6,7
 145 -11 145 -11 117.5 7 c 128,-1,8
 90 25 90 25 90 84 c 2,0,-1
229 327 m 128,-1,10
 229 372 229 372 242.5 390 c 128,-1,11
 256 408 256 408 294.5 408 c 128,-1,12
 333 408 333 408 346.5 390 c 128,-1,13
 360 372 360 372 360 327 c 128,-1,14
 360 282 360 282 347 264.5 c 128,-1,15
 334 247 334 247 295 247 c 128,-1,16
 256 247 256 247 242.5 264.5 c 128,-1,9
 229 282 229 282 229 327 c 128,-1,10
EndSplineSet
EndChar

StartChar: Lslash
Encoding: 321 321 258
Width: 380
GlyphClass: 2
Flags: W
LayerCount: 2
Fore
SplineSet
250 361 m 0,0,1
 250 345 250 345 219 334 c 2,2,-1
 170 317 l 1,3,-1
 170 90 l 1,4,-1
 380 90 l 1,5,-1
 380 0 l 1,6,-1
 70 0 l 1,7,-1
 70 284 l 1,8,-1
 11 265 l 1,9,-1
 -4 309 l 2,10,11
 -6 317 -6 317 -6 319 c 0,12,13
 -6 335 -6 335 25 346 c 2,14,-1
 70 361 l 1,15,-1
 70 625 l 1,16,-1
 170 625 l 1,17,-1
 170 394 l 1,18,-1
 233 415 l 1,19,-1
 248 371 l 2,20,21
 250 363 250 363 250 361 c 0,0,1
EndSplineSet
EndChar

StartChar: lslash
Encoding: 322 322 259
Width: 280
GlyphClass: 2
Flags: W
LayerCount: 2
Fore
SplineSet
270 361 m 0,0,1
 270 345 270 345 239 334 c 2,2,-1
 190 317 l 1,3,-1
 190 73 l 1,4,5
 224 69 224 69 236 68 c 1,6,-1
 230 -11 l 1,7,8
 145 -11 145 -11 117.5 7 c 128,-1,9
 90 25 90 25 90 84 c 2,10,-1
 90 284 l 1,11,-1
 31 265 l 1,12,-1
 16 309 l 2,13,14
 14 317 14 317 14 319 c 0,15,16
 14 335 14 335 45 346 c 2,17,-1
 90 361 l 1,18,-1
 90 650 l 1,19,-1
 190 665 l 1,20,-1
 190 394 l 1,21,-1
 253 415 l 1,22,-1
 268 371 l 2,23,24
 270 363 270 363 270 361 c 0,0,1
EndSplineSet
EndChar

StartChar: Nacute
Encoding: 323 323 260
Width: 575
GlyphClass: 2
Flags: W
LayerCount: 2
Fore
SplineSet
170 458 m 1,0,-1
 170 0 l 1,1,-1
 70 0 l 1,2,-1
 70 625 l 1,3,-1
 178 625 l 1,4,-1
 391 215 l 1,5,6
 399 204 399 204 401 167 c 1,7,-1
 405 167 l 1,8,-1
 405 625 l 1,9,-1
 505 625 l 1,10,-1
 505 0 l 1,11,-1
 397 0 l 1,12,-1
 184 410 l 1,13,14
 176 421 176 421 174 458 c 1,15,-1
 170 458 l 1,0,-1
373 833 m 2,16,17
 378 837 378 837 381.5 837 c 128,-1,18
 385 837 385 837 389 832 c 2,19,-1
 433 778 l 2,20,21
 439 770 439 770 439 766.5 c 128,-1,22
 439 763 439 763 435 759 c 2,23,-1
 405 734 l 2,24,25
 396 727 396 727 383 724 c 2,26,-1
 243 689 l 1,27,-1
 221 723 l 1,28,-1
 373 833 l 2,16,17
EndSplineSet
EndChar

StartChar: nacute
Encoding: 324 324 261
Width: 555
GlyphClass: 2
Flags: W
LayerCount: 2
Fore
SplineSet
370 510 m 0,0,1
 421 510 421 510 445.5 488.5 c 128,-1,2
 470 467 470 467 470 410 c 2,3,-1
 470 0 l 1,4,-1
 370 0 l 1,5,-1
 370 408 l 1,6,-1
 269 408 l 2,7,8
 225 408 225 408 207.5 397 c 128,-1,9
 190 386 190 386 190 350 c 2,10,-1
 190 0 l 1,11,-1
 90 0 l 1,12,-1
 90 500 l 1,13,-1
 136 500 l 1,14,-1
 173 440 l 1,15,16
 277 510 277 510 370 510 c 0,0,1
340 708 m 2,17,18
 345 712 345 712 348.5 712 c 128,-1,19
 352 712 352 712 356 707 c 2,20,-1
 400 653 l 2,21,22
 406 645 406 645 406 641.5 c 128,-1,23
 406 638 406 638 402 634 c 2,24,-1
 372 609 l 2,25,26
 363 602 363 602 350 599 c 2,27,-1
 210 564 l 1,28,-1
 188 598 l 1,29,-1
 340 708 l 2,17,18
EndSplineSet
EndChar

StartChar: uni0145
Encoding: 325 325 262
Width: 575
GlyphClass: 2
Flags: W
LayerCount: 2
Fore
SplineSet
170 458 m 1,0,-1
 170 0 l 1,1,-1
 70 0 l 1,2,-1
 70 625 l 1,3,-1
 178 625 l 1,4,-1
 391 215 l 1,5,6
 399 204 399 204 401 167 c 1,7,-1
 405 167 l 1,8,-1
 405 625 l 1,9,-1
 505 625 l 1,10,-1
 505 0 l 1,11,-1
 397 0 l 1,12,-1
 184 410 l 1,13,14
 176 421 176 421 174 458 c 1,15,-1
 170 458 l 1,0,-1
233.5 -158.5 m 128,-1,17
 224 -146 224 -146 224 -109.5 c 128,-1,18
 224 -73 224 -73 237 -55.5 c 128,-1,19
 250 -38 250 -38 287 -38 c 128,-1,20
 324 -38 324 -38 337 -55.5 c 128,-1,21
 350 -73 350 -73 350 -116 c 128,-1,22
 350 -159 350 -159 332 -199 c 2,23,-1
 301 -267 l 1,24,-1
 262 -255 l 1,25,-1
 270 -173 l 1,26,16
 243 -171 243 -171 233.5 -158.5 c 128,-1,17
EndSplineSet
EndChar

StartChar: uni0146
Encoding: 326 326 263
Width: 555
GlyphClass: 2
Flags: W
LayerCount: 2
Fore
SplineSet
370 510 m 0,0,1
 421 510 421 510 445.5 488.5 c 128,-1,2
 470 467 470 467 470 410 c 2,3,-1
 470 0 l 1,4,-1
 370 0 l 1,5,-1
 370 408 l 1,6,-1
 269 408 l 2,7,8
 225 408 225 408 207.5 397 c 128,-1,9
 190 386 190 386 190 350 c 2,10,-1
 190 0 l 1,11,-1
 90 0 l 1,12,-1
 90 500 l 1,13,-1
 136 500 l 1,14,-1
 173 440 l 1,15,16
 277 510 277 510 370 510 c 0,0,1
223.5 -158.5 m 128,-1,18
 214 -146 214 -146 214 -109.5 c 128,-1,19
 214 -73 214 -73 227 -55.5 c 128,-1,20
 240 -38 240 -38 277 -38 c 128,-1,21
 314 -38 314 -38 327 -55.5 c 128,-1,22
 340 -73 340 -73 340 -116 c 128,-1,23
 340 -159 340 -159 322 -199 c 2,24,-1
 291 -267 l 1,25,-1
 252 -255 l 1,26,-1
 260 -173 l 1,27,17
 233 -171 233 -171 223.5 -158.5 c 128,-1,18
EndSplineSet
EndChar

StartChar: Ncaron
Encoding: 327 327 264
Width: 575
GlyphClass: 2
Flags: W
LayerCount: 2
Fore
SplineSet
170 458 m 1,0,-1
 170 0 l 1,1,-1
 70 0 l 1,2,-1
 70 625 l 1,3,-1
 178 625 l 1,4,-1
 391 215 l 1,5,6
 399 204 399 204 401 167 c 1,7,-1
 405 167 l 1,8,-1
 405 625 l 1,9,-1
 505 625 l 1,10,-1
 505 0 l 1,11,-1
 397 0 l 1,12,-1
 184 410 l 1,13,14
 176 421 176 421 174 458 c 1,15,-1
 170 458 l 1,0,-1
296 685 m 2,16,-1
 278 685 l 2,17,18
 272 685 272 685 268 691 c 1,19,-1
 154 807 l 1,20,-1
 194 841 l 1,21,-1
 287 777 l 1,22,-1
 380 841 l 1,23,-1
 420 807 l 1,24,-1
 306 691 l 1,25,26
 302 685 302 685 296 685 c 2,16,-1
EndSplineSet
EndChar

StartChar: ncaron
Encoding: 328 328 265
Width: 555
GlyphClass: 2
Flags: W
LayerCount: 2
Fore
SplineSet
370 510 m 0,0,1
 421 510 421 510 445.5 488.5 c 128,-1,2
 470 467 470 467 470 410 c 2,3,-1
 470 0 l 1,4,-1
 370 0 l 1,5,-1
 370 408 l 1,6,-1
 269 408 l 2,7,8
 225 408 225 408 207.5 397 c 128,-1,9
 190 386 190 386 190 350 c 2,10,-1
 190 0 l 1,11,-1
 90 0 l 1,12,-1
 90 500 l 1,13,-1
 136 500 l 1,14,-1
 173 440 l 1,15,16
 277 510 277 510 370 510 c 0,0,1
296 560 m 2,17,-1
 278 560 l 2,18,19
 272 560 272 560 268 566 c 1,20,-1
 154 682 l 1,21,-1
 194 716 l 1,22,-1
 287 652 l 1,23,-1
 380 716 l 1,24,-1
 420 682 l 1,25,-1
 306 566 l 1,26,27
 302 560 302 560 296 560 c 2,17,-1
EndSplineSet
EndChar

StartChar: napostrophe
Encoding: 329 329 266
Width: 555
GlyphClass: 2
Flags: W
LayerCount: 2
Fore
SplineSet
370 510 m 0,0,1
 421 510 421 510 445.5 488.5 c 128,-1,2
 470 467 470 467 470 410 c 2,3,-1
 470 0 l 1,4,-1
 370 0 l 1,5,-1
 370 408 l 1,6,-1
 269 408 l 2,7,8
 225 408 225 408 207.5 397 c 128,-1,9
 190 386 190 386 190 350 c 2,10,-1
 190 0 l 1,11,-1
 90 0 l 1,12,-1
 90 500 l 1,13,-1
 136 500 l 1,14,-1
 173 440 l 1,15,16
 277 510 277 510 370 510 c 0,0,1
-23.5 647.5 m 128,-1,18
 -33 660 -33 660 -33 696.5 c 128,-1,19
 -33 733 -33 733 -20 750.5 c 128,-1,20
 -7 768 -7 768 30 768 c 128,-1,21
 67 768 67 768 80 750.5 c 128,-1,22
 93 733 93 733 93 690 c 128,-1,23
 93 647 93 647 75 607 c 2,24,-1
 44 539 l 1,25,-1
 5 551 l 1,26,-1
 13 633 l 1,27,17
 -14 635 -14 635 -23.5 647.5 c 128,-1,18
EndSplineSet
EndChar

StartChar: Eng
Encoding: 330 330 267
Width: 575
GlyphClass: 2
Flags: W
LayerCount: 2
Fore
SplineSet
305 -165 m 1,0,-1
 305 -105 l 1,1,-1
 357 -95 l 2,2,3
 405 -86 405 -86 405 -45 c 2,4,-1
 405 -14 l 1,5,-1
 184 410 l 1,6,7
 176 421 176 421 174 458 c 1,8,-1
 170 458 l 1,9,-1
 170 0 l 1,10,-1
 70 0 l 1,11,-1
 70 625 l 1,12,-1
 178 625 l 1,13,-1
 391 215 l 1,14,15
 399 204 399 204 401 167 c 1,16,-1
 405 167 l 1,17,-1
 405 625 l 1,18,-1
 505 625 l 1,19,-1
 505 -20 l 2,20,21
 505 -98 505 -98 474 -131.5 c 128,-1,22
 443 -165 443 -165 381 -165 c 2,23,-1
 305 -165 l 1,0,-1
EndSplineSet
EndChar

StartChar: eng
Encoding: 331 331 268
Width: 555
GlyphClass: 2
Flags: W
LayerCount: 2
Fore
SplineSet
270 -165 m 1,0,-1
 270 -105 l 1,1,-1
 322 -95 l 2,2,3
 370 -86 370 -86 370 -45 c 2,4,-1
 370 408 l 1,5,-1
 269 408 l 2,6,7
 225 408 225 408 207.5 397 c 128,-1,8
 190 386 190 386 190 350 c 2,9,-1
 190 0 l 1,10,-1
 90 0 l 1,11,-1
 90 500 l 1,12,-1
 136 500 l 1,13,-1
 173 440 l 1,14,15
 277 510 277 510 370 510 c 0,16,17
 421 510 421 510 445.5 488.5 c 128,-1,18
 470 467 470 467 470 410 c 2,19,-1
 470 -20 l 2,20,21
 470 -98 470 -98 439 -131.5 c 128,-1,22
 408 -165 408 -165 346 -165 c 2,23,-1
 270 -165 l 1,0,-1
EndSplineSet
EndChar

StartChar: Omacron
Encoding: 332 332 269
Width: 581
GlyphClass: 2
Flags: W
LayerCount: 2
Fore
SplineSet
98 51 m 128,-1,1
 50 117 50 117 50 312.5 c 128,-1,2
 50 508 50 508 98 574 c 128,-1,3
 146 640 146 640 290 640 c 128,-1,4
 434 640 434 640 482.5 573.5 c 128,-1,5
 531 507 531 507 531 312 c 128,-1,6
 531 117 531 117 482.5 51 c 128,-1,7
 434 -15 434 -15 290 -15 c 128,-1,0
 146 -15 146 -15 98 51 c 128,-1,1
160 486 m 2,8,-1
 160 86 l 1,9,-1
 343 86 l 2,10,11
 384 86 384 86 402.5 95.5 c 128,-1,12
 421 105 421 105 421 139 c 2,13,-1
 421 539 l 1,14,-1
 237 539 l 2,15,16
 197 539 197 539 178.5 529.5 c 128,-1,17
 160 520 160 520 160 486 c 2,8,-1
412 711 m 1,18,-1
 214 711 l 2,19,20
 185 711 185 711 177 720.5 c 128,-1,21
 169 730 169 730 169 757 c 2,22,-1
 169 792 l 1,23,-1
 368 792 l 2,24,25
 397 792 397 792 404.5 783 c 128,-1,26
 412 774 412 774 412 747 c 2,27,-1
 412 711 l 1,18,-1
EndSplineSet
EndChar

